M48
;Layer_Color=9474304
;FILE_FORMAT=4:4
METRIC,LZ
;TYPE=PLATED
T1F00S00C0.4000
T2F00S00C1.1000
T3F00S00C1.2000
T4F00S00C1.3000
T5F00S00C3.2000
%
T01
X-0015113Y0046228
X-0015789Y0049616
X-0023114Y0048006
X-0021717Y00527685
X-0030353Y0049276
X-0031623
X-0034671Y0052451
X-0038989Y0049784
X-0044704Y0049469
Y0048199
Y0046929
Y0045659
X-0049022Y0045593
Y0046863
Y0048133
Y0049403
Y0050673
Y0053053
X-0051943Y0051707
Y0049167
X-0044704Y0050739
Y0053119
X-0060325Y0054229
X-0058928Y0073279
X-0057531Y0054229
X-0049022Y0054323
Y0055593
Y0056863
Y0058133
X-0050125Y0060407
X-0044704Y0058199
Y0056929
Y0055659
Y0054389
X-0039977Y0056134
X-0035814
X-00313602Y00537421
X-0028702Y00554798
X-0027432Y006223
X-0026416Y0062738
X-0026289Y0064008
X-0028829Y0066802
X-00296766Y0067719
X-0029972Y006604
X-0032131Y0065151
X-0035052
X-0035814Y0067719
X-0038862
X-0041557Y00591713
X-00324104Y0060452
X-0023241Y0061595
X-0018923Y0061468
X-0019431Y00589599
X-0020193Y0057023
X-0018415
X-0018161Y0055245
X-0018034Y0067564
X-0021844
X-0022098Y0065151
X-0023114Y0066167
X-0015789Y0063627
X-0012065Y0058928
X-0013335Y0057023
X-0013716Y0055245
X-0009017Y0056642
X-0006096Y005969
X-0005842Y0061214
T02
X-0016764Y0035814
X-0014224
X-0011684
X-0006858
X-0004318
X-0001778
X0000762
X00015Y004572
Y004826
Y00508
Y005334
X-0019304Y0035814
X-0024257
X-0026797
X-0029337
X-0031877
X-0036703
X-0039243
X-0041783
X-0044323
X-0049292
X-0051832
X-0054372
X-0056912
X-0056769Y0077569
X-0054229
X-0051689
X-0049149
X-0044323Y0077597
X-0041783
X-0039243
X-0036703
X-0031877
X-0029337
X-0026797
X-0024257
X-0019431
X-0016891
X-0014351
X-0011811
X-0006858
X-0004318
X-0001778
X0000762
X0001524Y0065913
Y0063373
Y0060833
Y0058293
T03
X-00635Y0041402
Y0068232
T04
X-0016764Y0033654
X-0004318
X-0029337
X-0041783
X-0054372
X-0051689Y0079729
X-0039243Y0079757
X-0026797
X-0014351
X-0001778
T05
X-0004699Y0047752
X-0061976Y0033528
X-0005715Y0067437
M30
