G04*
G04 #@! TF.GenerationSoftware,Altium Limited,Altium Designer,23.3.1 (30)*
G04*
G04 Layer_Color=16711935*
%FSLAX44Y44*%
%MOMM*%
G71*
G04*
G04 #@! TF.SameCoordinates,3FD81306-C8D3-46B1-8163-1FBD848DCD1C*
G04*
G04*
G04 #@! TF.FilePolarity,Negative*
G04*
G01*
G75*
%ADD62C,1.8532*%
%ADD63R,1.8532X1.8532*%
%ADD64C,4.2032*%
%ADD65C,1.7032*%
%ADD66C,1.6032*%
%ADD67C,2.2032*%
%ADD86C,1.2032*%
G36*
X184642Y271313D02*
X184746Y271306D01*
X184857Y271292D01*
X184989Y271278D01*
X185127Y271251D01*
X185266Y271223D01*
X185419Y271188D01*
X185571Y271147D01*
X185717Y271098D01*
X185863Y271036D01*
X186008Y270959D01*
X186140Y270883D01*
X186258Y270786D01*
X186265Y270779D01*
X186285Y270765D01*
X186313Y270731D01*
X186355Y270689D01*
X186403Y270641D01*
X186452Y270571D01*
X186507Y270495D01*
X186570Y270412D01*
X186625Y270315D01*
X186681Y270210D01*
X186736Y270093D01*
X186785Y269968D01*
X186833Y269836D01*
X186868Y269690D01*
X186889Y269538D01*
X186903Y269378D01*
X185613Y269330D01*
Y269337D01*
X185606Y269351D01*
Y269378D01*
X185599Y269406D01*
X185585Y269448D01*
X185571Y269496D01*
X185537Y269600D01*
X185488Y269711D01*
X185426Y269829D01*
X185349Y269940D01*
X185252Y270030D01*
X185238Y270037D01*
X185204Y270065D01*
X185141Y270100D01*
X185051Y270141D01*
X184933Y270183D01*
X184795Y270217D01*
X184628Y270245D01*
X184434Y270252D01*
X184344D01*
X184295Y270245D01*
X184240Y270238D01*
X184108Y270224D01*
X183969Y270197D01*
X183817Y270155D01*
X183678Y270093D01*
X183546Y270016D01*
X183540Y270009D01*
X183519Y269989D01*
X183484Y269954D01*
X183449Y269912D01*
X183408Y269857D01*
X183380Y269788D01*
X183352Y269711D01*
X183345Y269621D01*
Y269614D01*
Y269587D01*
X183352Y269538D01*
X183366Y269489D01*
X183394Y269427D01*
X183422Y269358D01*
X183470Y269295D01*
X183533Y269233D01*
X183546Y269226D01*
X183560Y269212D01*
X183588Y269198D01*
X183616Y269177D01*
X183657Y269156D01*
X183713Y269129D01*
X183775Y269101D01*
X183845Y269073D01*
X183928Y269039D01*
X184025Y269004D01*
X184136Y268969D01*
X184261Y268928D01*
X184399Y268886D01*
X184552Y268845D01*
X184718Y268803D01*
X184732D01*
X184760Y268796D01*
X184809Y268782D01*
X184871Y268768D01*
X184954Y268747D01*
X185037Y268720D01*
X185141Y268692D01*
X185245Y268664D01*
X185474Y268595D01*
X185703Y268519D01*
X185814Y268477D01*
X185925Y268435D01*
X186022Y268387D01*
X186112Y268345D01*
X186119D01*
X186133Y268331D01*
X186154Y268318D01*
X186188Y268304D01*
X186272Y268248D01*
X186376Y268179D01*
X186486Y268082D01*
X186604Y267971D01*
X186722Y267839D01*
X186826Y267693D01*
Y267687D01*
X186840Y267673D01*
X186847Y267652D01*
X186868Y267617D01*
X186889Y267575D01*
X186910Y267527D01*
X186930Y267472D01*
X186958Y267409D01*
X186979Y267340D01*
X187000Y267264D01*
X187041Y267090D01*
X187069Y266889D01*
X187083Y266674D01*
Y266667D01*
Y266653D01*
Y266619D01*
X187076Y266584D01*
Y266535D01*
X187069Y266473D01*
X187055Y266411D01*
X187041Y266341D01*
X187007Y266182D01*
X186951Y266008D01*
X186875Y265828D01*
X186826Y265731D01*
X186771Y265641D01*
Y265634D01*
X186757Y265620D01*
X186736Y265592D01*
X186715Y265565D01*
X186681Y265523D01*
X186646Y265474D01*
X186549Y265371D01*
X186424Y265259D01*
X186278Y265135D01*
X186105Y265024D01*
X185904Y264927D01*
X185897D01*
X185876Y264920D01*
X185849Y264906D01*
X185807Y264892D01*
X185751Y264871D01*
X185682Y264857D01*
X185606Y264837D01*
X185523Y264816D01*
X185426Y264788D01*
X185322Y264767D01*
X185204Y264753D01*
X185079Y264732D01*
X184954Y264719D01*
X184809Y264705D01*
X184663Y264698D01*
X184455D01*
X184392Y264705D01*
X184309D01*
X184212Y264712D01*
X184094Y264726D01*
X183962Y264746D01*
X183824Y264767D01*
X183671Y264795D01*
X183519Y264837D01*
X183366Y264878D01*
X183214Y264934D01*
X183061Y264996D01*
X182915Y265072D01*
X182777Y265156D01*
X182645Y265253D01*
X182638Y265259D01*
X182617Y265280D01*
X182583Y265315D01*
X182541Y265357D01*
X182492Y265419D01*
X182430Y265488D01*
X182368Y265572D01*
X182305Y265669D01*
X182236Y265780D01*
X182167Y265898D01*
X182104Y266036D01*
X182042Y266182D01*
X181986Y266341D01*
X181938Y266508D01*
X181896Y266695D01*
X181868Y266889D01*
X183123Y267014D01*
Y267007D01*
X183130Y266986D01*
X183137Y266952D01*
X183144Y266910D01*
X183158Y266854D01*
X183179Y266799D01*
X183221Y266660D01*
X183283Y266508D01*
X183366Y266348D01*
X183463Y266203D01*
X183519Y266140D01*
X183581Y266078D01*
X183588D01*
X183595Y266064D01*
X183616Y266050D01*
X183643Y266029D01*
X183678Y266008D01*
X183727Y265988D01*
X183775Y265960D01*
X183831Y265932D01*
X183969Y265877D01*
X184129Y265835D01*
X184316Y265800D01*
X184524Y265786D01*
X184587D01*
X184628Y265793D01*
X184684D01*
X184739Y265800D01*
X184878Y265821D01*
X185030Y265849D01*
X185190Y265898D01*
X185342Y265960D01*
X185412Y266001D01*
X185474Y266050D01*
X185481D01*
X185488Y266064D01*
X185523Y266099D01*
X185578Y266154D01*
X185634Y266223D01*
X185689Y266313D01*
X185745Y266425D01*
X185779Y266542D01*
X185793Y266605D01*
Y266667D01*
Y266674D01*
Y266709D01*
X185786Y266750D01*
X185779Y266799D01*
X185758Y266861D01*
X185738Y266931D01*
X185703Y266993D01*
X185654Y267055D01*
X185648Y267062D01*
X185627Y267083D01*
X185592Y267111D01*
X185550Y267153D01*
X185481Y267194D01*
X185405Y267243D01*
X185308Y267284D01*
X185190Y267333D01*
X185176Y267340D01*
X185162D01*
X185141Y267347D01*
X185114Y267354D01*
X185072Y267367D01*
X185030Y267381D01*
X184975Y267395D01*
X184912Y267416D01*
X184836Y267437D01*
X184753Y267458D01*
X184656Y267485D01*
X184552Y267513D01*
X184434Y267541D01*
X184302Y267575D01*
X184157Y267610D01*
X184143D01*
X184108Y267624D01*
X184060Y267638D01*
X183990Y267659D01*
X183900Y267680D01*
X183803Y267714D01*
X183699Y267749D01*
X183588Y267784D01*
X183345Y267881D01*
X183103Y267985D01*
X182992Y268047D01*
X182881Y268109D01*
X182784Y268172D01*
X182701Y268241D01*
X182694Y268248D01*
X182673Y268269D01*
X182645Y268297D01*
X182610Y268338D01*
X182562Y268387D01*
X182513Y268449D01*
X182458Y268519D01*
X182409Y268602D01*
X182354Y268692D01*
X182298Y268789D01*
X182250Y268900D01*
X182201Y269011D01*
X182167Y269129D01*
X182139Y269261D01*
X182118Y269392D01*
X182111Y269531D01*
Y269538D01*
Y269552D01*
Y269580D01*
X182118Y269614D01*
Y269656D01*
X182125Y269711D01*
X182146Y269829D01*
X182180Y269968D01*
X182229Y270127D01*
X182298Y270287D01*
X182388Y270446D01*
Y270453D01*
X182402Y270467D01*
X182416Y270488D01*
X182437Y270516D01*
X182506Y270592D01*
X182589Y270689D01*
X182707Y270793D01*
X182839Y270897D01*
X183006Y271001D01*
X183186Y271091D01*
X183193D01*
X183207Y271098D01*
X183241Y271112D01*
X183276Y271126D01*
X183332Y271147D01*
X183387Y271161D01*
X183456Y271181D01*
X183540Y271209D01*
X183630Y271230D01*
X183720Y271251D01*
X183824Y271264D01*
X183935Y271285D01*
X184060Y271299D01*
X184177Y271313D01*
X184448Y271320D01*
X184566D01*
X184642Y271313D01*
D02*
G37*
G36*
X200348Y264816D02*
X199211D01*
Y265488D01*
X199197Y265474D01*
X199183Y265454D01*
X199162Y265433D01*
X199100Y265357D01*
X199024Y265273D01*
X198920Y265176D01*
X198809Y265072D01*
X198677Y264982D01*
X198538Y264899D01*
X198531D01*
X198524Y264892D01*
X198497Y264885D01*
X198469Y264871D01*
X198393Y264837D01*
X198295Y264809D01*
X198178Y264774D01*
X198046Y264739D01*
X197907Y264719D01*
X197762Y264712D01*
X197727D01*
X197685Y264719D01*
X197630D01*
X197561Y264732D01*
X197477Y264746D01*
X197387Y264767D01*
X197290Y264795D01*
X197186Y264823D01*
X197075Y264864D01*
X196964Y264920D01*
X196846Y264982D01*
X196735Y265051D01*
X196617Y265142D01*
X196507Y265239D01*
X196395Y265350D01*
X196389Y265357D01*
X196375Y265377D01*
X196340Y265419D01*
X196305Y265467D01*
X196264Y265537D01*
X196215Y265613D01*
X196167Y265710D01*
X196111Y265814D01*
X196056Y265939D01*
X196007Y266071D01*
X195959Y266223D01*
X195917Y266383D01*
X195882Y266556D01*
X195855Y266743D01*
X195834Y266945D01*
X195827Y267153D01*
Y267166D01*
Y267208D01*
X195834Y267264D01*
Y267347D01*
X195841Y267444D01*
X195855Y267555D01*
X195875Y267687D01*
X195896Y267818D01*
X195924Y267964D01*
X195959Y268109D01*
X196007Y268255D01*
X196056Y268408D01*
X196118Y268553D01*
X196194Y268692D01*
X196278Y268824D01*
X196375Y268942D01*
X196382Y268948D01*
X196402Y268969D01*
X196430Y268997D01*
X196472Y269039D01*
X196527Y269087D01*
X196597Y269136D01*
X196673Y269191D01*
X196756Y269254D01*
X196853Y269309D01*
X196964Y269365D01*
X197075Y269413D01*
X197200Y269462D01*
X197332Y269503D01*
X197470Y269531D01*
X197623Y269552D01*
X197775Y269559D01*
X197810D01*
X197852Y269552D01*
X197907D01*
X197976Y269538D01*
X198053Y269524D01*
X198136Y269503D01*
X198233Y269475D01*
X198337Y269441D01*
X198448Y269399D01*
X198559Y269344D01*
X198670Y269281D01*
X198788Y269212D01*
X198899Y269122D01*
X199010Y269025D01*
X199121Y268907D01*
Y271216D01*
X200348D01*
Y264816D01*
D02*
G37*
G36*
X177105Y269552D02*
X177153Y269545D01*
X177271Y269531D01*
X177403Y269510D01*
X177548Y269469D01*
X177694Y269420D01*
X177833Y269351D01*
X177840D01*
X177847Y269344D01*
X177888Y269309D01*
X177950Y269261D01*
X178034Y269198D01*
X178117Y269108D01*
X178207Y269004D01*
X178290Y268879D01*
X178360Y268741D01*
X178367Y268727D01*
X178374Y268706D01*
X178381Y268685D01*
X178387Y268650D01*
X178401Y268609D01*
X178415Y268567D01*
X178429Y268512D01*
X178436Y268442D01*
X178450Y268373D01*
X178464Y268297D01*
X178471Y268207D01*
X178477Y268116D01*
X178484Y268012D01*
X178491Y267894D01*
Y267777D01*
Y264816D01*
X177264D01*
Y267465D01*
Y267472D01*
Y267492D01*
Y267527D01*
Y267575D01*
X177257Y267631D01*
Y267693D01*
X177250Y267839D01*
X177229Y267985D01*
X177209Y268137D01*
X177195Y268200D01*
X177174Y268262D01*
X177153Y268318D01*
X177132Y268359D01*
X177125Y268373D01*
X177098Y268401D01*
X177063Y268442D01*
X177008Y268491D01*
X176931Y268539D01*
X176841Y268581D01*
X176737Y268609D01*
X176612Y268623D01*
X176571D01*
X176522Y268616D01*
X176453Y268602D01*
X176383Y268581D01*
X176300Y268553D01*
X176217Y268519D01*
X176127Y268463D01*
X176120Y268456D01*
X176092Y268435D01*
X176051Y268394D01*
X176002Y268345D01*
X175947Y268283D01*
X175891Y268200D01*
X175842Y268109D01*
X175801Y267999D01*
X175794Y267985D01*
Y267964D01*
X175787Y267943D01*
X175780Y267908D01*
X175773Y267867D01*
X175759Y267825D01*
X175752Y267770D01*
X175746Y267707D01*
X175732Y267631D01*
X175725Y267555D01*
X175718Y267472D01*
X175711Y267374D01*
Y267270D01*
X175704Y267160D01*
Y267042D01*
Y264816D01*
X174477D01*
Y267354D01*
Y267361D01*
Y267381D01*
Y267416D01*
Y267465D01*
Y267520D01*
Y267582D01*
X174470Y267721D01*
X174463Y267867D01*
X174449Y268012D01*
X174442Y268075D01*
X174428Y268137D01*
X174421Y268186D01*
X174407Y268227D01*
Y268234D01*
X174393Y268262D01*
X174379Y268297D01*
X174359Y268338D01*
X174296Y268435D01*
X174255Y268484D01*
X174206Y268526D01*
X174199Y268533D01*
X174178Y268539D01*
X174151Y268553D01*
X174109Y268574D01*
X174053Y268595D01*
X173991Y268609D01*
X173915Y268616D01*
X173832Y268623D01*
X173783D01*
X173728Y268616D01*
X173658Y268602D01*
X173582Y268581D01*
X173499Y268553D01*
X173409Y268519D01*
X173319Y268463D01*
X173312Y268456D01*
X173284Y268435D01*
X173242Y268401D01*
X173194Y268352D01*
X173145Y268290D01*
X173090Y268214D01*
X173041Y268123D01*
X172999Y268019D01*
X172993Y268006D01*
Y267992D01*
X172986Y267964D01*
X172979Y267936D01*
X172972Y267894D01*
X172958Y267846D01*
X172951Y267797D01*
X172944Y267735D01*
X172930Y267666D01*
X172923Y267582D01*
X172916Y267499D01*
X172909Y267402D01*
Y267298D01*
X172902Y267187D01*
Y267069D01*
Y264816D01*
X171675D01*
Y269455D01*
X172805D01*
Y268817D01*
X172812Y268824D01*
X172833Y268851D01*
X172868Y268886D01*
X172916Y268935D01*
X172972Y268990D01*
X173041Y269053D01*
X173124Y269122D01*
X173214Y269191D01*
X173312Y269261D01*
X173423Y269323D01*
X173540Y269385D01*
X173665Y269441D01*
X173804Y269489D01*
X173943Y269524D01*
X174095Y269552D01*
X174248Y269559D01*
X174324D01*
X174359Y269552D01*
X174407D01*
X174511Y269538D01*
X174629Y269510D01*
X174761Y269482D01*
X174893Y269434D01*
X175017Y269371D01*
X175024D01*
X175031Y269365D01*
X175073Y269337D01*
X175135Y269295D01*
X175212Y269233D01*
X175295Y269156D01*
X175385Y269060D01*
X175475Y268948D01*
X175558Y268817D01*
X175565Y268824D01*
X175572Y268831D01*
X175586Y268851D01*
X175614Y268879D01*
X175676Y268942D01*
X175752Y269025D01*
X175856Y269115D01*
X175967Y269212D01*
X176085Y269295D01*
X176217Y269371D01*
X176224D01*
X176231Y269378D01*
X176252Y269392D01*
X176279Y269399D01*
X176349Y269434D01*
X176446Y269469D01*
X176557Y269496D01*
X176688Y269531D01*
X176827Y269552D01*
X176973Y269559D01*
X177056D01*
X177105Y269552D01*
D02*
G37*
G36*
X208780D02*
X208822Y269545D01*
X208926Y269531D01*
X209050Y269503D01*
X209189Y269462D01*
X209335Y269399D01*
X209480Y269323D01*
X209099Y268255D01*
X209085Y268262D01*
X209044Y268290D01*
X208988Y268318D01*
X208912Y268359D01*
X208822Y268394D01*
X208724Y268428D01*
X208627Y268449D01*
X208523Y268456D01*
X208482D01*
X208433Y268449D01*
X208371Y268435D01*
X208302Y268421D01*
X208232Y268394D01*
X208156Y268359D01*
X208087Y268311D01*
X208080Y268304D01*
X208059Y268283D01*
X208024Y268248D01*
X207983Y268193D01*
X207941Y268123D01*
X207892Y268033D01*
X207844Y267929D01*
X207802Y267797D01*
Y267791D01*
X207795Y267777D01*
Y267756D01*
X207788Y267721D01*
X207782Y267680D01*
X207775Y267617D01*
X207761Y267548D01*
X207754Y267465D01*
X207747Y267367D01*
X207733Y267257D01*
X207726Y267132D01*
X207719Y266986D01*
X207712Y266827D01*
Y266653D01*
X207705Y266459D01*
Y266244D01*
Y264816D01*
X206478D01*
Y269455D01*
X207615D01*
Y268789D01*
X207622Y268796D01*
X207629Y268810D01*
X207643Y268831D01*
X207664Y268865D01*
X207719Y268948D01*
X207788Y269046D01*
X207872Y269150D01*
X207955Y269247D01*
X208045Y269337D01*
X208093Y269378D01*
X208135Y269406D01*
X208149Y269413D01*
X208177Y269427D01*
X208225Y269455D01*
X208288Y269482D01*
X208371Y269510D01*
X208461Y269538D01*
X208558Y269552D01*
X208669Y269559D01*
X208738D01*
X208780Y269552D01*
D02*
G37*
G36*
X194849Y264816D02*
X193622D01*
Y271216D01*
X194849D01*
Y264816D01*
D02*
G37*
G36*
X151358Y271209D02*
X151441D01*
X151628Y271202D01*
X151816Y271188D01*
X151996Y271168D01*
X152072Y271161D01*
X152148Y271147D01*
X152162D01*
X152183Y271140D01*
X152211Y271133D01*
X152280Y271119D01*
X152370Y271091D01*
X152474Y271056D01*
X152585Y271008D01*
X152703Y270952D01*
X152814Y270883D01*
X152821D01*
X152828Y270876D01*
X152863Y270849D01*
X152918Y270800D01*
X152987Y270744D01*
X153064Y270661D01*
X153147Y270571D01*
X153230Y270467D01*
X153306Y270349D01*
Y270342D01*
X153313Y270335D01*
X153327Y270315D01*
X153341Y270294D01*
X153369Y270224D01*
X153410Y270134D01*
X153445Y270023D01*
X153480Y269892D01*
X153501Y269753D01*
X153507Y269600D01*
Y269593D01*
Y269580D01*
Y269559D01*
X153501Y269524D01*
Y269482D01*
X153494Y269441D01*
X153480Y269330D01*
X153445Y269198D01*
X153404Y269060D01*
X153348Y268921D01*
X153265Y268775D01*
Y268768D01*
X153251Y268761D01*
X153237Y268741D01*
X153223Y268713D01*
X153168Y268650D01*
X153091Y268567D01*
X152994Y268477D01*
X152883Y268380D01*
X152752Y268290D01*
X152606Y268214D01*
X152613D01*
X152634Y268207D01*
X152662Y268193D01*
X152703Y268179D01*
X152752Y268158D01*
X152807Y268137D01*
X152939Y268075D01*
X153078Y267999D01*
X153230Y267894D01*
X153376Y267777D01*
X153501Y267631D01*
X153507Y267624D01*
X153514Y267610D01*
X153528Y267589D01*
X153549Y267562D01*
X153577Y267520D01*
X153605Y267472D01*
X153632Y267416D01*
X153660Y267361D01*
X153715Y267215D01*
X153771Y267055D01*
X153806Y266868D01*
X153820Y266771D01*
Y266667D01*
Y266660D01*
Y266646D01*
Y266626D01*
Y266591D01*
X153813Y266556D01*
X153806Y266508D01*
X153792Y266397D01*
X153771Y266265D01*
X153729Y266126D01*
X153681Y265974D01*
X153611Y265814D01*
Y265807D01*
X153605Y265793D01*
X153591Y265773D01*
X153577Y265745D01*
X153528Y265669D01*
X153466Y265578D01*
X153390Y265474D01*
X153293Y265364D01*
X153182Y265253D01*
X153057Y265156D01*
X153050D01*
X153043Y265149D01*
X153022Y265135D01*
X152994Y265114D01*
X152960Y265100D01*
X152918Y265079D01*
X152821Y265031D01*
X152696Y264975D01*
X152544Y264927D01*
X152377Y264885D01*
X152190Y264857D01*
X152155D01*
X152121Y264850D01*
X152079D01*
X152024Y264844D01*
X151954D01*
X151878Y264837D01*
X151781D01*
X151670Y264830D01*
X151545D01*
X151399Y264823D01*
X151060D01*
X150859Y264816D01*
X148459D01*
Y271216D01*
X151275D01*
X151358Y271209D01*
D02*
G37*
G36*
X203420Y269552D02*
X203496Y269545D01*
X203579Y269538D01*
X203683Y269524D01*
X203794Y269503D01*
X203912Y269475D01*
X204044Y269434D01*
X204176Y269392D01*
X204307Y269337D01*
X204446Y269268D01*
X204578Y269191D01*
X204710Y269101D01*
X204834Y268990D01*
X204952Y268872D01*
X204959Y268865D01*
X204980Y268838D01*
X205008Y268803D01*
X205042Y268747D01*
X205091Y268671D01*
X205140Y268581D01*
X205195Y268477D01*
X205250Y268359D01*
X205306Y268220D01*
X205354Y268061D01*
X205403Y267894D01*
X205445Y267707D01*
X205479Y267499D01*
X205507Y267277D01*
X205528Y267042D01*
Y266785D01*
X202456D01*
Y266778D01*
Y266764D01*
Y266730D01*
X202463Y266695D01*
X202470Y266646D01*
X202477Y266591D01*
X202498Y266473D01*
X202532Y266334D01*
X202581Y266189D01*
X202650Y266050D01*
X202747Y265925D01*
X202754D01*
X202761Y265911D01*
X202796Y265877D01*
X202858Y265828D01*
X202941Y265780D01*
X203045Y265724D01*
X203170Y265676D01*
X203309Y265641D01*
X203385Y265634D01*
X203461Y265627D01*
X203510D01*
X203559Y265634D01*
X203628Y265648D01*
X203704Y265662D01*
X203780Y265689D01*
X203864Y265731D01*
X203940Y265780D01*
X203947Y265786D01*
X203975Y265807D01*
X204009Y265849D01*
X204051Y265904D01*
X204106Y265974D01*
X204155Y266064D01*
X204203Y266168D01*
X204245Y266293D01*
X205466Y266085D01*
Y266078D01*
X205452Y266057D01*
X205438Y266022D01*
X205424Y265974D01*
X205396Y265918D01*
X205361Y265856D01*
X205327Y265780D01*
X205285Y265703D01*
X205181Y265537D01*
X205049Y265371D01*
X204897Y265204D01*
X204807Y265128D01*
X204717Y265058D01*
X204710Y265051D01*
X204696Y265045D01*
X204668Y265024D01*
X204626Y265003D01*
X204578Y264975D01*
X204515Y264947D01*
X204446Y264920D01*
X204370Y264885D01*
X204280Y264850D01*
X204183Y264823D01*
X204079Y264795D01*
X203968Y264767D01*
X203850Y264746D01*
X203718Y264726D01*
X203586Y264719D01*
X203448Y264712D01*
X203392D01*
X203330Y264719D01*
X203246Y264726D01*
X203149Y264732D01*
X203032Y264753D01*
X202907Y264774D01*
X202768Y264809D01*
X202622Y264850D01*
X202477Y264906D01*
X202331Y264968D01*
X202179Y265045D01*
X202040Y265135D01*
X201901Y265239D01*
X201777Y265357D01*
X201659Y265495D01*
X201652Y265502D01*
X201638Y265523D01*
X201617Y265558D01*
X201589Y265613D01*
X201555Y265676D01*
X201513Y265745D01*
X201471Y265835D01*
X201430Y265932D01*
X201388Y266043D01*
X201346Y266168D01*
X201305Y266300D01*
X201270Y266438D01*
X201243Y266591D01*
X201222Y266750D01*
X201208Y266924D01*
X201201Y267097D01*
Y267111D01*
Y267146D01*
X201208Y267208D01*
Y267284D01*
X201222Y267381D01*
X201236Y267499D01*
X201250Y267617D01*
X201277Y267756D01*
X201305Y267894D01*
X201346Y268040D01*
X201395Y268193D01*
X201451Y268345D01*
X201520Y268491D01*
X201603Y268636D01*
X201693Y268775D01*
X201797Y268900D01*
X201804Y268907D01*
X201825Y268928D01*
X201860Y268962D01*
X201908Y269004D01*
X201964Y269053D01*
X202040Y269108D01*
X202123Y269170D01*
X202213Y269233D01*
X202317Y269288D01*
X202435Y269351D01*
X202560Y269406D01*
X202699Y269455D01*
X202837Y269496D01*
X202990Y269531D01*
X203156Y269552D01*
X203323Y269559D01*
X203371D01*
X203420Y269552D01*
D02*
G37*
G36*
X190363D02*
X190432Y269545D01*
X190522Y269538D01*
X190626Y269524D01*
X190744Y269503D01*
X190869Y269475D01*
X191001Y269434D01*
X191139Y269392D01*
X191285Y269337D01*
X191424Y269268D01*
X191569Y269191D01*
X191715Y269101D01*
X191847Y268990D01*
X191978Y268872D01*
X191985Y268865D01*
X192006Y268838D01*
X192041Y268803D01*
X192082Y268747D01*
X192138Y268678D01*
X192193Y268602D01*
X192249Y268505D01*
X192318Y268401D01*
X192381Y268283D01*
X192436Y268151D01*
X192498Y268006D01*
X192547Y267853D01*
X192589Y267693D01*
X192623Y267520D01*
X192644Y267340D01*
X192651Y267146D01*
Y267132D01*
Y267097D01*
X192644Y267042D01*
Y266972D01*
X192630Y266882D01*
X192616Y266778D01*
X192596Y266660D01*
X192568Y266535D01*
X192533Y266397D01*
X192485Y266258D01*
X192429Y266112D01*
X192367Y265967D01*
X192283Y265814D01*
X192193Y265676D01*
X192089Y265530D01*
X191971Y265398D01*
X191965Y265391D01*
X191944Y265371D01*
X191902Y265336D01*
X191847Y265294D01*
X191784Y265239D01*
X191701Y265183D01*
X191611Y265121D01*
X191507Y265058D01*
X191389Y264989D01*
X191257Y264927D01*
X191119Y264871D01*
X190966Y264823D01*
X190807Y264774D01*
X190633Y264739D01*
X190453Y264719D01*
X190266Y264712D01*
X190203D01*
X190155Y264719D01*
X190099D01*
X190037Y264726D01*
X189961Y264732D01*
X189877Y264746D01*
X189690Y264781D01*
X189482Y264830D01*
X189267Y264899D01*
X189052Y264996D01*
X189045Y265003D01*
X189025Y265010D01*
X188997Y265024D01*
X188955Y265051D01*
X188907Y265079D01*
X188858Y265121D01*
X188726Y265211D01*
X188588Y265329D01*
X188442Y265474D01*
X188303Y265648D01*
X188179Y265842D01*
Y265849D01*
X188165Y265870D01*
X188151Y265898D01*
X188130Y265939D01*
X188109Y265994D01*
X188081Y266057D01*
X188061Y266133D01*
X188033Y266216D01*
X188005Y266313D01*
X187977Y266418D01*
X187950Y266528D01*
X187929Y266646D01*
X187908Y266771D01*
X187894Y266910D01*
X187887Y267048D01*
X187880Y267194D01*
Y267201D01*
Y267222D01*
Y267257D01*
X187887Y267298D01*
Y267354D01*
X187894Y267423D01*
X187908Y267492D01*
X187915Y267575D01*
X187957Y267756D01*
X188005Y267957D01*
X188081Y268165D01*
X188123Y268276D01*
X188179Y268380D01*
X188185Y268387D01*
X188192Y268408D01*
X188213Y268435D01*
X188234Y268477D01*
X188262Y268526D01*
X188303Y268581D01*
X188393Y268706D01*
X188518Y268845D01*
X188664Y268990D01*
X188830Y269129D01*
X189025Y269254D01*
X189031Y269261D01*
X189052Y269268D01*
X189080Y269281D01*
X189121Y269302D01*
X189177Y269323D01*
X189239Y269351D01*
X189309Y269378D01*
X189385Y269406D01*
X189475Y269434D01*
X189572Y269462D01*
X189780Y269510D01*
X190009Y269545D01*
X190134Y269559D01*
X190307D01*
X190363Y269552D01*
D02*
G37*
G36*
X168513D02*
X168582Y269545D01*
X168673Y269538D01*
X168777Y269524D01*
X168895Y269503D01*
X169019Y269475D01*
X169151Y269434D01*
X169290Y269392D01*
X169435Y269337D01*
X169574Y269268D01*
X169720Y269191D01*
X169865Y269101D01*
X169997Y268990D01*
X170129Y268872D01*
X170136Y268865D01*
X170156Y268838D01*
X170191Y268803D01*
X170233Y268747D01*
X170288Y268678D01*
X170344Y268602D01*
X170399Y268505D01*
X170469Y268401D01*
X170531Y268283D01*
X170586Y268151D01*
X170649Y268006D01*
X170697Y267853D01*
X170739Y267693D01*
X170774Y267520D01*
X170795Y267340D01*
X170801Y267146D01*
Y267132D01*
Y267097D01*
X170795Y267042D01*
Y266972D01*
X170781Y266882D01*
X170767Y266778D01*
X170746Y266660D01*
X170718Y266535D01*
X170683Y266397D01*
X170635Y266258D01*
X170579Y266112D01*
X170517Y265967D01*
X170434Y265814D01*
X170344Y265676D01*
X170240Y265530D01*
X170122Y265398D01*
X170115Y265391D01*
X170094Y265371D01*
X170053Y265336D01*
X169997Y265294D01*
X169935Y265239D01*
X169851Y265183D01*
X169761Y265121D01*
X169657Y265058D01*
X169539Y264989D01*
X169408Y264927D01*
X169269Y264871D01*
X169116Y264823D01*
X168957Y264774D01*
X168783Y264739D01*
X168603Y264719D01*
X168416Y264712D01*
X168354D01*
X168305Y264719D01*
X168250D01*
X168187Y264726D01*
X168111Y264732D01*
X168028Y264746D01*
X167840Y264781D01*
X167633Y264830D01*
X167418Y264899D01*
X167202Y264996D01*
X167196Y265003D01*
X167175Y265010D01*
X167147Y265024D01*
X167106Y265051D01*
X167057Y265079D01*
X167008Y265121D01*
X166877Y265211D01*
X166738Y265329D01*
X166592Y265474D01*
X166454Y265648D01*
X166329Y265842D01*
Y265849D01*
X166315Y265870D01*
X166301Y265898D01*
X166280Y265939D01*
X166259Y265994D01*
X166232Y266057D01*
X166211Y266133D01*
X166183Y266216D01*
X166155Y266313D01*
X166128Y266418D01*
X166100Y266528D01*
X166079Y266646D01*
X166058Y266771D01*
X166045Y266910D01*
X166038Y267048D01*
X166031Y267194D01*
Y267201D01*
Y267222D01*
Y267257D01*
X166038Y267298D01*
Y267354D01*
X166045Y267423D01*
X166058Y267492D01*
X166065Y267575D01*
X166107Y267756D01*
X166155Y267957D01*
X166232Y268165D01*
X166273Y268276D01*
X166329Y268380D01*
X166336Y268387D01*
X166343Y268408D01*
X166364Y268435D01*
X166384Y268477D01*
X166412Y268526D01*
X166454Y268581D01*
X166544Y268706D01*
X166669Y268845D01*
X166814Y268990D01*
X166981Y269129D01*
X167175Y269254D01*
X167182Y269261D01*
X167202Y269268D01*
X167230Y269281D01*
X167272Y269302D01*
X167327Y269323D01*
X167390Y269351D01*
X167459Y269378D01*
X167535Y269406D01*
X167626Y269434D01*
X167723Y269462D01*
X167931Y269510D01*
X168160Y269545D01*
X168284Y269559D01*
X168458D01*
X168513Y269552D01*
D02*
G37*
G36*
X164623Y269455D02*
X165462D01*
Y268477D01*
X164623D01*
Y266605D01*
Y266598D01*
Y266577D01*
Y266549D01*
Y266515D01*
Y266473D01*
Y266418D01*
Y266307D01*
X164630Y266196D01*
Y266085D01*
X164637Y266036D01*
Y265994D01*
X164644Y265960D01*
Y265939D01*
Y265932D01*
X164651Y265925D01*
X164665Y265884D01*
X164699Y265835D01*
X164748Y265786D01*
X164755D01*
X164762Y265780D01*
X164783Y265773D01*
X164810Y265759D01*
X164873Y265738D01*
X164956Y265731D01*
X164991D01*
X165025Y265738D01*
X165081Y265745D01*
X165150Y265759D01*
X165240Y265780D01*
X165337Y265807D01*
X165448Y265842D01*
X165559Y264892D01*
X165552D01*
X165538Y264885D01*
X165518Y264878D01*
X165483Y264864D01*
X165441Y264850D01*
X165393Y264837D01*
X165337Y264816D01*
X165275Y264802D01*
X165136Y264767D01*
X164970Y264739D01*
X164783Y264719D01*
X164588Y264712D01*
X164533D01*
X164471Y264719D01*
X164387Y264726D01*
X164297Y264739D01*
X164200Y264760D01*
X164096Y264788D01*
X163992Y264823D01*
X163978Y264830D01*
X163950Y264844D01*
X163902Y264864D01*
X163846Y264899D01*
X163784Y264940D01*
X163715Y264989D01*
X163659Y265045D01*
X163604Y265107D01*
X163597Y265114D01*
X163583Y265142D01*
X163562Y265183D01*
X163534Y265232D01*
X163507Y265301D01*
X163479Y265384D01*
X163451Y265481D01*
X163430Y265585D01*
Y265599D01*
X163423Y265627D01*
Y265655D01*
X163417Y265689D01*
Y265731D01*
Y265773D01*
X163410Y265828D01*
Y265891D01*
X163403Y265960D01*
Y266043D01*
X163396Y266133D01*
Y266230D01*
Y266334D01*
Y266452D01*
Y268477D01*
X162834D01*
Y269455D01*
X163396D01*
Y270377D01*
X164623Y271098D01*
Y269455D01*
D02*
G37*
G36*
X161648D02*
X162487D01*
Y268477D01*
X161648D01*
Y266605D01*
Y266598D01*
Y266577D01*
Y266549D01*
Y266515D01*
Y266473D01*
Y266418D01*
Y266307D01*
X161655Y266196D01*
Y266085D01*
X161662Y266036D01*
Y265994D01*
X161669Y265960D01*
Y265939D01*
Y265932D01*
X161676Y265925D01*
X161690Y265884D01*
X161724Y265835D01*
X161773Y265786D01*
X161780D01*
X161787Y265780D01*
X161808Y265773D01*
X161835Y265759D01*
X161898Y265738D01*
X161981Y265731D01*
X162016D01*
X162050Y265738D01*
X162106Y265745D01*
X162175Y265759D01*
X162265Y265780D01*
X162362Y265807D01*
X162473Y265842D01*
X162584Y264892D01*
X162577D01*
X162564Y264885D01*
X162543Y264878D01*
X162508Y264864D01*
X162467Y264850D01*
X162418Y264837D01*
X162362Y264816D01*
X162300Y264802D01*
X162161Y264767D01*
X161995Y264739D01*
X161808Y264719D01*
X161614Y264712D01*
X161558D01*
X161496Y264719D01*
X161413Y264726D01*
X161322Y264739D01*
X161225Y264760D01*
X161121Y264788D01*
X161017Y264823D01*
X161003Y264830D01*
X160976Y264844D01*
X160927Y264864D01*
X160872Y264899D01*
X160809Y264940D01*
X160740Y264989D01*
X160684Y265045D01*
X160629Y265107D01*
X160622Y265114D01*
X160608Y265142D01*
X160587Y265183D01*
X160560Y265232D01*
X160532Y265301D01*
X160504Y265384D01*
X160476Y265481D01*
X160456Y265585D01*
Y265599D01*
X160449Y265627D01*
Y265655D01*
X160442Y265689D01*
Y265731D01*
Y265773D01*
X160435Y265828D01*
Y265891D01*
X160428Y265960D01*
Y266043D01*
X160421Y266133D01*
Y266230D01*
Y266334D01*
Y266452D01*
Y268477D01*
X159859D01*
Y269455D01*
X160421D01*
Y270377D01*
X161648Y271098D01*
Y269455D01*
D02*
G37*
G36*
X157106Y269552D02*
X157176Y269545D01*
X157266Y269538D01*
X157370Y269524D01*
X157488Y269503D01*
X157612Y269475D01*
X157744Y269434D01*
X157883Y269392D01*
X158029Y269337D01*
X158167Y269268D01*
X158313Y269191D01*
X158458Y269101D01*
X158590Y268990D01*
X158722Y268872D01*
X158729Y268865D01*
X158750Y268838D01*
X158784Y268803D01*
X158826Y268747D01*
X158882Y268678D01*
X158937Y268602D01*
X158992Y268505D01*
X159062Y268401D01*
X159124Y268283D01*
X159180Y268151D01*
X159242Y268006D01*
X159291Y267853D01*
X159332Y267693D01*
X159367Y267520D01*
X159388Y267340D01*
X159395Y267146D01*
Y267132D01*
Y267097D01*
X159388Y267042D01*
Y266972D01*
X159374Y266882D01*
X159360Y266778D01*
X159339Y266660D01*
X159311Y266535D01*
X159277Y266397D01*
X159228Y266258D01*
X159173Y266112D01*
X159110Y265967D01*
X159027Y265814D01*
X158937Y265676D01*
X158833Y265530D01*
X158715Y265398D01*
X158708Y265391D01*
X158687Y265371D01*
X158646Y265336D01*
X158590Y265294D01*
X158528Y265239D01*
X158445Y265183D01*
X158355Y265121D01*
X158251Y265058D01*
X158133Y264989D01*
X158001Y264927D01*
X157862Y264871D01*
X157710Y264823D01*
X157550Y264774D01*
X157377Y264739D01*
X157197Y264719D01*
X157009Y264712D01*
X156947D01*
X156898Y264719D01*
X156843D01*
X156780Y264726D01*
X156704Y264732D01*
X156621Y264746D01*
X156434Y264781D01*
X156226Y264830D01*
X156011Y264899D01*
X155796Y264996D01*
X155789Y265003D01*
X155768Y265010D01*
X155740Y265024D01*
X155699Y265051D01*
X155650Y265079D01*
X155602Y265121D01*
X155470Y265211D01*
X155331Y265329D01*
X155186Y265474D01*
X155047Y265648D01*
X154922Y265842D01*
Y265849D01*
X154908Y265870D01*
X154894Y265898D01*
X154874Y265939D01*
X154853Y265994D01*
X154825Y266057D01*
X154804Y266133D01*
X154776Y266216D01*
X154749Y266313D01*
X154721Y266418D01*
X154693Y266528D01*
X154672Y266646D01*
X154652Y266771D01*
X154638Y266910D01*
X154631Y267048D01*
X154624Y267194D01*
Y267201D01*
Y267222D01*
Y267257D01*
X154631Y267298D01*
Y267354D01*
X154638Y267423D01*
X154652Y267492D01*
X154659Y267575D01*
X154700Y267756D01*
X154749Y267957D01*
X154825Y268165D01*
X154867Y268276D01*
X154922Y268380D01*
X154929Y268387D01*
X154936Y268408D01*
X154957Y268435D01*
X154978Y268477D01*
X155005Y268526D01*
X155047Y268581D01*
X155137Y268706D01*
X155262Y268845D01*
X155407Y268990D01*
X155574Y269129D01*
X155768Y269254D01*
X155775Y269261D01*
X155796Y269268D01*
X155823Y269281D01*
X155865Y269302D01*
X155921Y269323D01*
X155983Y269351D01*
X156052Y269378D01*
X156129Y269406D01*
X156219Y269434D01*
X156316Y269462D01*
X156524Y269510D01*
X156753Y269545D01*
X156877Y269559D01*
X157051D01*
X157106Y269552D01*
D02*
G37*
%LPC*%
G36*
X198101Y268623D02*
X198060D01*
X198032Y268616D01*
X197949Y268602D01*
X197845Y268581D01*
X197734Y268539D01*
X197609Y268477D01*
X197547Y268435D01*
X197491Y268387D01*
X197429Y268331D01*
X197373Y268269D01*
Y268262D01*
X197359Y268255D01*
X197346Y268234D01*
X197325Y268207D01*
X197304Y268165D01*
X197283Y268123D01*
X197255Y268068D01*
X197228Y268012D01*
X197200Y267943D01*
X197172Y267867D01*
X197151Y267777D01*
X197131Y267687D01*
X197110Y267589D01*
X197096Y267479D01*
X197089Y267361D01*
X197082Y267236D01*
Y267229D01*
Y267201D01*
Y267166D01*
Y267118D01*
X197089Y267055D01*
X197096Y266986D01*
Y266903D01*
X197110Y266827D01*
X197131Y266646D01*
X197165Y266473D01*
X197214Y266300D01*
X197248Y266230D01*
X197283Y266161D01*
X197290Y266154D01*
X197297Y266140D01*
X197318Y266119D01*
X197339Y266085D01*
X197408Y266008D01*
X197498Y265925D01*
X197616Y265835D01*
X197755Y265759D01*
X197838Y265724D01*
X197921Y265703D01*
X198011Y265689D01*
X198108Y265683D01*
X198150D01*
X198178Y265689D01*
X198261Y265703D01*
X198358Y265724D01*
X198469Y265766D01*
X198594Y265835D01*
X198649Y265870D01*
X198711Y265918D01*
X198774Y265974D01*
X198829Y266036D01*
X198836Y266043D01*
X198843Y266050D01*
X198857Y266078D01*
X198878Y266105D01*
X198899Y266140D01*
X198927Y266189D01*
X198954Y266244D01*
X198982Y266307D01*
X199010Y266376D01*
X199030Y266459D01*
X199058Y266549D01*
X199079Y266646D01*
X199100Y266750D01*
X199114Y266861D01*
X199128Y266986D01*
Y267118D01*
Y267125D01*
Y267153D01*
Y267194D01*
X199121Y267250D01*
Y267312D01*
X199114Y267388D01*
X199107Y267472D01*
X199093Y267562D01*
X199058Y267749D01*
X199003Y267943D01*
X198933Y268116D01*
X198885Y268200D01*
X198836Y268269D01*
Y268276D01*
X198822Y268283D01*
X198788Y268324D01*
X198725Y268380D01*
X198635Y268449D01*
X198531Y268512D01*
X198406Y268567D01*
X198261Y268609D01*
X198185Y268616D01*
X198101Y268623D01*
D02*
G37*
G36*
X150935Y270148D02*
X149749D01*
Y268671D01*
X150997D01*
X151157Y268678D01*
X151309D01*
X151379Y268685D01*
X151441D01*
X151497Y268692D01*
X151552D01*
X151594Y268699D01*
X151656Y268713D01*
X151725Y268734D01*
X151809Y268761D01*
X151899Y268803D01*
X151982Y268851D01*
X152058Y268914D01*
X152065Y268921D01*
X152086Y268948D01*
X152121Y268990D01*
X152155Y269053D01*
X152190Y269122D01*
X152225Y269212D01*
X152246Y269309D01*
X152252Y269420D01*
Y269434D01*
Y269469D01*
X152246Y269524D01*
X152232Y269587D01*
X152211Y269663D01*
X152183Y269746D01*
X152142Y269822D01*
X152086Y269898D01*
X152079Y269905D01*
X152058Y269926D01*
X152017Y269961D01*
X151961Y269996D01*
X151892Y270037D01*
X151809Y270072D01*
X151712Y270100D01*
X151594Y270120D01*
X151573D01*
X151552Y270127D01*
X151490D01*
X151441Y270134D01*
X151323D01*
X151240Y270141D01*
X151053D01*
X150935Y270148D01*
D02*
G37*
G36*
X150949Y267603D02*
X149749D01*
Y265898D01*
X151171D01*
X151316Y265904D01*
X151469D01*
X151615Y265911D01*
X151677Y265918D01*
X151739D01*
X151788Y265925D01*
X151829Y265932D01*
X151843D01*
X151878Y265946D01*
X151933Y265960D01*
X151996Y265988D01*
X152072Y266022D01*
X152148Y266064D01*
X152232Y266119D01*
X152301Y266189D01*
X152308Y266196D01*
X152329Y266223D01*
X152363Y266272D01*
X152398Y266334D01*
X152426Y266411D01*
X152460Y266501D01*
X152481Y266612D01*
X152488Y266730D01*
Y266743D01*
Y266778D01*
X152481Y266834D01*
X152467Y266896D01*
X152453Y266972D01*
X152426Y267055D01*
X152391Y267139D01*
X152343Y267215D01*
X152336Y267222D01*
X152315Y267250D01*
X152287Y267284D01*
X152239Y267326D01*
X152183Y267374D01*
X152114Y267423D01*
X152030Y267465D01*
X151940Y267506D01*
X151926Y267513D01*
X151913D01*
X151885Y267520D01*
X151850Y267527D01*
X151809Y267534D01*
X151760Y267548D01*
X151698Y267555D01*
X151628Y267562D01*
X151545Y267575D01*
X151448Y267582D01*
X151344Y267589D01*
X151226Y267596D01*
X151094D01*
X150949Y267603D01*
D02*
G37*
G36*
X203392Y268623D02*
X203351D01*
X203323Y268616D01*
X203253Y268609D01*
X203156Y268588D01*
X203052Y268553D01*
X202941Y268498D01*
X202837Y268421D01*
X202782Y268380D01*
X202733Y268324D01*
X202719Y268311D01*
X202692Y268269D01*
X202650Y268207D01*
X202602Y268116D01*
X202553Y268006D01*
X202512Y267867D01*
X202484Y267714D01*
X202477Y267534D01*
X204307D01*
Y267541D01*
Y267555D01*
Y267582D01*
X204300Y267624D01*
X204294Y267666D01*
X204287Y267714D01*
X204266Y267832D01*
X204231Y267964D01*
X204183Y268096D01*
X204120Y268227D01*
X204030Y268338D01*
X204016Y268352D01*
X203981Y268380D01*
X203926Y268428D01*
X203850Y268484D01*
X203760Y268533D01*
X203649Y268581D01*
X203524Y268609D01*
X203392Y268623D01*
D02*
G37*
G36*
X190259Y268560D02*
X190210D01*
X190182Y268553D01*
X190141Y268546D01*
X190092Y268539D01*
X189981Y268512D01*
X189850Y268470D01*
X189718Y268408D01*
X189648Y268366D01*
X189586Y268318D01*
X189517Y268255D01*
X189454Y268193D01*
Y268186D01*
X189440Y268179D01*
X189427Y268151D01*
X189406Y268123D01*
X189378Y268089D01*
X189350Y268040D01*
X189323Y267985D01*
X189295Y267922D01*
X189267Y267853D01*
X189239Y267770D01*
X189212Y267687D01*
X189184Y267589D01*
X189163Y267485D01*
X189149Y267374D01*
X189142Y267257D01*
X189135Y267132D01*
Y267125D01*
Y267104D01*
Y267062D01*
X189142Y267021D01*
Y266958D01*
X189149Y266896D01*
X189163Y266820D01*
X189177Y266737D01*
X189212Y266570D01*
X189267Y266390D01*
X189350Y266223D01*
X189399Y266140D01*
X189454Y266071D01*
X189461Y266064D01*
X189468Y266057D01*
X189489Y266036D01*
X189510Y266015D01*
X189586Y265960D01*
X189676Y265891D01*
X189794Y265821D01*
X189933Y265766D01*
X190085Y265724D01*
X190169Y265717D01*
X190259Y265710D01*
X190307D01*
X190342Y265717D01*
X190377Y265724D01*
X190425Y265731D01*
X190536Y265759D01*
X190668Y265800D01*
X190800Y265863D01*
X190869Y265904D01*
X190938Y265953D01*
X191001Y266008D01*
X191063Y266071D01*
X191070Y266078D01*
X191077Y266092D01*
X191091Y266112D01*
X191112Y266140D01*
X191139Y266175D01*
X191167Y266223D01*
X191195Y266279D01*
X191229Y266341D01*
X191257Y266411D01*
X191285Y266494D01*
X191313Y266584D01*
X191341Y266674D01*
X191361Y266778D01*
X191375Y266889D01*
X191389Y267014D01*
Y267139D01*
Y267146D01*
Y267166D01*
Y267208D01*
X191382Y267250D01*
Y267312D01*
X191375Y267374D01*
X191361Y267451D01*
X191347Y267527D01*
X191313Y267700D01*
X191250Y267874D01*
X191174Y268040D01*
X191119Y268123D01*
X191063Y268193D01*
X191056Y268200D01*
X191049Y268207D01*
X191028Y268227D01*
X191008Y268248D01*
X190938Y268311D01*
X190841Y268380D01*
X190723Y268442D01*
X190585Y268505D01*
X190432Y268546D01*
X190349Y268553D01*
X190259Y268560D01*
D02*
G37*
G36*
X168409D02*
X168361D01*
X168333Y268553D01*
X168291Y268546D01*
X168243Y268539D01*
X168132Y268512D01*
X168000Y268470D01*
X167868Y268408D01*
X167799Y268366D01*
X167736Y268318D01*
X167667Y268255D01*
X167605Y268193D01*
Y268186D01*
X167591Y268179D01*
X167577Y268151D01*
X167556Y268123D01*
X167528Y268089D01*
X167501Y268040D01*
X167473Y267985D01*
X167445Y267922D01*
X167418Y267853D01*
X167390Y267770D01*
X167362Y267687D01*
X167334Y267589D01*
X167313Y267485D01*
X167300Y267374D01*
X167293Y267257D01*
X167286Y267132D01*
Y267125D01*
Y267104D01*
Y267062D01*
X167293Y267021D01*
Y266958D01*
X167300Y266896D01*
X167313Y266820D01*
X167327Y266737D01*
X167362Y266570D01*
X167418Y266390D01*
X167501Y266223D01*
X167549Y266140D01*
X167605Y266071D01*
X167612Y266064D01*
X167619Y266057D01*
X167639Y266036D01*
X167660Y266015D01*
X167736Y265960D01*
X167827Y265891D01*
X167945Y265821D01*
X168083Y265766D01*
X168236Y265724D01*
X168319Y265717D01*
X168409Y265710D01*
X168458D01*
X168492Y265717D01*
X168527Y265724D01*
X168575Y265731D01*
X168687Y265759D01*
X168818Y265800D01*
X168950Y265863D01*
X169019Y265904D01*
X169089Y265953D01*
X169151Y266008D01*
X169214Y266071D01*
X169220Y266078D01*
X169227Y266092D01*
X169241Y266112D01*
X169262Y266140D01*
X169290Y266175D01*
X169317Y266223D01*
X169345Y266279D01*
X169380Y266341D01*
X169408Y266411D01*
X169435Y266494D01*
X169463Y266584D01*
X169491Y266674D01*
X169512Y266778D01*
X169526Y266889D01*
X169539Y267014D01*
Y267139D01*
Y267146D01*
Y267166D01*
Y267208D01*
X169532Y267250D01*
Y267312D01*
X169526Y267374D01*
X169512Y267451D01*
X169498Y267527D01*
X169463Y267700D01*
X169401Y267874D01*
X169324Y268040D01*
X169269Y268123D01*
X169214Y268193D01*
X169207Y268200D01*
X169200Y268207D01*
X169179Y268227D01*
X169158Y268248D01*
X169089Y268311D01*
X168992Y268380D01*
X168874Y268442D01*
X168735Y268505D01*
X168582Y268546D01*
X168499Y268553D01*
X168409Y268560D01*
D02*
G37*
G36*
X157002D02*
X156954D01*
X156926Y268553D01*
X156884Y268546D01*
X156836Y268539D01*
X156725Y268512D01*
X156593Y268470D01*
X156461Y268408D01*
X156392Y268366D01*
X156330Y268318D01*
X156260Y268255D01*
X156198Y268193D01*
Y268186D01*
X156184Y268179D01*
X156170Y268151D01*
X156149Y268123D01*
X156122Y268089D01*
X156094Y268040D01*
X156066Y267985D01*
X156039Y267922D01*
X156011Y267853D01*
X155983Y267770D01*
X155955Y267687D01*
X155927Y267589D01*
X155907Y267485D01*
X155893Y267374D01*
X155886Y267257D01*
X155879Y267132D01*
Y267125D01*
Y267104D01*
Y267062D01*
X155886Y267021D01*
Y266958D01*
X155893Y266896D01*
X155907Y266820D01*
X155921Y266737D01*
X155955Y266570D01*
X156011Y266390D01*
X156094Y266223D01*
X156143Y266140D01*
X156198Y266071D01*
X156205Y266064D01*
X156212Y266057D01*
X156233Y266036D01*
X156253Y266015D01*
X156330Y265960D01*
X156420Y265891D01*
X156538Y265821D01*
X156676Y265766D01*
X156829Y265724D01*
X156912Y265717D01*
X157002Y265710D01*
X157051D01*
X157086Y265717D01*
X157120Y265724D01*
X157169Y265731D01*
X157280Y265759D01*
X157411Y265800D01*
X157543Y265863D01*
X157612Y265904D01*
X157682Y265953D01*
X157744Y266008D01*
X157807Y266071D01*
X157814Y266078D01*
X157821Y266092D01*
X157834Y266112D01*
X157855Y266140D01*
X157883Y266175D01*
X157911Y266223D01*
X157938Y266279D01*
X157973Y266341D01*
X158001Y266411D01*
X158029Y266494D01*
X158056Y266584D01*
X158084Y266674D01*
X158105Y266778D01*
X158119Y266889D01*
X158133Y267014D01*
Y267139D01*
Y267146D01*
Y267166D01*
Y267208D01*
X158126Y267250D01*
Y267312D01*
X158119Y267374D01*
X158105Y267451D01*
X158091Y267527D01*
X158056Y267700D01*
X157994Y267874D01*
X157918Y268040D01*
X157862Y268123D01*
X157807Y268193D01*
X157800Y268200D01*
X157793Y268207D01*
X157772Y268227D01*
X157751Y268248D01*
X157682Y268311D01*
X157585Y268380D01*
X157467Y268442D01*
X157328Y268505D01*
X157176Y268546D01*
X157093Y268553D01*
X157002Y268560D01*
D02*
G37*
%LPD*%
D62*
X15000Y533400D02*
D03*
Y508000D02*
D03*
Y482600D02*
D03*
X15240Y608330D02*
D03*
Y633730D02*
D03*
Y659130D02*
D03*
D63*
X15000Y457200D02*
D03*
X15240Y582930D02*
D03*
D64*
X-46990Y477520D02*
D03*
X-57150Y674370D02*
D03*
X-619760Y335280D02*
D03*
D65*
X-635000Y682320D02*
D03*
Y414020D02*
D03*
D66*
X-43180Y336540D02*
D03*
X-167640D02*
D03*
X-293370D02*
D03*
X-417830D02*
D03*
X-543720D02*
D03*
X-143510Y797570D02*
D03*
X-267970D02*
D03*
X-392430D02*
D03*
X-17780D02*
D03*
X-516890Y797290D02*
D03*
D67*
X-68580Y358140D02*
D03*
X-43180D02*
D03*
X-17780D02*
D03*
X7620D02*
D03*
X-193040D02*
D03*
X-167640D02*
D03*
X-142240D02*
D03*
X-116840D02*
D03*
X-242570D02*
D03*
X-267970D02*
D03*
X-293370D02*
D03*
X-318770D02*
D03*
X-443230D02*
D03*
X-417830D02*
D03*
X-392430D02*
D03*
X-367030D02*
D03*
X-492920D02*
D03*
X-518320D02*
D03*
X-543720D02*
D03*
X-569120D02*
D03*
X-194310Y775970D02*
D03*
X-168910D02*
D03*
X-143510D02*
D03*
X-118110D02*
D03*
X-242570D02*
D03*
X-267970D02*
D03*
X-293370D02*
D03*
X-318770D02*
D03*
X-443230D02*
D03*
X-417830D02*
D03*
X-392430D02*
D03*
X-367030D02*
D03*
X7620D02*
D03*
X-17780D02*
D03*
X-43180D02*
D03*
X-68580D02*
D03*
X-491490Y775690D02*
D03*
X-516890D02*
D03*
X-542290D02*
D03*
X-567690D02*
D03*
D86*
X-332740Y492760D02*
D03*
X-303530Y510540D02*
D03*
X-274320Y554990D02*
D03*
Y601980D02*
D03*
X-265430Y640080D02*
D03*
X-289560Y628650D02*
D03*
X-222015Y640338D02*
D03*
M02*
