G04*
G04 #@! TF.GenerationSoftware,Altium Limited,Altium Designer,23.3.1 (30)*
G04*
G04 Layer_Physical_Order=1*
G04 Layer_Color=255*
%FSLAX44Y44*%
%MOMM*%
G71*
G04*
G04 #@! TF.SameCoordinates,3FD81306-C8D3-46B1-8163-1FBD848DCD1C*
G04*
G04*
G04 #@! TF.FilePolarity,Positive*
G04*
G01*
G75*
%ADD11C,0.2000*%
%ADD14C,0.1778*%
%ADD19R,0.7000X0.9000*%
%ADD20R,1.2300X2.0200*%
%ADD21R,0.9000X0.7000*%
%ADD22R,1.0000X1.3000*%
%ADD23R,1.6000X2.1000*%
%ADD24R,1.9000X1.8000*%
%ADD25R,1.3500X0.4000*%
%ADD26R,1.0500X0.6000*%
%ADD27R,3.5000X0.7000*%
%ADD28C,1.0000*%
%ADD32R,1.4000X1.8000*%
%ADD33R,1.2000X1.2000*%
%ADD34R,2.1500X2.1500*%
G04:AMPARAMS|DCode=35|XSize=0.8mm|YSize=0.35mm|CornerRadius=0.1313mm|HoleSize=0mm|Usage=FLASHONLY|Rotation=0.000|XOffset=0mm|YOffset=0mm|HoleType=Round|Shape=RoundedRectangle|*
%AMROUNDEDRECTD35*
21,1,0.8000,0.0875,0,0,0.0*
21,1,0.5375,0.3500,0,0,0.0*
1,1,0.2625,0.2688,-0.0438*
1,1,0.2625,-0.2688,-0.0438*
1,1,0.2625,-0.2688,0.0438*
1,1,0.2625,0.2688,0.0438*
%
%ADD35ROUNDEDRECTD35*%
G04:AMPARAMS|DCode=36|XSize=0.8mm|YSize=0.35mm|CornerRadius=0.1313mm|HoleSize=0mm|Usage=FLASHONLY|Rotation=270.000|XOffset=0mm|YOffset=0mm|HoleType=Round|Shape=RoundedRectangle|*
%AMROUNDEDRECTD36*
21,1,0.8000,0.0875,0,0,270.0*
21,1,0.5375,0.3500,0,0,270.0*
1,1,0.2625,-0.0438,-0.2688*
1,1,0.2625,-0.0438,0.2688*
1,1,0.2625,0.0438,0.2688*
1,1,0.2625,0.0438,-0.2688*
%
%ADD36ROUNDEDRECTD36*%
%ADD37R,2.2000X4.8000*%
G04:AMPARAMS|DCode=38|XSize=1.04mm|YSize=0.44mm|CornerRadius=0.154mm|HoleSize=0mm|Usage=FLASHONLY|Rotation=90.000|XOffset=0mm|YOffset=0mm|HoleType=Round|Shape=RoundedRectangle|*
%AMROUNDEDRECTD38*
21,1,1.0400,0.1320,0,0,90.0*
21,1,0.7320,0.4400,0,0,90.0*
1,1,0.3080,0.0660,0.3660*
1,1,0.3080,0.0660,-0.3660*
1,1,0.3080,-0.0660,-0.3660*
1,1,0.3080,-0.0660,0.3660*
%
%ADD38ROUNDEDRECTD38*%
%ADD39R,0.8500X0.9500*%
%ADD52R,3.2004X3.2004*%
%ADD68R,0.8750X0.2000*%
%ADD69R,0.2000X0.8750*%
%ADD70R,4.3000X3.4000*%
%ADD71C,0.3000*%
%ADD72C,0.1847*%
%ADD73C,0.3500*%
%ADD74C,0.5000*%
%ADD75C,0.4000*%
%ADD76C,0.7000*%
%ADD77C,1.6500*%
%ADD78R,1.6500X1.6500*%
%ADD79C,4.0000*%
%ADD80C,1.5000*%
%ADD81C,1.4000*%
%ADD82C,2.0000*%
%ADD83C,0.8000*%
G36*
X-435610Y441960D02*
X-500380D01*
X-501650Y443230D01*
Y514350D01*
X-435610D01*
Y441960D01*
D02*
G37*
G36*
Y525360D02*
X-514350D01*
Y587350D01*
X-435610D01*
Y525360D01*
D02*
G37*
G36*
X190377Y334802D02*
X190418Y334795D01*
X190522Y334781D01*
X190647Y334753D01*
X190786Y334712D01*
X190931Y334650D01*
X191077Y334573D01*
X190696Y333505D01*
X190682Y333512D01*
X190640Y333540D01*
X190585Y333568D01*
X190508Y333609D01*
X190418Y333644D01*
X190321Y333679D01*
X190224Y333699D01*
X190120Y333707D01*
X190079D01*
X190030Y333699D01*
X189967Y333686D01*
X189898Y333672D01*
X189829Y333644D01*
X189753Y333609D01*
X189683Y333561D01*
X189676Y333554D01*
X189655Y333533D01*
X189621Y333498D01*
X189579Y333443D01*
X189538Y333374D01*
X189489Y333284D01*
X189440Y333180D01*
X189399Y333048D01*
Y333041D01*
X189392Y333027D01*
Y333006D01*
X189385Y332971D01*
X189378Y332930D01*
X189371Y332867D01*
X189357Y332798D01*
X189350Y332715D01*
X189343Y332618D01*
X189330Y332507D01*
X189323Y332382D01*
X189316Y332236D01*
X189309Y332077D01*
Y331904D01*
X189302Y331709D01*
Y331494D01*
Y330066D01*
X188074D01*
Y334705D01*
X189212D01*
Y334039D01*
X189219Y334046D01*
X189226Y334060D01*
X189239Y334081D01*
X189260Y334116D01*
X189316Y334199D01*
X189385Y334296D01*
X189468Y334400D01*
X189552Y334497D01*
X189642Y334587D01*
X189690Y334629D01*
X189732Y334656D01*
X189746Y334663D01*
X189773Y334677D01*
X189822Y334705D01*
X189884Y334733D01*
X189967Y334761D01*
X190058Y334788D01*
X190155Y334802D01*
X190266Y334809D01*
X190335D01*
X190377Y334802D01*
D02*
G37*
G36*
X162439D02*
X162501D01*
X162570Y334788D01*
X162647Y334774D01*
X162737Y334753D01*
X162841Y334733D01*
X162945Y334698D01*
X163056Y334656D01*
X163167Y334601D01*
X163285Y334539D01*
X163403Y334469D01*
X163514Y334379D01*
X163624Y334282D01*
X163735Y334171D01*
X163742Y334164D01*
X163763Y334143D01*
X163791Y334109D01*
X163826Y334053D01*
X163867Y333991D01*
X163916Y333914D01*
X163964Y333817D01*
X164020Y333713D01*
X164075Y333596D01*
X164124Y333464D01*
X164172Y333318D01*
X164214Y333159D01*
X164249Y332992D01*
X164283Y332812D01*
X164297Y332618D01*
X164304Y332410D01*
Y332396D01*
Y332361D01*
X164297Y332299D01*
Y332216D01*
X164290Y332118D01*
X164276Y332008D01*
X164256Y331883D01*
X164235Y331744D01*
X164200Y331605D01*
X164165Y331453D01*
X164117Y331307D01*
X164061Y331155D01*
X163999Y331009D01*
X163923Y330863D01*
X163832Y330725D01*
X163735Y330600D01*
X163729Y330593D01*
X163708Y330572D01*
X163680Y330545D01*
X163631Y330503D01*
X163576Y330454D01*
X163514Y330399D01*
X163437Y330343D01*
X163347Y330281D01*
X163257Y330219D01*
X163146Y330163D01*
X163035Y330108D01*
X162910Y330059D01*
X162785Y330024D01*
X162647Y329990D01*
X162508Y329969D01*
X162355Y329962D01*
X162293D01*
X162217Y329969D01*
X162120Y329983D01*
X162016Y329997D01*
X161898Y330024D01*
X161773Y330066D01*
X161655Y330115D01*
X161641Y330121D01*
X161600Y330142D01*
X161537Y330184D01*
X161454Y330239D01*
X161357Y330309D01*
X161246Y330399D01*
X161128Y330510D01*
X161003Y330635D01*
Y328305D01*
X159776D01*
Y334705D01*
X160920D01*
Y334025D01*
X160934Y334032D01*
X160962Y334074D01*
X161010Y334143D01*
X161080Y334220D01*
X161163Y334310D01*
X161267Y334407D01*
X161385Y334504D01*
X161516Y334587D01*
X161523D01*
X161537Y334594D01*
X161558Y334608D01*
X161586Y334622D01*
X161621Y334636D01*
X161662Y334656D01*
X161766Y334698D01*
X161891Y334740D01*
X162037Y334774D01*
X162196Y334802D01*
X162362Y334809D01*
X162397D01*
X162439Y334802D01*
D02*
G37*
G36*
X180731Y330239D02*
X180433Y329435D01*
Y329428D01*
X180426Y329414D01*
X180419Y329393D01*
X180405Y329366D01*
X180378Y329296D01*
X180336Y329206D01*
X180287Y329109D01*
X180239Y329005D01*
X180183Y328908D01*
X180128Y328818D01*
X180121Y328811D01*
X180100Y328783D01*
X180072Y328742D01*
X180031Y328693D01*
X179982Y328638D01*
X179927Y328582D01*
X179858Y328527D01*
X179788Y328471D01*
X179781Y328464D01*
X179753Y328450D01*
X179712Y328423D01*
X179663Y328395D01*
X179594Y328360D01*
X179511Y328326D01*
X179421Y328291D01*
X179324Y328263D01*
X179310D01*
X179275Y328249D01*
X179219Y328242D01*
X179143Y328228D01*
X179053Y328215D01*
X178949Y328201D01*
X178831Y328194D01*
X178699Y328187D01*
X178637D01*
X178568Y328194D01*
X178484D01*
X178374Y328208D01*
X178263Y328222D01*
X178138Y328235D01*
X178013Y328263D01*
X177902Y329227D01*
X177916D01*
X177950Y329220D01*
X178006Y329206D01*
X178075Y329199D01*
X178152Y329185D01*
X178242Y329171D01*
X178415Y329165D01*
X178457D01*
X178484Y329171D01*
X178561Y329178D01*
X178658Y329199D01*
X178755Y329227D01*
X178866Y329276D01*
X178963Y329338D01*
X179046Y329421D01*
X179053Y329435D01*
X179081Y329470D01*
X179116Y329518D01*
X179164Y329594D01*
X179213Y329685D01*
X179268Y329796D01*
X179317Y329913D01*
X179358Y330052D01*
X177604Y334705D01*
X178908D01*
X180010Y331404D01*
X181099Y334705D01*
X182368D01*
X180731Y330239D01*
D02*
G37*
G36*
X175225Y334802D02*
X175309D01*
X175392Y334795D01*
X175489Y334781D01*
X175690Y334761D01*
X175891Y334726D01*
X176085Y334677D01*
X176168Y334643D01*
X176252Y334608D01*
X176259D01*
X176273Y334601D01*
X176293Y334587D01*
X176314Y334573D01*
X176390Y334532D01*
X176474Y334476D01*
X176571Y334400D01*
X176661Y334317D01*
X176751Y334220D01*
X176820Y334116D01*
X176827Y334102D01*
X176834Y334081D01*
X176848Y334060D01*
X176862Y334025D01*
X176876Y333977D01*
X176890Y333928D01*
X176903Y333866D01*
X176917Y333797D01*
X176931Y333720D01*
X176945Y333630D01*
X176959Y333526D01*
X176973Y333415D01*
X176980Y333297D01*
X176987Y333166D01*
Y333020D01*
X176966Y331585D01*
Y331578D01*
Y331557D01*
Y331529D01*
Y331488D01*
Y331432D01*
Y331377D01*
X176973Y331245D01*
X176980Y331099D01*
X176987Y330947D01*
X177001Y330808D01*
X177014Y330739D01*
X177021Y330683D01*
Y330669D01*
X177035Y330635D01*
X177049Y330572D01*
X177070Y330496D01*
X177098Y330406D01*
X177139Y330302D01*
X177188Y330184D01*
X177243Y330066D01*
X176030D01*
Y330073D01*
X176023Y330087D01*
X176009Y330115D01*
X175995Y330156D01*
X175981Y330205D01*
X175954Y330267D01*
X175933Y330343D01*
X175905Y330427D01*
Y330434D01*
X175898Y330447D01*
X175891Y330489D01*
X175877Y330537D01*
X175870Y330558D01*
X175863Y330572D01*
X175849Y330558D01*
X175808Y330524D01*
X175746Y330468D01*
X175662Y330399D01*
X175565Y330330D01*
X175447Y330253D01*
X175322Y330177D01*
X175191Y330115D01*
X175184D01*
X175177Y330108D01*
X175156Y330101D01*
X175128Y330094D01*
X175059Y330066D01*
X174962Y330038D01*
X174851Y330010D01*
X174719Y329983D01*
X174580Y329969D01*
X174428Y329962D01*
X174359D01*
X174310Y329969D01*
X174248Y329976D01*
X174178Y329983D01*
X174102Y329997D01*
X174019Y330010D01*
X173839Y330052D01*
X173651Y330121D01*
X173554Y330170D01*
X173464Y330219D01*
X173381Y330274D01*
X173298Y330343D01*
X173291Y330350D01*
X173277Y330364D01*
X173263Y330385D01*
X173235Y330413D01*
X173201Y330454D01*
X173166Y330496D01*
X173131Y330551D01*
X173097Y330614D01*
X173055Y330683D01*
X173020Y330752D01*
X172951Y330926D01*
X172923Y331016D01*
X172909Y331113D01*
X172896Y331217D01*
X172889Y331328D01*
Y331335D01*
Y331349D01*
Y331370D01*
Y331397D01*
X172896Y331467D01*
X172909Y331564D01*
X172937Y331675D01*
X172965Y331793D01*
X173013Y331911D01*
X173076Y332028D01*
Y332035D01*
X173083Y332042D01*
X173111Y332077D01*
X173152Y332132D01*
X173214Y332202D01*
X173284Y332278D01*
X173374Y332354D01*
X173478Y332431D01*
X173596Y332493D01*
X173603D01*
X173610Y332500D01*
X173631Y332507D01*
X173658Y332521D01*
X173693Y332535D01*
X173735Y332555D01*
X173790Y332569D01*
X173846Y332590D01*
X173908Y332611D01*
X173984Y332639D01*
X174067Y332659D01*
X174151Y332687D01*
X174248Y332708D01*
X174352Y332736D01*
X174456Y332763D01*
X174574Y332784D01*
X174580D01*
X174608Y332791D01*
X174657Y332798D01*
X174712Y332812D01*
X174782Y332826D01*
X174865Y332840D01*
X174955Y332860D01*
X175052Y332881D01*
X175246Y332930D01*
X175447Y332978D01*
X175537Y333006D01*
X175628Y333034D01*
X175704Y333062D01*
X175773Y333089D01*
Y333207D01*
Y333214D01*
Y333221D01*
Y333270D01*
X175766Y333332D01*
X175752Y333408D01*
X175732Y333492D01*
X175697Y333575D01*
X175655Y333658D01*
X175593Y333720D01*
X175586Y333727D01*
X175558Y333741D01*
X175510Y333769D01*
X175447Y333797D01*
X175357Y333824D01*
X175239Y333852D01*
X175170Y333859D01*
X175101Y333866D01*
X175017Y333873D01*
X174872D01*
X174809Y333866D01*
X174740Y333859D01*
X174657Y333838D01*
X174567Y333817D01*
X174483Y333783D01*
X174407Y333741D01*
X174400Y333734D01*
X174379Y333713D01*
X174345Y333686D01*
X174303Y333637D01*
X174255Y333575D01*
X174206Y333492D01*
X174158Y333394D01*
X174116Y333284D01*
X173013Y333485D01*
Y333492D01*
X173020Y333512D01*
X173034Y333547D01*
X173048Y333596D01*
X173069Y333651D01*
X173097Y333713D01*
X173166Y333859D01*
X173256Y334025D01*
X173367Y334192D01*
X173499Y334344D01*
X173575Y334421D01*
X173658Y334483D01*
X173665Y334490D01*
X173679Y334497D01*
X173707Y334511D01*
X173741Y334532D01*
X173790Y334559D01*
X173852Y334587D01*
X173922Y334615D01*
X173998Y334650D01*
X174095Y334677D01*
X174192Y334705D01*
X174303Y334733D01*
X174428Y334761D01*
X174560Y334781D01*
X174705Y334795D01*
X174858Y334809D01*
X175163D01*
X175225Y334802D01*
D02*
G37*
G36*
X169089Y331148D02*
X172299D01*
Y330066D01*
X167799D01*
Y336411D01*
X169089D01*
Y331148D01*
D02*
G37*
G36*
X153535Y335384D02*
X151649D01*
Y330066D01*
X150359D01*
Y335384D01*
X148459D01*
Y336466D01*
X153535D01*
Y335384D01*
D02*
G37*
G36*
X185016Y334802D02*
X185093Y334795D01*
X185176Y334788D01*
X185280Y334774D01*
X185391Y334753D01*
X185509Y334726D01*
X185641Y334684D01*
X185772Y334643D01*
X185904Y334587D01*
X186043Y334518D01*
X186175Y334441D01*
X186306Y334351D01*
X186431Y334240D01*
X186549Y334123D01*
X186556Y334116D01*
X186577Y334088D01*
X186604Y334053D01*
X186639Y333998D01*
X186688Y333921D01*
X186736Y333831D01*
X186792Y333727D01*
X186847Y333609D01*
X186903Y333471D01*
X186951Y333311D01*
X187000Y333145D01*
X187041Y332958D01*
X187076Y332750D01*
X187104Y332528D01*
X187125Y332292D01*
Y332035D01*
X184053D01*
Y332028D01*
Y332015D01*
Y331980D01*
X184060Y331945D01*
X184067Y331897D01*
X184073Y331841D01*
X184094Y331723D01*
X184129Y331585D01*
X184177Y331439D01*
X184247Y331300D01*
X184344Y331175D01*
X184351D01*
X184358Y331162D01*
X184392Y331127D01*
X184455Y331078D01*
X184538Y331030D01*
X184642Y330974D01*
X184767Y330926D01*
X184905Y330891D01*
X184982Y330884D01*
X185058Y330877D01*
X185107D01*
X185155Y330884D01*
X185224Y330898D01*
X185301Y330912D01*
X185377Y330940D01*
X185460Y330981D01*
X185537Y331030D01*
X185543Y331037D01*
X185571Y331058D01*
X185606Y331099D01*
X185648Y331155D01*
X185703Y331224D01*
X185751Y331314D01*
X185800Y331418D01*
X185842Y331543D01*
X187062Y331335D01*
Y331328D01*
X187048Y331307D01*
X187034Y331273D01*
X187020Y331224D01*
X186993Y331169D01*
X186958Y331106D01*
X186923Y331030D01*
X186882Y330954D01*
X186778Y330787D01*
X186646Y330621D01*
X186493Y330454D01*
X186403Y330378D01*
X186313Y330309D01*
X186306Y330302D01*
X186292Y330295D01*
X186265Y330274D01*
X186223Y330253D01*
X186175Y330225D01*
X186112Y330198D01*
X186043Y330170D01*
X185966Y330135D01*
X185876Y330101D01*
X185779Y330073D01*
X185675Y330045D01*
X185564Y330018D01*
X185446Y329997D01*
X185315Y329976D01*
X185183Y329969D01*
X185044Y329962D01*
X184989D01*
X184926Y329969D01*
X184843Y329976D01*
X184746Y329983D01*
X184628Y330004D01*
X184503Y330024D01*
X184365Y330059D01*
X184219Y330101D01*
X184073Y330156D01*
X183928Y330219D01*
X183775Y330295D01*
X183637Y330385D01*
X183498Y330489D01*
X183373Y330607D01*
X183255Y330746D01*
X183248Y330752D01*
X183234Y330773D01*
X183214Y330808D01*
X183186Y330863D01*
X183151Y330926D01*
X183110Y330995D01*
X183068Y331085D01*
X183026Y331182D01*
X182985Y331293D01*
X182943Y331418D01*
X182902Y331550D01*
X182867Y331689D01*
X182839Y331841D01*
X182818Y332001D01*
X182805Y332174D01*
X182798Y332347D01*
Y332361D01*
Y332396D01*
X182805Y332458D01*
Y332535D01*
X182818Y332632D01*
X182832Y332750D01*
X182846Y332867D01*
X182874Y333006D01*
X182902Y333145D01*
X182943Y333290D01*
X182992Y333443D01*
X183047Y333596D01*
X183116Y333741D01*
X183200Y333887D01*
X183290Y334025D01*
X183394Y334150D01*
X183401Y334157D01*
X183422Y334178D01*
X183456Y334213D01*
X183505Y334254D01*
X183560Y334303D01*
X183637Y334358D01*
X183720Y334421D01*
X183810Y334483D01*
X183914Y334539D01*
X184032Y334601D01*
X184157Y334656D01*
X184295Y334705D01*
X184434Y334747D01*
X184587Y334781D01*
X184753Y334802D01*
X184919Y334809D01*
X184968D01*
X185016Y334802D01*
D02*
G37*
G36*
X156559D02*
X156628Y334795D01*
X156718Y334788D01*
X156822Y334774D01*
X156940Y334753D01*
X157065Y334726D01*
X157197Y334684D01*
X157335Y334643D01*
X157481Y334587D01*
X157619Y334518D01*
X157765Y334441D01*
X157911Y334351D01*
X158042Y334240D01*
X158174Y334123D01*
X158181Y334116D01*
X158202Y334088D01*
X158237Y334053D01*
X158278Y333998D01*
X158334Y333928D01*
X158389Y333852D01*
X158445Y333755D01*
X158514Y333651D01*
X158576Y333533D01*
X158632Y333401D01*
X158694Y333256D01*
X158743Y333103D01*
X158784Y332944D01*
X158819Y332770D01*
X158840Y332590D01*
X158847Y332396D01*
Y332382D01*
Y332347D01*
X158840Y332292D01*
Y332223D01*
X158826Y332132D01*
X158812Y332028D01*
X158791Y331911D01*
X158764Y331786D01*
X158729Y331647D01*
X158680Y331508D01*
X158625Y331363D01*
X158562Y331217D01*
X158479Y331064D01*
X158389Y330926D01*
X158285Y330780D01*
X158167Y330648D01*
X158160Y330642D01*
X158139Y330621D01*
X158098Y330586D01*
X158042Y330545D01*
X157980Y330489D01*
X157897Y330434D01*
X157807Y330371D01*
X157703Y330309D01*
X157585Y330239D01*
X157453Y330177D01*
X157314Y330121D01*
X157162Y330073D01*
X157002Y330024D01*
X156829Y329990D01*
X156649Y329969D01*
X156461Y329962D01*
X156399D01*
X156350Y329969D01*
X156295D01*
X156233Y329976D01*
X156156Y329983D01*
X156073Y329997D01*
X155886Y330031D01*
X155678Y330080D01*
X155463Y330149D01*
X155248Y330246D01*
X155241Y330253D01*
X155220Y330260D01*
X155192Y330274D01*
X155151Y330302D01*
X155102Y330330D01*
X155054Y330371D01*
X154922Y330461D01*
X154783Y330579D01*
X154638Y330725D01*
X154499Y330898D01*
X154374Y331092D01*
Y331099D01*
X154360Y331120D01*
X154347Y331148D01*
X154326Y331189D01*
X154305Y331245D01*
X154277Y331307D01*
X154256Y331384D01*
X154229Y331467D01*
X154201Y331564D01*
X154173Y331668D01*
X154145Y331779D01*
X154125Y331897D01*
X154104Y332021D01*
X154090Y332160D01*
X154083Y332299D01*
X154076Y332444D01*
Y332451D01*
Y332472D01*
Y332507D01*
X154083Y332548D01*
Y332604D01*
X154090Y332673D01*
X154104Y332743D01*
X154111Y332826D01*
X154152Y333006D01*
X154201Y333207D01*
X154277Y333415D01*
X154319Y333526D01*
X154374Y333630D01*
X154381Y333637D01*
X154388Y333658D01*
X154409Y333686D01*
X154430Y333727D01*
X154458Y333776D01*
X154499Y333831D01*
X154589Y333956D01*
X154714Y334095D01*
X154860Y334240D01*
X155026Y334379D01*
X155220Y334504D01*
X155227Y334511D01*
X155248Y334518D01*
X155276Y334532D01*
X155317Y334552D01*
X155373Y334573D01*
X155435Y334601D01*
X155505Y334629D01*
X155581Y334656D01*
X155671Y334684D01*
X155768Y334712D01*
X155976Y334761D01*
X156205Y334795D01*
X156330Y334809D01*
X156503D01*
X156559Y334802D01*
D02*
G37*
%LPC*%
G36*
X-455630Y507660D02*
X-463630D01*
Y486660D01*
X-455630D01*
Y507660D01*
D02*
G37*
G36*
X-473630D02*
X-481630D01*
Y486660D01*
X-473630D01*
Y507660D01*
D02*
G37*
G36*
X-455630Y476660D02*
X-463630D01*
Y455660D01*
X-455630D01*
Y476660D01*
D02*
G37*
G36*
X-473630D02*
X-481630D01*
Y455660D01*
X-473630D01*
Y476660D01*
D02*
G37*
G36*
X-455630Y580660D02*
X-463630D01*
Y559660D01*
X-455630D01*
Y580660D01*
D02*
G37*
G36*
X-473630D02*
X-481630D01*
Y559660D01*
X-473630D01*
Y580660D01*
D02*
G37*
G36*
X-455630Y549660D02*
X-463630D01*
Y528660D01*
X-455630D01*
Y549660D01*
D02*
G37*
G36*
X-473630D02*
X-481630D01*
Y528660D01*
X-473630D01*
Y549660D01*
D02*
G37*
G36*
X162023Y333838D02*
X161981D01*
X161946Y333831D01*
X161912Y333824D01*
X161863Y333817D01*
X161759Y333797D01*
X161641Y333755D01*
X161516Y333693D01*
X161454Y333651D01*
X161392Y333602D01*
X161329Y333547D01*
X161274Y333485D01*
Y333478D01*
X161260Y333471D01*
X161246Y333450D01*
X161225Y333422D01*
X161204Y333381D01*
X161184Y333339D01*
X161156Y333284D01*
X161128Y333228D01*
X161100Y333159D01*
X161073Y333082D01*
X161052Y332999D01*
X161031Y332909D01*
X161010Y332805D01*
X160996Y332701D01*
X160989Y332583D01*
X160983Y332458D01*
Y332451D01*
Y332424D01*
Y332382D01*
X160989Y332333D01*
Y332264D01*
X160996Y332188D01*
X161010Y332112D01*
X161024Y332021D01*
X161059Y331834D01*
X161114Y331640D01*
X161191Y331460D01*
X161232Y331377D01*
X161288Y331300D01*
X161295Y331293D01*
X161301Y331286D01*
X161343Y331245D01*
X161413Y331182D01*
X161503Y331120D01*
X161614Y331051D01*
X161738Y330988D01*
X161891Y330947D01*
X161967Y330940D01*
X162050Y330933D01*
X162092D01*
X162120Y330940D01*
X162196Y330954D01*
X162300Y330974D01*
X162411Y331016D01*
X162529Y331078D01*
X162584Y331113D01*
X162647Y331162D01*
X162702Y331210D01*
X162758Y331273D01*
X162765Y331279D01*
X162772Y331286D01*
X162785Y331307D01*
X162806Y331335D01*
X162827Y331377D01*
X162848Y331418D01*
X162876Y331474D01*
X162903Y331543D01*
X162931Y331612D01*
X162959Y331696D01*
X162980Y331786D01*
X163000Y331890D01*
X163021Y332001D01*
X163035Y332126D01*
X163049Y332257D01*
Y332396D01*
Y332403D01*
Y332431D01*
Y332465D01*
X163042Y332514D01*
Y332576D01*
X163035Y332645D01*
X163021Y332722D01*
X163014Y332805D01*
X162980Y332978D01*
X162924Y333159D01*
X162848Y333332D01*
X162806Y333408D01*
X162751Y333478D01*
Y333485D01*
X162737Y333492D01*
X162695Y333533D01*
X162633Y333589D01*
X162550Y333658D01*
X162446Y333727D01*
X162321Y333783D01*
X162182Y333824D01*
X162106Y333831D01*
X162023Y333838D01*
D02*
G37*
G36*
X175773Y332292D02*
X175759Y332285D01*
X175725Y332278D01*
X175669Y332257D01*
X175586Y332236D01*
X175482Y332209D01*
X175350Y332174D01*
X175198Y332139D01*
X175017Y332098D01*
X175010D01*
X174997Y332091D01*
X174969D01*
X174934Y332077D01*
X174851Y332056D01*
X174747Y332035D01*
X174636Y332001D01*
X174525Y331966D01*
X174428Y331931D01*
X174386Y331911D01*
X174352Y331890D01*
X174345Y331883D01*
X174317Y331862D01*
X174275Y331820D01*
X174234Y331772D01*
X174192Y331709D01*
X174151Y331633D01*
X174123Y331550D01*
X174116Y331460D01*
Y331446D01*
Y331418D01*
X174123Y331370D01*
X174137Y331307D01*
X174165Y331238D01*
X174192Y331162D01*
X174241Y331092D01*
X174303Y331016D01*
X174310Y331009D01*
X174338Y330988D01*
X174379Y330954D01*
X174435Y330926D01*
X174511Y330891D01*
X174594Y330857D01*
X174692Y330836D01*
X174795Y330829D01*
X174809D01*
X174851Y330836D01*
X174913Y330843D01*
X174997Y330857D01*
X175094Y330884D01*
X175205Y330919D01*
X175315Y330974D01*
X175427Y331044D01*
X175433Y331051D01*
X175461Y331072D01*
X175503Y331106D01*
X175544Y331155D01*
X175600Y331217D01*
X175648Y331286D01*
X175690Y331363D01*
X175725Y331446D01*
Y331453D01*
X175732Y331481D01*
X175739Y331522D01*
X175752Y331578D01*
X175759Y331661D01*
X175766Y331765D01*
X175773Y331890D01*
Y332042D01*
Y332292D01*
D02*
G37*
G36*
X184989Y333873D02*
X184947D01*
X184919Y333866D01*
X184850Y333859D01*
X184753Y333838D01*
X184649Y333803D01*
X184538Y333748D01*
X184434Y333672D01*
X184379Y333630D01*
X184330Y333575D01*
X184316Y333561D01*
X184288Y333519D01*
X184247Y333457D01*
X184198Y333367D01*
X184150Y333256D01*
X184108Y333117D01*
X184080Y332965D01*
X184073Y332784D01*
X185904D01*
Y332791D01*
Y332805D01*
Y332833D01*
X185897Y332874D01*
X185890Y332916D01*
X185883Y332965D01*
X185863Y333082D01*
X185828Y333214D01*
X185779Y333346D01*
X185717Y333478D01*
X185627Y333589D01*
X185613Y333602D01*
X185578Y333630D01*
X185523Y333679D01*
X185446Y333734D01*
X185356Y333783D01*
X185245Y333831D01*
X185121Y333859D01*
X184989Y333873D01*
D02*
G37*
G36*
X156454Y333811D02*
X156406D01*
X156378Y333803D01*
X156337Y333797D01*
X156288Y333790D01*
X156177Y333762D01*
X156045Y333720D01*
X155914Y333658D01*
X155844Y333616D01*
X155782Y333568D01*
X155713Y333505D01*
X155650Y333443D01*
Y333436D01*
X155636Y333429D01*
X155622Y333401D01*
X155602Y333374D01*
X155574Y333339D01*
X155546Y333290D01*
X155518Y333235D01*
X155491Y333172D01*
X155463Y333103D01*
X155435Y333020D01*
X155407Y332937D01*
X155380Y332840D01*
X155359Y332736D01*
X155345Y332625D01*
X155338Y332507D01*
X155331Y332382D01*
Y332375D01*
Y332354D01*
Y332313D01*
X155338Y332271D01*
Y332209D01*
X155345Y332146D01*
X155359Y332070D01*
X155373Y331987D01*
X155407Y331820D01*
X155463Y331640D01*
X155546Y331474D01*
X155595Y331390D01*
X155650Y331321D01*
X155657Y331314D01*
X155664Y331307D01*
X155685Y331286D01*
X155706Y331266D01*
X155782Y331210D01*
X155872Y331141D01*
X155990Y331072D01*
X156129Y331016D01*
X156281Y330974D01*
X156364Y330967D01*
X156454Y330961D01*
X156503D01*
X156538Y330967D01*
X156572Y330974D01*
X156621Y330981D01*
X156732Y331009D01*
X156864Y331051D01*
X156995Y331113D01*
X157065Y331155D01*
X157134Y331203D01*
X157197Y331259D01*
X157259Y331321D01*
X157266Y331328D01*
X157273Y331342D01*
X157287Y331363D01*
X157307Y331390D01*
X157335Y331425D01*
X157363Y331474D01*
X157391Y331529D01*
X157425Y331591D01*
X157453Y331661D01*
X157481Y331744D01*
X157508Y331834D01*
X157536Y331924D01*
X157557Y332028D01*
X157571Y332139D01*
X157585Y332264D01*
Y332389D01*
Y332396D01*
Y332417D01*
Y332458D01*
X157578Y332500D01*
Y332562D01*
X157571Y332625D01*
X157557Y332701D01*
X157543Y332777D01*
X157508Y332951D01*
X157446Y333124D01*
X157370Y333290D01*
X157314Y333374D01*
X157259Y333443D01*
X157252Y333450D01*
X157245Y333457D01*
X157224Y333478D01*
X157203Y333498D01*
X157134Y333561D01*
X157037Y333630D01*
X156919Y333693D01*
X156780Y333755D01*
X156628Y333797D01*
X156545Y333803D01*
X156454Y333811D01*
D02*
G37*
%LPD*%
D11*
X-309880Y650240D02*
X-299720Y660400D01*
X-309880Y638865D02*
Y650240D01*
X-305816Y644144D02*
X-288940Y661020D01*
Y667370D02*
X-288290Y668020D01*
X-288940Y661020D02*
Y667370D01*
X-305816Y638865D02*
Y644144D01*
X-313888Y661390D02*
X-313690D01*
X-316388Y656432D02*
Y658890D01*
X-321310Y651510D02*
Y651510D01*
X-316388Y658890D02*
X-313888Y661390D01*
X-321310Y651510D02*
X-316388Y656432D01*
X-435942Y703580D02*
X-434952Y702590D01*
X-449300Y703580D02*
X-435942D01*
X-250430Y608640D02*
X-247930Y611140D01*
X-396240Y646430D02*
Y661390D01*
X-411760Y702590D02*
X-407670Y698500D01*
X-334264Y639032D02*
Y682244D01*
X-407670Y698500D02*
X-350520D01*
X-334264Y682244D01*
X-419100Y702590D02*
X-411760D01*
X-232130Y596900D02*
X-217450D01*
X-268478Y602488D02*
X-259375Y593386D01*
X-247722D01*
X-241220Y608625D02*
X-240049Y609797D01*
Y637934D02*
X-238877Y639105D01*
X-240049Y609797D02*
Y637934D01*
X-247722Y608625D02*
X-241220D01*
X-238877Y639105D02*
X-231922D01*
X-225765D01*
X-231922Y608625D02*
X-225888D01*
X-218575Y611015D02*
X-217170Y612420D01*
X-223498Y611015D02*
X-218575D01*
X-225888Y608625D02*
X-223498Y611015D01*
X-225765Y639105D02*
X-220980Y643890D01*
Y651510D01*
X-256540Y622694D02*
X-255368Y623866D01*
X-247976D01*
X-256540Y614680D02*
Y622694D01*
X-347980Y474980D02*
Y490220D01*
Y461010D02*
Y474980D01*
Y490220D02*
Y500380D01*
X-355600Y508000D02*
Y543052D01*
Y508000D02*
X-347980Y500380D01*
X-252469Y533821D02*
Y547631D01*
X-240380Y559720D01*
X-258380Y527910D02*
X-252469Y533821D01*
X-240380Y572260D02*
X-234380Y578260D01*
X-272640Y534260D02*
X-258380D01*
Y527910D02*
Y534260D01*
X-240380Y559720D02*
Y565910D01*
X-234380Y571910D01*
X-293370Y514350D02*
X-222036D01*
X-217170Y519216D02*
Y526717D01*
X-222036Y514350D02*
X-217170Y519216D01*
X-297688Y518668D02*
Y570175D01*
Y518668D02*
X-293370Y514350D01*
X-298450Y509270D02*
X-219710D01*
X-302260Y513080D02*
X-298450Y509270D01*
X-302260Y513080D02*
Y556260D01*
X-219710Y509270D02*
X-210124Y518856D01*
X-322580Y524054D02*
X-303986Y505460D01*
X-212090D02*
X-201930Y515620D01*
X-303986Y505460D02*
X-212090D01*
X-218138Y526717D02*
X-217170Y527685D01*
X-326390Y520700D02*
X-307340Y501650D01*
X-208280D02*
X-194310Y515620D01*
X-307340Y501650D02*
X-208280D01*
X-334010Y510540D02*
Y548640D01*
Y510540D02*
X-316230Y492760D01*
X-304678Y493908D02*
X-303530Y492760D01*
X-307218Y493908D02*
X-304678D01*
X-330200Y516890D02*
X-307218Y493908D01*
X-276860Y480060D02*
X-267040D01*
X-332460Y474980D02*
X-281940D01*
X-276860Y480060D01*
X-267040Y654390D02*
X-262890Y650240D01*
X-267040Y654390D02*
Y664210D01*
X-262890Y640080D02*
Y650240D01*
Y640080D02*
X-250430D01*
X-247930Y642580D02*
Y642620D01*
X-250430Y640080D02*
X-247930Y642580D01*
X-267848Y638932D02*
X-264038D01*
X-283972Y622808D02*
X-267848Y638932D01*
X-264038D02*
X-262890Y640080D01*
X-287020Y548262D02*
Y567690D01*
X-281940Y572770D02*
Y591820D01*
X-287020Y567690D02*
X-281940Y572770D01*
X-287020Y548262D02*
X-285848Y547090D01*
X-275590D01*
Y537210D02*
X-272640Y534260D01*
X-275590Y537210D02*
Y547090D01*
X-258790Y565440D02*
Y577850D01*
X-261340Y562890D02*
X-258790Y565440D01*
X-275590Y562890D02*
X-261340D01*
X-273050Y577850D02*
X-258790D01*
X-276860Y581660D02*
X-273050Y577850D01*
X-234380Y534260D02*
Y549210D01*
X-217170Y566420D01*
Y596620D01*
X-289759Y602488D02*
X-268478D01*
X-254960Y608640D02*
X-250430D01*
X-257048Y606552D02*
X-254960Y608640D01*
X-289592Y606552D02*
X-257048D01*
X-289759Y610616D02*
X-260604D01*
X-256540Y614680D01*
X-298196Y610616D02*
X-289759D01*
X-265332Y614680D02*
X-264160Y615852D01*
Y627380D01*
X-289759Y614680D02*
X-265332D01*
X-210124Y518856D02*
Y573466D01*
X-203200Y600710D02*
X-189230Y614680D01*
X-203200Y580390D02*
Y600710D01*
X-210124Y573466D02*
X-203200Y580390D01*
X-194310Y515620D02*
Y589599D01*
X-201930Y515620D02*
Y570230D01*
X-326390Y520700D02*
Y551180D01*
X-322580Y524054D02*
Y552450D01*
X-284480Y594360D02*
X-281940Y591820D01*
X-289759Y594360D02*
X-284480D01*
X-350520Y561536D02*
Y570008D01*
Y556260D02*
Y561536D01*
X-357944D02*
X-350520D01*
X-358140Y561340D02*
X-357944Y561536D01*
X-350520Y651510D02*
Y661390D01*
Y639032D02*
Y651510D01*
X-330200Y516890D02*
Y549454D01*
X-336550Y490220D02*
X-332460D01*
X-337820Y491490D02*
X-336550Y490220D01*
X-342392Y561646D02*
Y570175D01*
Y561646D02*
X-330200Y549454D01*
X-338328Y563118D02*
X-326390Y551180D01*
X-334264Y564134D02*
X-322580Y552450D01*
X-338328Y563118D02*
Y570175D01*
X-334264Y564134D02*
Y570175D01*
X-180340Y675640D02*
X-168910D01*
X-350520Y580390D02*
X-347980Y582930D01*
X-350520Y570175D02*
Y580390D01*
X-347980Y582930D02*
X-313944D01*
X-346456Y561086D02*
X-334010Y548640D01*
X-346456Y561086D02*
Y570175D01*
X-151130Y462280D02*
Y464820D01*
X-148140Y467810D01*
Y476160D01*
X-337820Y491490D02*
Y544830D01*
X-358449Y622808D02*
X-349830D01*
X-372618D02*
X-358449D01*
Y602488D02*
X-351282D01*
X-279146Y618744D02*
X-276860Y621030D01*
X-289759Y618744D02*
X-279146D01*
X-289592Y622808D02*
X-283972D01*
X-313944Y632108D02*
Y638865D01*
X-347980Y629920D02*
X-316132D01*
X-313944Y632108D01*
X-350520Y632460D02*
X-347980Y629920D01*
X-350520Y632460D02*
Y638865D01*
X-348586Y624840D02*
X-303432D01*
X-349758Y623668D02*
X-348586Y624840D01*
X-302260Y614680D02*
Y623668D01*
X-349758Y622736D02*
Y623668D01*
X-303432Y624840D02*
X-302260Y623668D01*
X-399770Y599440D02*
X-399241Y599968D01*
X-394442D01*
X-387858Y606552D01*
X-399770Y584200D02*
Y585200D01*
X-397270Y587700D02*
X-395280D01*
X-399770Y585200D02*
X-397270Y587700D01*
X-395280D02*
X-380492Y602488D01*
X-168910Y675640D02*
X-167640Y674370D01*
Y656270D02*
Y674370D01*
X-276860Y675640D02*
X-218440D01*
X-280670Y671830D02*
X-276860Y675640D01*
X-280670Y632460D02*
Y671830D01*
X-282194Y630936D02*
X-280670Y632460D01*
X-289759Y630936D02*
X-282194D01*
X-309880Y563880D02*
X-302260Y556260D01*
X-309880Y563880D02*
Y570175D01*
X-340360Y547370D02*
X-337820Y544830D01*
X-346430Y547370D02*
X-340360D01*
X-346710Y547650D02*
X-346430Y547370D01*
X-313944Y582930D02*
X-304800D01*
X-302260Y585470D01*
Y604520D01*
X-300228Y606552D01*
X-289759D01*
X-313944Y570175D02*
Y582930D01*
X-369464Y606552D02*
X-358616D01*
X-387858D02*
X-369464D01*
Y608436D02*
X-367284Y610616D01*
X-369464Y606552D02*
Y608436D01*
X-367284Y610616D02*
X-358449D01*
X-194310Y589599D02*
Y599440D01*
X-365760Y661390D02*
X-350520D01*
X-381000D02*
X-365760D01*
X-194310Y599440D02*
X-187500Y606250D01*
X-172260D02*
X-167890Y610620D01*
X-187500Y606250D02*
X-172260D01*
X-167890Y610620D02*
Y616020D01*
X-184150Y570230D02*
Y594360D01*
X-176530Y601980D01*
X-170180D01*
X-161390Y610770D01*
Y616020D01*
X-358140Y450850D02*
X-347980Y461010D01*
X-369570Y548640D02*
Y579120D01*
X-359410Y459740D02*
Y538480D01*
X-369570Y548640D02*
X-359410Y538480D01*
X-369570Y579120D02*
X-366522Y582168D01*
X-373380Y543560D02*
Y585060D01*
X-363220Y461010D02*
Y533400D01*
X-373380Y543560D02*
X-363220Y533400D01*
X-372208Y586232D02*
X-358616D01*
X-373380Y585060D02*
X-372208Y586232D01*
X-378460Y541020D02*
X-370840Y533400D01*
X-378460Y585470D02*
X-373634Y590296D01*
X-378460Y541020D02*
Y585470D01*
X-370840Y526290D02*
Y533400D01*
X-373634Y590296D02*
X-358449D01*
X-383540Y586740D02*
X-375920Y594360D01*
X-358616D01*
X-383540Y526290D02*
Y586740D01*
X-388620Y588010D02*
X-378206Y598424D01*
X-388620Y547370D02*
Y588010D01*
X-378206Y598424D02*
X-358616D01*
X-330200Y639032D02*
Y679450D01*
X-323460Y686190D02*
Y693420D01*
X-330200Y679450D02*
X-323460Y686190D01*
X-408940Y453390D02*
Y469390D01*
Y453390D02*
X-406400Y450850D01*
X-358140D01*
X-364998Y552450D02*
X-355600Y543052D01*
X-350520Y556260D02*
X-347035Y552775D01*
Y547976D02*
X-346710Y547650D01*
X-347035Y547976D02*
Y552775D01*
X-396240Y455930D02*
Y469390D01*
Y455930D02*
X-394970Y454660D01*
X-364490D01*
X-359410Y459740D01*
X-365760Y458470D02*
X-363220Y461010D01*
X-382270Y458470D02*
X-365760D01*
X-383540Y459740D02*
X-382270Y458470D01*
X-383540Y459740D02*
Y469390D01*
X-396240Y539750D02*
X-388620Y547370D01*
X-396240Y526290D02*
Y539750D01*
X-364998Y552450D02*
Y576550D01*
X-313944Y547904D02*
Y570008D01*
Y547904D02*
X-313690Y547650D01*
X-276860Y581660D02*
Y591820D01*
X-283460Y598420D02*
X-276860Y591820D01*
X-289592Y598424D02*
X-289588Y598420D01*
X-283460D01*
X-381000Y640080D02*
X-367792Y626872D01*
X-381000Y640080D02*
Y661390D01*
X-367792Y626872D02*
X-358616D01*
X-365506Y631978D02*
Y661136D01*
X-364464Y630936D02*
X-358616D01*
X-365760Y661390D02*
X-365506Y661136D01*
Y631978D02*
X-364464Y630936D01*
X-396240Y646430D02*
X-372618Y622808D01*
X-349758Y604012D02*
Y622736D01*
X-349830Y622808D02*
X-349758Y622736D01*
X-302260Y614680D02*
X-298196Y610616D01*
X-351282Y602488D02*
X-349758Y604012D01*
X-380492Y602488D02*
X-358449D01*
X-363448Y578100D02*
X-358620D01*
X-364998Y576550D02*
X-363448Y578100D01*
X-358620D02*
X-358616Y578104D01*
X-366522Y582168D02*
X-358616D01*
D14*
X-217450Y596900D02*
X-217170Y596620D01*
D19*
X-70840Y612140D02*
D03*
X-86640D02*
D03*
X-70840Y596900D02*
D03*
X-86640D02*
D03*
X-70840Y582930D02*
D03*
X-86640D02*
D03*
X-465100Y703580D02*
D03*
X-449300D02*
D03*
X-465100Y728980D02*
D03*
X-449300D02*
D03*
X-485450Y611560D02*
D03*
X-501250D02*
D03*
X-485450Y596580D02*
D03*
X-501250D02*
D03*
X-231922Y639105D02*
D03*
X-247722D02*
D03*
X-247722Y608625D02*
D03*
X-231922D02*
D03*
Y593386D02*
D03*
X-247722D02*
D03*
X-105130Y565150D02*
D03*
X-120930D02*
D03*
X-484860Y405130D02*
D03*
X-500660D02*
D03*
X-369290D02*
D03*
X-385090D02*
D03*
X-244830D02*
D03*
X-260630D02*
D03*
X-119100D02*
D03*
X-134900D02*
D03*
X2820Y403860D02*
D03*
X-12980D02*
D03*
X-68860Y728980D02*
D03*
X-53060D02*
D03*
X-194590D02*
D03*
X-178790D02*
D03*
X-319050D02*
D03*
X-303250D02*
D03*
X-433350D02*
D03*
X-417550D02*
D03*
X-498120D02*
D03*
X-482320D02*
D03*
X-332460Y474980D02*
D03*
X-348260D02*
D03*
X-415570Y568960D02*
D03*
X-399770D02*
D03*
X-415570Y553720D02*
D03*
X-399770D02*
D03*
X-232176Y623866D02*
D03*
X-247976D02*
D03*
X-415570Y584200D02*
D03*
X-399770D02*
D03*
X-242850Y728980D02*
D03*
X-227050D02*
D03*
X-415570Y599440D02*
D03*
X-399770D02*
D03*
X-415570Y614680D02*
D03*
X-399770D02*
D03*
X-70840Y532130D02*
D03*
X-86640D02*
D03*
X-70840Y516890D02*
D03*
X-86640D02*
D03*
X-120930Y605790D02*
D03*
X-105130D02*
D03*
X-54330Y403860D02*
D03*
X-70130D02*
D03*
X-167360Y405130D02*
D03*
X-183160D02*
D03*
X-294360D02*
D03*
X-310160D02*
D03*
X-417550D02*
D03*
X-433350D02*
D03*
X-468910D02*
D03*
X-453110D02*
D03*
X-70840Y501650D02*
D03*
X-86640D02*
D03*
X-127280Y728980D02*
D03*
X-111480D02*
D03*
X-374930D02*
D03*
X-359130D02*
D03*
X-18060D02*
D03*
X-2260D02*
D03*
X-275310Y693420D02*
D03*
X-291110D02*
D03*
X-332460Y490220D02*
D03*
X-348260D02*
D03*
D20*
X-508380Y668020D02*
D03*
X-479680D02*
D03*
D21*
X-434340Y702590D02*
D03*
Y686790D02*
D03*
X-419100Y702590D02*
D03*
Y686790D02*
D03*
X-461010Y651790D02*
D03*
Y635990D02*
D03*
X-396240Y677190D02*
D03*
Y661390D02*
D03*
X-381000Y677190D02*
D03*
Y661390D02*
D03*
X-313690Y531850D02*
D03*
Y547650D02*
D03*
X-346710Y531850D02*
D03*
Y547650D02*
D03*
X-365760Y677190D02*
D03*
Y661390D02*
D03*
X-151130Y594640D02*
D03*
Y578840D02*
D03*
X-166370Y578840D02*
D03*
Y594640D02*
D03*
X-217170Y612420D02*
D03*
Y596620D02*
D03*
X-275590Y547090D02*
D03*
Y562890D02*
D03*
X-436269Y649937D02*
D03*
Y665737D02*
D03*
X-421029Y649937D02*
D03*
Y665737D02*
D03*
X-350520Y677190D02*
D03*
Y661390D02*
D03*
X-313690Y677190D02*
D03*
Y661390D02*
D03*
X-166370Y539470D02*
D03*
Y555270D02*
D03*
X-151130Y555270D02*
D03*
Y539470D02*
D03*
D22*
X-441150Y619760D02*
D03*
X-460550D02*
D03*
X-441150Y599440D02*
D03*
X-460550D02*
D03*
D23*
X-613390Y725270D02*
D03*
Y788270D02*
D03*
D24*
X-638890Y745270D02*
D03*
Y768270D02*
D03*
Y718770D02*
D03*
Y794770D02*
D03*
D25*
X-612140Y756770D02*
D03*
Y750270D02*
D03*
Y763270D02*
D03*
Y769770D02*
D03*
Y743770D02*
D03*
D26*
X-508280Y647040D02*
D03*
Y637540D02*
D03*
Y628040D02*
D03*
X-479780D02*
D03*
Y637540D02*
D03*
Y647040D02*
D03*
D27*
X-545000Y631370D02*
D03*
Y618670D02*
D03*
Y605970D02*
D03*
Y453570D02*
D03*
Y466270D02*
D03*
Y478970D02*
D03*
Y491670D02*
D03*
Y504370D02*
D03*
Y517070D02*
D03*
Y529770D02*
D03*
Y542470D02*
D03*
Y555170D02*
D03*
Y567870D02*
D03*
Y580570D02*
D03*
Y593270D02*
D03*
D28*
X-284805Y528290D02*
D03*
X-393700Y727710D02*
D03*
D32*
X-234380Y571910D02*
D03*
Y527910D02*
D03*
X-258380D02*
D03*
Y571910D02*
D03*
D33*
X-267040Y664210D02*
D03*
X-220640D02*
D03*
Y480060D02*
D03*
X-267040D02*
D03*
D34*
X-157890Y636270D02*
D03*
Y496160D02*
D03*
D35*
X-177890Y626520D02*
D03*
Y633020D02*
D03*
Y639520D02*
D03*
Y646020D02*
D03*
X-137890D02*
D03*
Y639520D02*
D03*
Y633020D02*
D03*
Y626520D02*
D03*
Y505910D02*
D03*
Y499410D02*
D03*
Y492910D02*
D03*
Y486410D02*
D03*
X-177890D02*
D03*
Y492910D02*
D03*
Y499410D02*
D03*
Y505910D02*
D03*
D36*
X-167640Y656270D02*
D03*
X-161140D02*
D03*
X-154640D02*
D03*
X-148140D02*
D03*
Y616270D02*
D03*
X-154640D02*
D03*
X-161140D02*
D03*
X-167640D02*
D03*
X-148140Y476160D02*
D03*
X-154640D02*
D03*
X-161140D02*
D03*
X-167640D02*
D03*
Y516160D02*
D03*
X-161140D02*
D03*
X-154640D02*
D03*
X-148140D02*
D03*
D37*
X-468630Y481660D02*
D03*
Y554660D02*
D03*
D38*
X-408940Y469390D02*
D03*
X-396240D02*
D03*
X-383540D02*
D03*
X-370840D02*
D03*
Y526290D02*
D03*
X-383540D02*
D03*
X-396240D02*
D03*
X-408940D02*
D03*
D39*
X-306460Y693420D02*
D03*
X-323460D02*
D03*
D52*
X-324104Y604520D02*
D03*
D68*
X-358449Y610616D02*
D03*
Y602488D02*
D03*
Y582168D02*
D03*
Y578104D02*
D03*
Y590296D02*
D03*
Y594360D02*
D03*
Y598424D02*
D03*
Y586232D02*
D03*
Y630936D02*
D03*
Y626872D02*
D03*
Y622808D02*
D03*
Y618744D02*
D03*
Y614680D02*
D03*
Y606552D02*
D03*
X-289759Y582168D02*
D03*
Y586232D02*
D03*
Y590296D02*
D03*
Y594360D02*
D03*
Y598424D02*
D03*
Y602488D02*
D03*
Y578104D02*
D03*
Y610616D02*
D03*
Y630936D02*
D03*
Y626872D02*
D03*
Y622808D02*
D03*
Y618744D02*
D03*
Y614680D02*
D03*
Y606552D02*
D03*
D69*
X-297688Y570175D02*
D03*
X-301752D02*
D03*
X-305816D02*
D03*
X-309880D02*
D03*
X-313944D02*
D03*
X-318008D02*
D03*
X-322072D02*
D03*
X-326136D02*
D03*
X-330200D02*
D03*
X-334264D02*
D03*
X-338328D02*
D03*
X-342392D02*
D03*
X-346456D02*
D03*
X-350520D02*
D03*
X-297688Y638865D02*
D03*
X-301752D02*
D03*
X-305816D02*
D03*
X-309880D02*
D03*
X-313944D02*
D03*
X-318008D02*
D03*
X-322072D02*
D03*
X-326136D02*
D03*
X-330200D02*
D03*
X-334264D02*
D03*
X-338328D02*
D03*
X-342392D02*
D03*
X-346456D02*
D03*
X-350520D02*
D03*
D70*
X-389890Y497840D02*
D03*
D71*
X-105410Y455930D02*
X-62230Y412750D01*
Y386080D02*
Y412750D01*
X-123490Y499410D02*
X-105410Y481330D01*
X-68580Y379730D02*
X-62230Y386080D01*
X-105410Y455930D02*
Y481330D01*
X-68580Y358140D02*
Y379730D01*
X-53620Y403860D02*
Y410210D01*
X-97790Y459740D02*
Y481330D01*
Y459740D02*
X-53620Y415570D01*
Y410210D02*
Y415570D01*
Y368580D02*
Y403860D01*
X-589280Y732790D02*
Y737870D01*
X-595180Y743770D02*
X-589280Y737870D01*
X-612140Y743770D02*
X-595180D01*
X-70840Y532130D02*
Y547090D01*
X-90170Y566420D02*
X-70840Y547090D01*
X-30480Y532130D02*
X-6350Y508000D01*
X15000D01*
X-70840Y532130D02*
X-30480D01*
X-14463Y709437D02*
X-10160Y713740D01*
X-107950Y701040D02*
X-99553Y709437D01*
X-14463D01*
X-17780Y728980D02*
Y775970D01*
X-20679Y715921D02*
X-17780Y718820D01*
X-111273Y715921D02*
X-20679D01*
X-17780Y718820D02*
Y728980D01*
X-113030Y714164D02*
X-111273Y715921D01*
X-113030Y643890D02*
Y714164D01*
X-120240Y626520D02*
X-107950Y638810D01*
Y701040D01*
X-123900Y633020D02*
X-113030Y643890D01*
X-434952Y702590D02*
X-419100D01*
X-542570Y750570D02*
X-528320D01*
X-567690Y775690D02*
X-542570Y750570D01*
X-528320D02*
X-506730Y728980D01*
X-498120D01*
X-482320D02*
Y740130D01*
X-486410Y744220D02*
X-482320Y740130D01*
X-510820Y744220D02*
X-486410D01*
X-542290Y775690D02*
X-510820Y744220D01*
X-491490Y703580D02*
X-465100D01*
X-519430Y731520D02*
X-491490Y703580D01*
X-546100Y731520D02*
X-519430D01*
X-584350Y769770D02*
X-546100Y731520D01*
X-612140Y769770D02*
X-584350D01*
X-449580Y637540D02*
Y661670D01*
X-441150Y620070D02*
Y629110D01*
X-449580Y637540D02*
X-441150Y629110D01*
X-469900Y681990D02*
X-449580Y661670D01*
X-441150Y619760D02*
Y620070D01*
X-491750Y681990D02*
X-469900D01*
X-508380Y671970D02*
X-503730Y676620D01*
X-497120D01*
X-491750Y681990D01*
X-508380Y668020D02*
Y671970D01*
X-441150Y620070D02*
X-437650Y623570D01*
X-401527D01*
X-399770Y614680D02*
Y621813D01*
X-401527Y623570D02*
X-399770Y621813D01*
X-478280Y636040D02*
X-470060D01*
X-470010Y635990D02*
X-461010D01*
X-479780Y637540D02*
X-478280Y636040D01*
X-470060D02*
X-470010Y635990D01*
X-468688Y420370D02*
X-436880D01*
X-523240D02*
X-468688D01*
X-468910Y405130D02*
Y420148D01*
X-468688Y420370D01*
X-525780Y426720D02*
X-439420D01*
X-421640Y444500D02*
X-218440D01*
X-439420Y426720D02*
X-421640Y444500D01*
X-420370Y436880D02*
X-215900D01*
X-436880Y420370D02*
X-420370Y436880D01*
X-399770Y599440D02*
Y614680D01*
X-205881Y457059D02*
Y495159D01*
X-218440Y444500D02*
X-205881Y457059D01*
Y495159D02*
X-195130Y505910D01*
X-215900Y436880D02*
X-200694Y452086D01*
Y493996D02*
X-195280Y499410D01*
X-200694Y452086D02*
Y493996D01*
X-195506Y489024D02*
X-191620Y492910D01*
X-213360Y430530D02*
X-195506Y448384D01*
Y489024D01*
X-209090Y424640D02*
X-190234Y443496D01*
Y484136D02*
X-187960Y486410D01*
X-190234Y443496D02*
Y484136D01*
X-195280Y499410D02*
X-177890D01*
X-405940Y424640D02*
X-209090D01*
X-187960Y486410D02*
X-177890D01*
X-418367Y430530D02*
X-213360D01*
X-191620Y492910D02*
X-177890D01*
X-195130Y505910D02*
X-177890D01*
X-367030Y722630D02*
Y775970D01*
X-464820Y716280D02*
Y728700D01*
X-465100Y728980D02*
X-464820Y728700D01*
Y716280D02*
X-461010Y712470D01*
X-399770Y561340D02*
Y568960D01*
Y553720D02*
Y561340D01*
Y548920D02*
Y553720D01*
X-120650Y589280D02*
X-113030Y581660D01*
X-120930Y589560D02*
X-120650Y589280D01*
X-405913Y569743D02*
X-400553D01*
X-399770Y568960D01*
X-407670Y571500D02*
X-405913Y569743D01*
X-408940Y526290D02*
Y539750D01*
X-399770Y548920D01*
X-144780Y527050D02*
X-135890D01*
X-113030Y549910D02*
Y581660D01*
X-135890Y527050D02*
X-113030Y549910D01*
X-127280Y728980D02*
Y738150D01*
X-143510Y754380D02*
Y775970D01*
Y754380D02*
X-127280Y738150D01*
X-129037Y646020D02*
X-127280Y647777D01*
X-137890Y646020D02*
X-129037D01*
X-127280Y647777D02*
Y729980D01*
X-242570Y756920D02*
X-234950Y749300D01*
X-242570Y756920D02*
Y775970D01*
X-234950Y721360D02*
Y749300D01*
Y721360D02*
X-231140Y717550D01*
X-242570Y728980D02*
Y739140D01*
X-266657Y763227D02*
X-242570Y739140D01*
X-267970Y775970D02*
X-266657Y774657D01*
X-242570Y716280D02*
Y728980D01*
X-266657Y763227D02*
Y774657D01*
X-238760Y712470D02*
X-187960D01*
X-242570Y716280D02*
X-238760Y712470D01*
X-400050Y704850D02*
X-264160D01*
X-245110Y685800D01*
X-215900D01*
X-242570Y706120D02*
X-207010D01*
X-256540Y720090D02*
X-242570Y706120D01*
X-364490Y720090D02*
X-256540D01*
X-243840Y699770D02*
X-210820D01*
X-259080Y715010D02*
X-243840Y699770D01*
X-369570Y715010D02*
X-259080D01*
X-243840Y692150D02*
X-213360D01*
X-261620Y709930D02*
X-243840Y692150D01*
X-397510Y709930D02*
X-261620D01*
X-10160Y741680D02*
X7620Y759460D01*
Y775970D01*
X-10160Y713740D02*
Y741680D01*
X-516890Y759460D02*
Y775690D01*
Y759460D02*
X-510540Y753110D01*
X-480060D01*
X-465100Y738150D01*
Y728980D02*
Y738150D01*
X-491490Y775690D02*
X-468910Y753110D01*
X-468630D01*
X-457200Y741680D01*
Y721360D02*
Y741680D01*
Y721360D02*
X-453390Y717550D01*
X-374650Y720090D02*
Y742950D01*
X-392430Y760730D02*
X-374650Y742950D01*
X-392430Y760730D02*
Y775970D01*
X-374650Y720090D02*
X-369570Y715010D01*
X-133350Y568960D02*
Y570230D01*
Y568960D02*
X-129540Y565150D01*
X-120930D01*
X-166064Y548821D02*
X-164613Y547370D01*
X-166370Y555270D02*
X-166064Y554964D01*
Y548821D02*
Y554964D01*
X-164613Y547370D02*
X-153670D01*
X-151130Y544830D01*
Y539470D02*
Y544830D01*
Y568960D02*
Y578840D01*
X-153670Y566420D02*
X-151130Y568960D01*
X-162560Y566420D02*
X-153670D01*
X-166370Y562610D02*
X-162560Y566420D01*
X-166370Y555270D02*
Y562610D01*
X-151130Y578840D02*
Y584983D01*
X-161290Y586740D02*
X-152887D01*
X-151130Y584983D01*
X-163830Y589280D02*
X-161290Y586740D01*
X-163830Y589280D02*
Y592640D01*
X-164560Y593370D02*
X-163830Y592640D01*
X-165100Y593370D02*
X-164560D01*
X-166370Y594640D02*
X-165100Y593370D01*
X-175065Y421835D02*
X-167640Y429260D01*
X-124460D01*
X-175065Y392625D02*
Y421835D01*
X-193040Y374650D02*
X-175065Y392625D01*
X-193040Y358140D02*
Y374650D01*
X-167640Y405130D02*
Y417830D01*
X-417830Y412750D02*
X-405940Y424640D01*
X-296130Y420370D02*
X-200660D01*
X-302260Y414240D02*
X-296130Y420370D01*
X-302260Y393700D02*
Y414240D01*
X-318770Y377190D02*
X-302260Y393700D01*
X-318770Y358140D02*
Y377190D01*
X-293370Y405130D02*
Y413533D01*
X-425450Y393700D02*
Y423447D01*
X-418367Y430530D01*
X-443230Y375920D02*
X-425450Y393700D01*
X-443230Y358140D02*
Y375920D01*
X-569120Y383380D02*
X-525780Y426720D01*
X-543720Y399890D02*
X-523240Y420370D01*
X-306460Y693420D02*
X-291110D01*
X-405913Y599759D02*
X-401770D01*
X-407670Y571500D02*
Y598001D01*
X-405913Y599759D01*
X-167890Y616020D02*
X-167640Y616270D01*
X-161390Y616020D02*
X-161140Y616270D01*
X-163370Y599900D02*
X-154640Y608630D01*
X-165370Y594640D02*
X-163370Y596640D01*
Y599900D01*
X-166370Y594640D02*
X-165370D01*
X-154640Y608630D02*
Y616270D01*
X-120930Y549630D02*
Y565150D01*
X-138430Y532130D02*
X-120930Y549630D01*
Y589560D02*
Y605790D01*
X-151130Y594640D02*
Y605790D01*
X-148140Y608780D01*
Y616270D01*
Y523690D02*
X-144780Y527050D01*
X-148140Y516160D02*
Y523690D01*
X-147320Y532130D02*
X-138430D01*
X-154640Y524810D02*
X-147320Y532130D01*
X-154640Y516160D02*
Y524810D01*
X-137890Y626520D02*
X-120240D01*
X-137890Y633020D02*
X-123900D01*
X-154130Y537470D02*
X-152130Y539470D01*
X-154130Y534210D02*
Y537470D01*
X-152130Y539470D02*
X-151130D01*
X-161140Y527200D02*
X-154130Y534210D01*
X-161140Y516160D02*
Y527200D01*
X-167640Y538200D02*
X-166370Y539470D01*
X-167640Y516160D02*
Y538200D01*
X-208280Y635000D02*
X-199800Y626520D01*
X-177890D01*
X-208280Y635000D02*
Y678180D01*
X-215900Y685800D02*
X-208280Y678180D01*
X-201930Y647700D02*
Y680720D01*
Y647700D02*
X-187250Y633020D01*
X-213360Y692150D02*
X-201930Y680720D01*
X-195580Y648970D02*
Y684530D01*
Y648970D02*
X-186130Y639520D01*
X-210820Y699770D02*
X-195580Y684530D01*
X-189230Y651510D02*
Y688340D01*
X-207010Y706120D02*
X-189230Y688340D01*
X-183740Y646020D02*
X-177890D01*
X-189230Y651510D02*
X-183740Y646020D01*
X-119380Y645160D02*
Y774700D01*
X-118110Y775970D01*
X-125020Y639520D02*
X-119380Y645160D01*
X-137890Y639520D02*
X-125020D01*
X-231140Y717550D02*
X-184150D01*
X-148140Y681540D01*
Y656270D02*
Y681540D01*
X-187960Y712470D02*
X-154640Y679150D01*
Y656270D02*
Y679150D01*
X-367030Y722630D02*
X-364490Y720090D01*
X-186130Y639520D02*
X-177890D01*
X-187250Y633020D02*
X-177890D01*
X-405130Y717550D02*
X-397510Y709930D01*
X-461010Y712470D02*
X-407670D01*
X-400050Y704850D01*
X-392430Y775970D02*
X-392290Y775830D01*
X-453390Y717550D02*
X-405130D01*
X-417830Y358140D02*
Y412750D01*
X-200660Y420370D02*
X-167640Y453390D01*
X-293370Y413533D02*
X-291613Y415290D01*
X-196850D01*
X-293370Y358140D02*
Y405130D01*
X-196850Y415290D02*
X-161140Y451000D01*
X-569120Y358140D02*
Y383380D01*
X-543720Y358140D02*
Y399890D01*
X-167640Y453390D02*
Y476160D01*
X-161140Y451000D02*
Y476160D01*
X-124460Y429260D02*
X-118110Y435610D01*
Y473710D01*
X-130810Y486410D02*
X-118110Y473710D01*
X-137890Y486410D02*
X-130810D01*
X-167640Y358140D02*
Y405130D01*
Y417830D02*
X-162560Y422910D01*
X-115570D01*
X-111760Y426720D01*
Y478790D01*
X-125880Y492910D02*
X-111760Y478790D01*
X-137890Y492910D02*
X-125880D01*
X-137890Y499410D02*
X-123490D01*
X-53620Y368580D02*
X-43180Y358140D01*
X-122370Y505910D02*
X-97790Y481330D01*
X-137890Y505910D02*
X-122370D01*
X-419100Y702590D02*
X-419100Y702590D01*
D72*
X-436269Y665737D02*
X-435269D01*
X-379930Y613955D02*
X-379147Y614739D01*
X-378822Y619305D02*
X-378202Y618685D01*
X-362322D01*
X-379147Y614739D02*
X-362322D01*
X-358646Y618714D02*
X-358616Y618744D01*
X-362322Y618685D02*
X-362293Y618714D01*
X-358646D01*
Y614710D02*
X-358616Y614680D01*
X-362322Y614739D02*
X-362293Y614710D01*
X-358646D01*
X-436269Y649937D02*
X-435269D01*
X-422029D02*
X-421029D01*
D73*
X-431158Y680270D02*
X-425974Y675086D01*
X-451346Y674920D02*
X-433374D01*
X-431324Y669682D02*
Y672870D01*
X-436269Y665737D02*
X-434519Y667487D01*
X-461307Y692447D02*
X-449130Y680270D01*
X-431158D01*
X-433374Y674920D02*
X-431324Y672870D01*
X-463523Y687097D02*
X-451346Y674920D01*
X-425974Y669537D02*
Y675086D01*
Y669537D02*
X-423924Y667487D01*
X-434519D02*
X-433519D01*
X-431324Y669682D01*
X-594731Y757345D02*
X-524907Y687521D01*
X-463947D01*
X-461731Y692871D02*
X-461307Y692447D01*
X-463523Y687097D02*
X-463523D01*
X-522691Y692871D02*
X-461731D01*
X-461307Y692447D02*
X-461307D01*
X-590550Y760730D02*
X-522691Y692871D01*
X-463947Y687521D02*
X-463523Y687097D01*
X-379930Y613955D02*
X-377045D01*
X-382815D02*
X-379930D01*
X-378822Y619305D02*
X-377045D01*
X-380599D02*
X-378822D01*
X-401050Y632190D02*
X-382815Y613955D01*
X-421827Y637540D02*
X-398834D01*
X-380599Y619305D01*
X-434519Y648187D02*
X-433374D01*
X-436269Y649937D02*
X-434519Y648187D01*
X-431324Y639471D02*
X-424043Y632190D01*
X-401050D01*
X-433374Y648187D02*
X-431324Y646137D01*
Y639471D02*
Y646137D01*
X-422779Y648187D02*
X-421029Y649937D01*
X-423779Y648187D02*
X-422779D01*
X-425974Y641687D02*
X-421827Y637540D01*
X-425974Y645992D02*
X-423779Y648187D01*
X-425974Y641687D02*
Y645992D01*
X-612140Y763270D02*
X-611890Y763020D01*
X-606640D01*
X-611890Y757020D02*
X-606640D01*
X-592515Y762695D02*
X-590550Y760730D01*
X-606640Y757020D02*
X-606315Y757345D01*
X-606640Y763020D02*
X-606315Y762695D01*
Y757345D02*
X-594731D01*
X-612140Y756770D02*
X-611890Y757020D01*
X-606315Y762695D02*
X-592515D01*
X-423924Y667487D02*
X-422779D01*
X-421029Y665737D01*
D74*
X-86640Y516890D02*
Y532130D01*
X-485450Y586100D02*
Y596580D01*
X-490220Y581330D02*
X-485450Y586100D01*
X-70840Y582930D02*
X15240D01*
X-86640Y612140D02*
Y685520D01*
Y604520D02*
Y612140D01*
Y596900D02*
Y604520D01*
X-87910Y605790D02*
X-86640Y604520D01*
X-105130Y605790D02*
X-87910D01*
X-86640Y582930D02*
Y596900D01*
X-58420Y612140D02*
X-46990D01*
X-70840D02*
X-58420D01*
X-46990D02*
X-25400Y633730D01*
X15240D01*
X-60960Y596900D02*
X-30480D01*
X-70840D02*
X-60960D01*
X-30480D02*
X-19050Y608330D01*
X15240D01*
X-106130Y606790D02*
X-105130Y605790D01*
Y565150D02*
Y605790D01*
X13823Y483777D02*
X15000Y482600D01*
X-29210Y516890D02*
X3903Y483777D01*
X13823D01*
X-70840Y516890D02*
X-29210D01*
X-16510Y466090D02*
X-7620Y457200D01*
X15000D01*
X-16510Y466090D02*
Y491490D01*
X-29210Y504190D02*
X-16510Y491490D01*
X-57150Y504190D02*
X-29210D01*
X-59690Y501650D02*
X-57150Y504190D01*
X-70840Y501650D02*
X-59690D01*
X-105130Y516917D02*
Y565150D01*
Y498830D02*
Y516917D01*
X-86667D01*
X-86640Y516890D01*
Y685520D02*
X-69850Y702310D01*
X6350D02*
X22860Y718820D01*
X-69850Y702310D02*
X6350D01*
X22860Y718820D02*
Y728980D01*
X-88900Y463550D02*
Y482600D01*
X-105130Y498830D02*
X-88900Y482600D01*
Y463550D02*
X-55880Y430530D01*
X-6350D01*
X22380Y401800D01*
Y346230D02*
Y401800D01*
X-589280Y641350D02*
X-562610Y668020D01*
X-508380D01*
X-589280Y371555D02*
Y641350D01*
X-501250Y604070D02*
Y611560D01*
Y596580D02*
Y604070D01*
X-441150Y599440D02*
Y619760D01*
X-460550Y585930D02*
Y599440D01*
X-508330Y647090D02*
Y667970D01*
Y647090D02*
X-508280Y647040D01*
X-508380Y668020D02*
X-508330Y667970D01*
X-508280Y628040D02*
Y637540D01*
Y623850D02*
Y628040D01*
X-501250Y611560D02*
Y616820D01*
X-508280Y623850D02*
X-501250Y616820D01*
X-491490Y657491D02*
X-488561Y660420D01*
X-483330D02*
X-479680Y664070D01*
X-491490Y640969D02*
Y657491D01*
X-488561Y660420D02*
X-483330D01*
X-479680Y664070D02*
Y668020D01*
X-491490Y640969D02*
X-488561Y638040D01*
X-480280D01*
X-479780Y637540D01*
X-460550Y599440D02*
Y619760D01*
X-485450Y611560D02*
Y616910D01*
Y596580D02*
Y611560D01*
X-482530Y627540D02*
X-482030Y628040D01*
X-485450Y616910D02*
X-482530Y619830D01*
X-482030Y628040D02*
X-479780D01*
X-482530Y619830D02*
Y627540D01*
X-585757Y348267D02*
X-558800Y321310D01*
X-589280Y371555D02*
X-585757Y368032D01*
Y348267D02*
Y368032D01*
X-2540Y321310D02*
X22380Y346230D01*
X27940Y734060D02*
Y801370D01*
X22860Y728980D02*
X27940Y734060D01*
X-2260Y728980D02*
X22860D01*
X-91063Y321310D02*
X-2540D01*
X-141250Y578840D02*
X-137160Y582930D01*
X-151130Y578840D02*
X-141250D01*
X-137160Y582930D02*
Y612140D01*
X-132080Y617220D01*
X-109059D01*
X-106130Y606790D02*
Y614291D01*
X-109059Y617220D02*
X-106130Y614291D01*
X-92348Y814070D02*
X15240D01*
X-215987D02*
X-92348D01*
Y733152D02*
Y814070D01*
X-96520Y728980D02*
X-92348Y733152D01*
X-111480Y728980D02*
X-96520D01*
X-340560Y814070D02*
X-215987D01*
X-227050Y757200D02*
X-215987Y768263D01*
Y814070D01*
X-227050Y728980D02*
Y757200D01*
X-454660Y814070D02*
X-340560D01*
X-359130Y748310D02*
X-340560Y766880D01*
Y814070D01*
X-359130Y728980D02*
Y748310D01*
X-463550Y762000D02*
Y805180D01*
X-454660Y814070D01*
X-463550Y762000D02*
X-449300Y747750D01*
Y728980D02*
Y747750D01*
X15240Y814070D02*
X27940Y801370D01*
X-558800Y321310D02*
X-467360D01*
X-342574D02*
X-217788D01*
X-467360D02*
X-342574D01*
Y397836D02*
X-335280Y405130D01*
X-342574Y321310D02*
Y397836D01*
X-335280Y405130D02*
X-310160D01*
X-217788Y321310D02*
X-91063D01*
X-217788Y395622D02*
X-208280Y405130D01*
X-217788Y321310D02*
Y395622D01*
X-208280Y405130D02*
X-183160D01*
X-91063Y395347D02*
X-82550Y403860D01*
X-91063Y321310D02*
Y395347D01*
X-82550Y403860D02*
X-70130D01*
X-467360Y321310D02*
Y378460D01*
X-453110Y392710D01*
Y405130D01*
X-433350D01*
D75*
X-396240Y677190D02*
X-381000D01*
X-434937Y686805D02*
X-419115D01*
X-396240Y677190D02*
Y684447D01*
X-419100Y686790D02*
X-398583D01*
X-396240Y684447D01*
X-86640Y493040D02*
X-81280Y487680D01*
X-86640Y493040D02*
Y501650D01*
X-81280Y471170D02*
Y487680D01*
Y471170D02*
X-49530Y439420D01*
X-3270D01*
X28699Y407451D01*
Y342389D02*
Y407451D01*
X0Y313690D02*
X28699Y342389D01*
X-479780Y647040D02*
X-479041Y647779D01*
X-471783D02*
X-468634Y650928D01*
X-461872D02*
X-461010Y651790D01*
X-479041Y647779D02*
X-471783D01*
X-468634Y650928D02*
X-461872D01*
X-415570Y591713D02*
Y599440D01*
Y584200D02*
Y591713D01*
Y568960D02*
Y584200D01*
Y556260D02*
Y568960D01*
Y599440D02*
Y614680D01*
X-232293Y623829D02*
X-232257Y623866D01*
X-232410Y615950D02*
X-232293Y616067D01*
X-232257Y612267D02*
Y615797D01*
X-232410Y615950D02*
X-232257Y615797D01*
X-232293Y616067D02*
Y623829D01*
X-231140Y661670D02*
X-220640D01*
X-231140Y480060D02*
X-220640D01*
X-181610Y552450D02*
Y558800D01*
X-168870Y571540D01*
Y577340D02*
X-167370Y578840D01*
X-168870Y571540D02*
Y577340D01*
X-167370Y578840D02*
X-166370D01*
X-139980Y555270D02*
X-137160Y552450D01*
X-151130Y555270D02*
X-139980D01*
X-563880Y313690D02*
X0D01*
X-595050Y344860D02*
X-563880Y313690D01*
X-603250Y369570D02*
X-595050Y361370D01*
Y344860D02*
Y361370D01*
X-603250Y369570D02*
Y542290D01*
X-313690Y531850D02*
X-313646Y531894D01*
Y537377D02*
X-313602Y537421D01*
X-313646Y531894D02*
Y537377D01*
X-346710Y524510D02*
Y531850D01*
X-575130Y542470D02*
X-574545Y543055D01*
X-575310Y542290D02*
X-575130Y542470D01*
X-574545Y550675D02*
X-570050Y555170D01*
X-574545Y543055D02*
Y550675D01*
X-570050Y555170D02*
X-545000D01*
X-574545Y532635D02*
Y541525D01*
Y532635D02*
X-571680Y529770D01*
X-575310Y542290D02*
X-574545Y541525D01*
X-571680Y529770D02*
X-545000D01*
X-575130Y542470D02*
X-545000D01*
X-389890Y497840D02*
X-385840D01*
X-370840Y469390D02*
Y482840D01*
X-385840Y497840D02*
X-370840Y482840D01*
X-313690Y677190D02*
X-286740D01*
X-276810Y687120D01*
Y691920D01*
X-275310Y693420D01*
X-417830Y729260D02*
X-417550Y728980D01*
X-441200Y759970D02*
X-433350Y752120D01*
X-443230Y775970D02*
X-441200Y773940D01*
Y759970D02*
Y773940D01*
X-433350Y728980D02*
Y752120D01*
X-419115Y686805D02*
X-419100Y686790D01*
X-434952Y686820D02*
X-434937Y686805D01*
X-365760Y677190D02*
X-350520D01*
X-516130Y360330D02*
Y374140D01*
X-500660Y389610D01*
X-518320Y358140D02*
X-516130Y360330D01*
X-500660Y389610D02*
Y405130D01*
X-490730Y360330D02*
Y374140D01*
X-484860Y380010D01*
X-492920Y358140D02*
X-490730Y360330D01*
X-484860Y380010D02*
Y405130D01*
X-392430Y382270D02*
X-385090Y389610D01*
X-392430Y358140D02*
Y382270D01*
X-385090Y389610D02*
Y405130D01*
X-369290D02*
X-368160Y404000D01*
Y359270D02*
Y404000D01*
Y359270D02*
X-367030Y358140D01*
X-267970D02*
Y379730D01*
X-260630Y387070D01*
Y405130D01*
X-243700Y359270D02*
Y404000D01*
X-244830Y405130D02*
X-243700Y404000D01*
Y359270D02*
X-242570Y358140D01*
X2820Y387070D02*
X7620Y382270D01*
X2820Y387070D02*
Y403860D01*
X7620Y358140D02*
Y382270D01*
X-12980Y389610D02*
Y403860D01*
X-17780Y384810D02*
X-12980Y389610D01*
X-17780Y358140D02*
Y384810D01*
X-117970Y359270D02*
Y404000D01*
Y359270D02*
X-116840Y358140D01*
X-119100Y405130D02*
X-117970Y404000D01*
X-139178Y373901D02*
X-134900Y378180D01*
Y405130D01*
X-142240Y358140D02*
X-139178Y361202D01*
Y373901D01*
X-53060Y739420D02*
X-43180Y749300D01*
Y775970D01*
X-53060Y728980D02*
Y739420D01*
X-68720Y729120D02*
Y775830D01*
X-68580Y775970D01*
X-68860Y728980D02*
X-68720Y729120D01*
X-178790Y740690D02*
X-168910Y750570D01*
Y775970D01*
X-178790Y728980D02*
Y740690D01*
X-194590Y728980D02*
X-194450Y729120D01*
Y775830D01*
X-194310Y775970D01*
X-303250Y741960D02*
X-293370Y751840D01*
Y775970D01*
X-303250Y728980D02*
Y741960D01*
X-318910Y775830D02*
X-318770Y775970D01*
X-319050Y728980D02*
X-318910Y729120D01*
Y775830D01*
X-417830Y729260D02*
Y775970D01*
X-433350Y728980D02*
X-432575Y729755D01*
X-444005Y775195D02*
X-443230Y775970D01*
D76*
X-522150Y593270D02*
X-509450Y580570D01*
X-545000Y593270D02*
X-522150D01*
X-545000Y580570D02*
X-509450D01*
X-545000Y478970D02*
X-488950D01*
X-545000Y517070D02*
X-519430D01*
X-545000Y491670D02*
X-519430D01*
X-545000Y567870D02*
X-514170D01*
X-489890Y554660D02*
X-468630D01*
X-545000Y466270D02*
X-496570D01*
X-468630Y471660D02*
Y481660D01*
X-476130Y464160D02*
X-468630Y471660D01*
X-545000Y453570D02*
X-496570D01*
D77*
X15000Y533400D02*
D03*
Y508000D02*
D03*
Y482600D02*
D03*
X15240Y608330D02*
D03*
Y633730D02*
D03*
Y659130D02*
D03*
D78*
X15000Y457200D02*
D03*
X15240Y582930D02*
D03*
D79*
X-46990Y477520D02*
D03*
X-57150Y674370D02*
D03*
X-619760Y335280D02*
D03*
D80*
X-635000Y682320D02*
D03*
Y414020D02*
D03*
D81*
X-43180Y336540D02*
D03*
X-167640D02*
D03*
X-293370D02*
D03*
X-417830D02*
D03*
X-543720D02*
D03*
X-143510Y797570D02*
D03*
X-267970D02*
D03*
X-392430D02*
D03*
X-17780D02*
D03*
X-516890Y797290D02*
D03*
D82*
X-68580Y358140D02*
D03*
X-43180D02*
D03*
X-17780D02*
D03*
X7620D02*
D03*
X-193040D02*
D03*
X-167640D02*
D03*
X-142240D02*
D03*
X-116840D02*
D03*
X-242570D02*
D03*
X-267970D02*
D03*
X-293370D02*
D03*
X-318770D02*
D03*
X-443230D02*
D03*
X-417830D02*
D03*
X-392430D02*
D03*
X-367030D02*
D03*
X-492920D02*
D03*
X-518320D02*
D03*
X-543720D02*
D03*
X-569120D02*
D03*
X-194310Y775970D02*
D03*
X-168910D02*
D03*
X-143510D02*
D03*
X-118110D02*
D03*
X-242570D02*
D03*
X-267970D02*
D03*
X-293370D02*
D03*
X-318770D02*
D03*
X-443230D02*
D03*
X-417830D02*
D03*
X-392430D02*
D03*
X-367030D02*
D03*
X7620D02*
D03*
X-17780D02*
D03*
X-43180D02*
D03*
X-68580D02*
D03*
X-491490Y775690D02*
D03*
X-516890D02*
D03*
X-542290D02*
D03*
X-567690D02*
D03*
D83*
X-388620Y677190D02*
D03*
X-589280Y732790D02*
D03*
X-58420Y612140D02*
D03*
X-60960Y596900D02*
D03*
X-299720Y660400D02*
D03*
X-288290Y668020D02*
D03*
X-321310Y651510D02*
D03*
X-90170Y566420D02*
D03*
X-501250Y604070D02*
D03*
X-490220Y455930D02*
D03*
X-232410Y615950D02*
D03*
X-316230Y492760D02*
D03*
X-287020Y554798D02*
D03*
X-220980Y651510D02*
D03*
X-231140Y661670D02*
D03*
X-264160Y627380D02*
D03*
X-189230Y614680D02*
D03*
X-262890Y640080D02*
D03*
X-217170Y527685D02*
D03*
X-231140Y480060D02*
D03*
X-303530Y492760D02*
D03*
X-415570Y591713D02*
D03*
X-181610Y552450D02*
D03*
X-137160D02*
D03*
X-324104Y604520D02*
D03*
X-358140Y561340D02*
D03*
X-399770D02*
D03*
X-350520Y651510D02*
D03*
X-603250Y542290D02*
D03*
X-313602Y537421D02*
D03*
X-346710Y524510D02*
D03*
X-180340Y675640D02*
D03*
X-218440D02*
D03*
X-575310Y542290D02*
D03*
X-151130Y462280D02*
D03*
X-389890Y497840D02*
D03*
X-358140Y677190D02*
D03*
X-296766D02*
D03*
X-274320Y622300D02*
D03*
X-120650Y589280D02*
D03*
X-194310Y589599D02*
D03*
X-133350Y570230D02*
D03*
X-184150D02*
D03*
X-201930D02*
D03*
X-490220Y581330D02*
D03*
Y568630D02*
D03*
Y555930D02*
D03*
Y543230D02*
D03*
Y530530D02*
D03*
X-447040Y581990D02*
D03*
Y569290D02*
D03*
Y556590D02*
D03*
Y543890D02*
D03*
Y531190D02*
D03*
Y456590D02*
D03*
Y469290D02*
D03*
Y481990D02*
D03*
Y494690D02*
D03*
Y507390D02*
D03*
X-490220Y468630D02*
D03*
Y481330D02*
D03*
Y494030D02*
D03*
Y506730D02*
D03*
X-519430Y491670D02*
D03*
Y517070D02*
D03*
X-157890Y636270D02*
D03*
Y496160D02*
D03*
M02*
