G04*
G04 #@! TF.GenerationSoftware,Altium Limited,Altium Designer,23.3.1 (30)*
G04*
G04 Layer_Color=8388736*
%FSLAX44Y44*%
%MOMM*%
G71*
G04*
G04 #@! TF.SameCoordinates,3FD81306-C8D3-46B1-8163-1FBD848DCD1C*
G04*
G04*
G04 #@! TF.FilePolarity,Negative*
G04*
G01*
G75*
%ADD40R,0.9032X1.1032*%
%ADD41R,1.4332X2.2232*%
%ADD42R,1.1032X0.9032*%
%ADD43R,1.2032X1.5032*%
%ADD44R,1.8032X2.3032*%
%ADD45R,2.1032X2.0032*%
%ADD46R,1.5532X0.6032*%
%ADD47R,1.2532X0.8032*%
%ADD48R,3.7032X0.9032*%
%ADD49C,1.9000*%
%ADD50R,0.8450X0.1700*%
%ADD51R,0.1700X0.8450*%
%ADD52R,3.2004X3.2004*%
%ADD53R,1.6032X2.0032*%
%ADD54R,1.4032X1.4032*%
%ADD55R,2.3532X2.3532*%
G04:AMPARAMS|DCode=56|XSize=1.0032mm|YSize=0.5532mm|CornerRadius=0.2329mm|HoleSize=0mm|Usage=FLASHONLY|Rotation=0.000|XOffset=0mm|YOffset=0mm|HoleType=Round|Shape=RoundedRectangle|*
%AMROUNDEDRECTD56*
21,1,1.0032,0.0875,0,0,0.0*
21,1,0.5375,0.5532,0,0,0.0*
1,1,0.4657,0.2688,-0.0438*
1,1,0.4657,-0.2688,-0.0438*
1,1,0.4657,-0.2688,0.0438*
1,1,0.4657,0.2688,0.0438*
%
%ADD56ROUNDEDRECTD56*%
G04:AMPARAMS|DCode=57|XSize=1.0032mm|YSize=0.5532mm|CornerRadius=0.2329mm|HoleSize=0mm|Usage=FLASHONLY|Rotation=270.000|XOffset=0mm|YOffset=0mm|HoleType=Round|Shape=RoundedRectangle|*
%AMROUNDEDRECTD57*
21,1,1.0032,0.0875,0,0,270.0*
21,1,0.5375,0.5532,0,0,270.0*
1,1,0.4657,-0.0438,-0.2688*
1,1,0.4657,-0.0438,0.2688*
1,1,0.4657,0.0438,0.2688*
1,1,0.4657,0.0438,-0.2688*
%
%ADD57ROUNDEDRECTD57*%
%ADD58R,2.4032X5.0032*%
G04:AMPARAMS|DCode=59|XSize=1.2432mm|YSize=0.6432mm|CornerRadius=0.2556mm|HoleSize=0mm|Usage=FLASHONLY|Rotation=90.000|XOffset=0mm|YOffset=0mm|HoleType=Round|Shape=RoundedRectangle|*
%AMROUNDEDRECTD59*
21,1,1.2432,0.1320,0,0,90.0*
21,1,0.7320,0.6432,0,0,90.0*
1,1,0.5112,0.0660,0.3660*
1,1,0.5112,0.0660,-0.3660*
1,1,0.5112,-0.0660,-0.3660*
1,1,0.5112,-0.0660,0.3660*
%
%ADD59ROUNDEDRECTD59*%
%ADD60R,4.5032X3.6032*%
%ADD61R,1.0532X1.1532*%
%ADD62C,1.8532*%
%ADD63R,1.8532X1.8532*%
%ADD64C,4.2032*%
%ADD65C,1.7032*%
%ADD66C,1.6032*%
%ADD67C,2.2032*%
G36*
X170198Y380098D02*
X170302Y380091D01*
X170413Y380077D01*
X170545Y380064D01*
X170683Y380036D01*
X170822Y380008D01*
X170975Y379973D01*
X171127Y379932D01*
X171273Y379883D01*
X171418Y379821D01*
X171564Y379745D01*
X171696Y379668D01*
X171814Y379571D01*
X171821Y379564D01*
X171842Y379550D01*
X171869Y379516D01*
X171911Y379474D01*
X171959Y379426D01*
X172008Y379356D01*
X172063Y379280D01*
X172126Y379197D01*
X172181Y379100D01*
X172237Y378996D01*
X172292Y378878D01*
X172341Y378753D01*
X172389Y378621D01*
X172424Y378476D01*
X172445Y378323D01*
X172459Y378164D01*
X171169Y378115D01*
Y378122D01*
X171162Y378136D01*
Y378164D01*
X171155Y378191D01*
X171141Y378233D01*
X171127Y378282D01*
X171093Y378386D01*
X171044Y378496D01*
X170982Y378614D01*
X170905Y378725D01*
X170808Y378815D01*
X170795Y378822D01*
X170760Y378850D01*
X170697Y378885D01*
X170607Y378926D01*
X170489Y378968D01*
X170351Y379003D01*
X170184Y379030D01*
X169990Y379037D01*
X169900D01*
X169851Y379030D01*
X169796Y379023D01*
X169664Y379010D01*
X169526Y378982D01*
X169373Y378940D01*
X169234Y378878D01*
X169102Y378801D01*
X169096Y378795D01*
X169075Y378774D01*
X169040Y378739D01*
X169005Y378698D01*
X168964Y378642D01*
X168936Y378573D01*
X168908Y378496D01*
X168901Y378406D01*
Y378399D01*
Y378372D01*
X168908Y378323D01*
X168922Y378274D01*
X168950Y378212D01*
X168978Y378143D01*
X169026Y378080D01*
X169089Y378018D01*
X169102Y378011D01*
X169116Y377997D01*
X169144Y377983D01*
X169172Y377962D01*
X169214Y377942D01*
X169269Y377914D01*
X169331Y377886D01*
X169401Y377859D01*
X169484Y377824D01*
X169581Y377789D01*
X169692Y377755D01*
X169817Y377713D01*
X169955Y377671D01*
X170108Y377630D01*
X170274Y377588D01*
X170288D01*
X170316Y377581D01*
X170364Y377567D01*
X170427Y377553D01*
X170510Y377533D01*
X170593Y377505D01*
X170697Y377477D01*
X170801Y377449D01*
X171030Y377380D01*
X171259Y377304D01*
X171370Y377262D01*
X171481Y377220D01*
X171578Y377172D01*
X171668Y377130D01*
X171675D01*
X171689Y377117D01*
X171710Y377103D01*
X171744Y377089D01*
X171828Y377033D01*
X171932Y376964D01*
X172043Y376867D01*
X172160Y376756D01*
X172278Y376624D01*
X172382Y376479D01*
Y376472D01*
X172396Y376458D01*
X172403Y376437D01*
X172424Y376402D01*
X172445Y376361D01*
X172466Y376312D01*
X172486Y376257D01*
X172514Y376194D01*
X172535Y376125D01*
X172556Y376049D01*
X172597Y375875D01*
X172625Y375674D01*
X172639Y375459D01*
Y375452D01*
Y375438D01*
Y375404D01*
X172632Y375369D01*
Y375321D01*
X172625Y375258D01*
X172611Y375196D01*
X172597Y375126D01*
X172563Y374967D01*
X172507Y374794D01*
X172431Y374613D01*
X172382Y374516D01*
X172327Y374426D01*
Y374419D01*
X172313Y374405D01*
X172292Y374378D01*
X172271Y374350D01*
X172237Y374308D01*
X172202Y374260D01*
X172105Y374156D01*
X171980Y374045D01*
X171835Y373920D01*
X171661Y373809D01*
X171460Y373712D01*
X171453D01*
X171432Y373705D01*
X171405Y373691D01*
X171363Y373677D01*
X171308Y373656D01*
X171238Y373643D01*
X171162Y373622D01*
X171079Y373601D01*
X170982Y373573D01*
X170878Y373552D01*
X170760Y373539D01*
X170635Y373518D01*
X170510Y373504D01*
X170364Y373490D01*
X170219Y373483D01*
X170011D01*
X169949Y373490D01*
X169865D01*
X169768Y373497D01*
X169650Y373511D01*
X169519Y373531D01*
X169380Y373552D01*
X169227Y373580D01*
X169075Y373622D01*
X168922Y373663D01*
X168770Y373719D01*
X168617Y373781D01*
X168472Y373857D01*
X168333Y373941D01*
X168201Y374038D01*
X168194Y374045D01*
X168173Y374066D01*
X168139Y374100D01*
X168097Y374142D01*
X168048Y374204D01*
X167986Y374273D01*
X167924Y374357D01*
X167861Y374454D01*
X167792Y374565D01*
X167723Y374683D01*
X167660Y374821D01*
X167598Y374967D01*
X167542Y375126D01*
X167494Y375293D01*
X167452Y375480D01*
X167424Y375674D01*
X168680Y375799D01*
Y375792D01*
X168687Y375771D01*
X168693Y375737D01*
X168700Y375695D01*
X168714Y375639D01*
X168735Y375584D01*
X168777Y375445D01*
X168839Y375293D01*
X168922Y375133D01*
X169019Y374988D01*
X169075Y374925D01*
X169137Y374863D01*
X169144D01*
X169151Y374849D01*
X169172Y374835D01*
X169200Y374814D01*
X169234Y374794D01*
X169283Y374773D01*
X169331Y374745D01*
X169387Y374717D01*
X169526Y374662D01*
X169685Y374620D01*
X169872Y374585D01*
X170080Y374572D01*
X170143D01*
X170184Y374579D01*
X170240D01*
X170295Y374585D01*
X170434Y374606D01*
X170586Y374634D01*
X170746Y374683D01*
X170898Y374745D01*
X170968Y374787D01*
X171030Y374835D01*
X171037D01*
X171044Y374849D01*
X171079Y374884D01*
X171134Y374939D01*
X171190Y375009D01*
X171245Y375099D01*
X171301Y375210D01*
X171335Y375327D01*
X171349Y375390D01*
Y375452D01*
Y375459D01*
Y375494D01*
X171342Y375536D01*
X171335Y375584D01*
X171315Y375647D01*
X171294Y375716D01*
X171259Y375778D01*
X171210Y375841D01*
X171204Y375848D01*
X171183Y375868D01*
X171148Y375896D01*
X171106Y375938D01*
X171037Y375979D01*
X170961Y376028D01*
X170864Y376069D01*
X170746Y376118D01*
X170732Y376125D01*
X170718D01*
X170697Y376132D01*
X170670Y376139D01*
X170628Y376153D01*
X170586Y376166D01*
X170531Y376180D01*
X170469Y376201D01*
X170392Y376222D01*
X170309Y376243D01*
X170212Y376270D01*
X170108Y376298D01*
X169990Y376326D01*
X169858Y376361D01*
X169713Y376395D01*
X169699D01*
X169664Y376409D01*
X169616Y376423D01*
X169546Y376444D01*
X169456Y376465D01*
X169359Y376499D01*
X169255Y376534D01*
X169144Y376569D01*
X168901Y376666D01*
X168659Y376770D01*
X168548Y376832D01*
X168437Y376895D01*
X168340Y376957D01*
X168256Y377026D01*
X168250Y377033D01*
X168229Y377054D01*
X168201Y377082D01*
X168166Y377123D01*
X168118Y377172D01*
X168069Y377234D01*
X168014Y377304D01*
X167965Y377387D01*
X167910Y377477D01*
X167854Y377574D01*
X167806Y377685D01*
X167757Y377796D01*
X167723Y377914D01*
X167695Y378046D01*
X167674Y378177D01*
X167667Y378316D01*
Y378323D01*
Y378337D01*
Y378365D01*
X167674Y378399D01*
Y378441D01*
X167681Y378496D01*
X167702Y378614D01*
X167736Y378753D01*
X167785Y378913D01*
X167854Y379072D01*
X167945Y379231D01*
Y379238D01*
X167958Y379252D01*
X167972Y379273D01*
X167993Y379301D01*
X168062Y379377D01*
X168146Y379474D01*
X168263Y379578D01*
X168395Y379682D01*
X168562Y379786D01*
X168742Y379876D01*
X168749D01*
X168763Y379883D01*
X168797Y379897D01*
X168832Y379911D01*
X168888Y379932D01*
X168943Y379946D01*
X169012Y379967D01*
X169096Y379994D01*
X169186Y380015D01*
X169276Y380036D01*
X169380Y380050D01*
X169491Y380070D01*
X169616Y380084D01*
X169734Y380098D01*
X170004Y380105D01*
X170122D01*
X170198Y380098D01*
D02*
G37*
G36*
X185904Y373601D02*
X184767D01*
Y374273D01*
X184753Y374260D01*
X184739Y374239D01*
X184718Y374218D01*
X184656Y374142D01*
X184580Y374058D01*
X184476Y373961D01*
X184365Y373857D01*
X184233Y373767D01*
X184094Y373684D01*
X184087D01*
X184080Y373677D01*
X184053Y373670D01*
X184025Y373656D01*
X183949Y373622D01*
X183852Y373594D01*
X183734Y373559D01*
X183602Y373525D01*
X183463Y373504D01*
X183318Y373497D01*
X183283D01*
X183241Y373504D01*
X183186D01*
X183116Y373518D01*
X183033Y373531D01*
X182943Y373552D01*
X182846Y373580D01*
X182742Y373608D01*
X182631Y373649D01*
X182520Y373705D01*
X182402Y373767D01*
X182291Y373837D01*
X182174Y373927D01*
X182062Y374024D01*
X181952Y374135D01*
X181945Y374142D01*
X181931Y374162D01*
X181896Y374204D01*
X181861Y374253D01*
X181820Y374322D01*
X181771Y374398D01*
X181723Y374495D01*
X181667Y374599D01*
X181612Y374724D01*
X181563Y374856D01*
X181515Y375009D01*
X181473Y375168D01*
X181438Y375341D01*
X181411Y375529D01*
X181390Y375730D01*
X181383Y375938D01*
Y375952D01*
Y375993D01*
X181390Y376049D01*
Y376132D01*
X181397Y376229D01*
X181411Y376340D01*
X181432Y376472D01*
X181452Y376603D01*
X181480Y376749D01*
X181515Y376895D01*
X181563Y377040D01*
X181612Y377193D01*
X181674Y377338D01*
X181751Y377477D01*
X181834Y377609D01*
X181931Y377727D01*
X181938Y377734D01*
X181959Y377755D01*
X181986Y377782D01*
X182028Y377824D01*
X182083Y377872D01*
X182153Y377921D01*
X182229Y377976D01*
X182312Y378039D01*
X182409Y378094D01*
X182520Y378150D01*
X182631Y378198D01*
X182756Y378247D01*
X182888Y378288D01*
X183026Y378316D01*
X183179Y378337D01*
X183332Y378344D01*
X183366D01*
X183408Y378337D01*
X183463D01*
X183533Y378323D01*
X183609Y378309D01*
X183692Y378288D01*
X183789Y378261D01*
X183893Y378226D01*
X184004Y378184D01*
X184115Y378129D01*
X184226Y378066D01*
X184344Y377997D01*
X184455Y377907D01*
X184566Y377810D01*
X184677Y377692D01*
Y380001D01*
X185904D01*
Y373601D01*
D02*
G37*
G36*
X194336Y378337D02*
X194378Y378330D01*
X194482Y378316D01*
X194606Y378288D01*
X194745Y378247D01*
X194891Y378184D01*
X195036Y378108D01*
X194655Y377040D01*
X194641Y377047D01*
X194600Y377075D01*
X194544Y377103D01*
X194468Y377144D01*
X194378Y377179D01*
X194281Y377214D01*
X194184Y377234D01*
X194079Y377241D01*
X194038D01*
X193989Y377234D01*
X193927Y377220D01*
X193858Y377207D01*
X193788Y377179D01*
X193712Y377144D01*
X193643Y377096D01*
X193636Y377089D01*
X193615Y377068D01*
X193580Y377033D01*
X193539Y376978D01*
X193497Y376908D01*
X193449Y376818D01*
X193400Y376714D01*
X193358Y376583D01*
Y376576D01*
X193351Y376562D01*
Y376541D01*
X193344Y376506D01*
X193337Y376465D01*
X193331Y376402D01*
X193317Y376333D01*
X193310Y376250D01*
X193303Y376153D01*
X193289Y376042D01*
X193282Y375917D01*
X193275Y375771D01*
X193268Y375612D01*
Y375438D01*
X193261Y375244D01*
Y375029D01*
Y373601D01*
X192034D01*
Y378240D01*
X193171D01*
Y377574D01*
X193178Y377581D01*
X193185Y377595D01*
X193199Y377616D01*
X193220Y377650D01*
X193275Y377734D01*
X193344Y377831D01*
X193428Y377935D01*
X193511Y378032D01*
X193601Y378122D01*
X193650Y378164D01*
X193691Y378191D01*
X193705Y378198D01*
X193733Y378212D01*
X193781Y378240D01*
X193844Y378268D01*
X193927Y378295D01*
X194017Y378323D01*
X194114Y378337D01*
X194225Y378344D01*
X194294D01*
X194336Y378337D01*
D02*
G37*
G36*
X162439D02*
X162501D01*
X162570Y378323D01*
X162647Y378309D01*
X162737Y378288D01*
X162841Y378268D01*
X162945Y378233D01*
X163056Y378191D01*
X163167Y378136D01*
X163285Y378073D01*
X163403Y378004D01*
X163514Y377914D01*
X163624Y377817D01*
X163735Y377706D01*
X163742Y377699D01*
X163763Y377678D01*
X163791Y377644D01*
X163826Y377588D01*
X163867Y377526D01*
X163916Y377449D01*
X163964Y377352D01*
X164020Y377248D01*
X164075Y377130D01*
X164124Y376999D01*
X164172Y376853D01*
X164214Y376693D01*
X164249Y376527D01*
X164283Y376347D01*
X164297Y376153D01*
X164304Y375945D01*
Y375931D01*
Y375896D01*
X164297Y375834D01*
Y375751D01*
X164290Y375653D01*
X164276Y375542D01*
X164256Y375418D01*
X164235Y375279D01*
X164200Y375140D01*
X164165Y374988D01*
X164117Y374842D01*
X164061Y374689D01*
X163999Y374544D01*
X163923Y374398D01*
X163832Y374260D01*
X163735Y374135D01*
X163729Y374128D01*
X163708Y374107D01*
X163680Y374079D01*
X163631Y374038D01*
X163576Y373989D01*
X163514Y373934D01*
X163437Y373878D01*
X163347Y373816D01*
X163257Y373753D01*
X163146Y373698D01*
X163035Y373643D01*
X162910Y373594D01*
X162785Y373559D01*
X162647Y373525D01*
X162508Y373504D01*
X162355Y373497D01*
X162293D01*
X162217Y373504D01*
X162120Y373518D01*
X162016Y373531D01*
X161898Y373559D01*
X161773Y373601D01*
X161655Y373649D01*
X161641Y373656D01*
X161600Y373677D01*
X161537Y373719D01*
X161454Y373774D01*
X161357Y373844D01*
X161246Y373934D01*
X161128Y374045D01*
X161003Y374170D01*
Y371840D01*
X159776D01*
Y378240D01*
X160920D01*
Y377560D01*
X160934Y377567D01*
X160962Y377609D01*
X161010Y377678D01*
X161080Y377755D01*
X161163Y377845D01*
X161267Y377942D01*
X161385Y378039D01*
X161516Y378122D01*
X161523D01*
X161537Y378129D01*
X161558Y378143D01*
X161586Y378157D01*
X161621Y378171D01*
X161662Y378191D01*
X161766Y378233D01*
X161891Y378274D01*
X162037Y378309D01*
X162196Y378337D01*
X162362Y378344D01*
X162397D01*
X162439Y378337D01*
D02*
G37*
G36*
X180405Y373601D02*
X179178D01*
Y380001D01*
X180405D01*
Y373601D01*
D02*
G37*
G36*
X153535Y378919D02*
X151649D01*
Y373601D01*
X150359D01*
Y378919D01*
X148459D01*
Y380001D01*
X153535D01*
Y378919D01*
D02*
G37*
G36*
X188976Y378337D02*
X189052Y378330D01*
X189135Y378323D01*
X189239Y378309D01*
X189350Y378288D01*
X189468Y378261D01*
X189600Y378219D01*
X189732Y378177D01*
X189863Y378122D01*
X190002Y378053D01*
X190134Y377976D01*
X190266Y377886D01*
X190390Y377775D01*
X190508Y377657D01*
X190515Y377650D01*
X190536Y377623D01*
X190564Y377588D01*
X190599Y377533D01*
X190647Y377456D01*
X190696Y377366D01*
X190751Y377262D01*
X190807Y377144D01*
X190862Y377006D01*
X190911Y376846D01*
X190959Y376680D01*
X191001Y376492D01*
X191035Y376284D01*
X191063Y376063D01*
X191084Y375827D01*
Y375570D01*
X188012D01*
Y375563D01*
Y375549D01*
Y375515D01*
X188019Y375480D01*
X188026Y375432D01*
X188033Y375376D01*
X188054Y375258D01*
X188088Y375120D01*
X188137Y374974D01*
X188206Y374835D01*
X188303Y374710D01*
X188310D01*
X188317Y374697D01*
X188352Y374662D01*
X188414Y374613D01*
X188498Y374565D01*
X188601Y374509D01*
X188726Y374461D01*
X188865Y374426D01*
X188941Y374419D01*
X189018Y374412D01*
X189066D01*
X189115Y374419D01*
X189184Y374433D01*
X189260Y374447D01*
X189336Y374475D01*
X189420Y374516D01*
X189496Y374565D01*
X189503Y374572D01*
X189531Y374593D01*
X189565Y374634D01*
X189607Y374689D01*
X189662Y374759D01*
X189711Y374849D01*
X189760Y374953D01*
X189801Y375078D01*
X191021Y374870D01*
Y374863D01*
X191008Y374842D01*
X190994Y374807D01*
X190980Y374759D01*
X190952Y374703D01*
X190917Y374641D01*
X190883Y374565D01*
X190841Y374488D01*
X190737Y374322D01*
X190606Y374156D01*
X190453Y373989D01*
X190363Y373913D01*
X190273Y373844D01*
X190266Y373837D01*
X190252Y373830D01*
X190224Y373809D01*
X190182Y373788D01*
X190134Y373760D01*
X190072Y373733D01*
X190002Y373705D01*
X189926Y373670D01*
X189836Y373635D01*
X189739Y373608D01*
X189635Y373580D01*
X189524Y373552D01*
X189406Y373531D01*
X189274Y373511D01*
X189142Y373504D01*
X189004Y373497D01*
X188948D01*
X188886Y373504D01*
X188803Y373511D01*
X188706Y373518D01*
X188588Y373539D01*
X188463Y373559D01*
X188324Y373594D01*
X188179Y373635D01*
X188033Y373691D01*
X187887Y373753D01*
X187735Y373830D01*
X187596Y373920D01*
X187457Y374024D01*
X187332Y374142D01*
X187215Y374280D01*
X187208Y374287D01*
X187194Y374308D01*
X187173Y374343D01*
X187145Y374398D01*
X187111Y374461D01*
X187069Y374530D01*
X187027Y374620D01*
X186986Y374717D01*
X186944Y374828D01*
X186903Y374953D01*
X186861Y375085D01*
X186826Y375224D01*
X186799Y375376D01*
X186778Y375536D01*
X186764Y375709D01*
X186757Y375882D01*
Y375896D01*
Y375931D01*
X186764Y375993D01*
Y376069D01*
X186778Y376166D01*
X186792Y376284D01*
X186805Y376402D01*
X186833Y376541D01*
X186861Y376680D01*
X186903Y376825D01*
X186951Y376978D01*
X187007Y377130D01*
X187076Y377276D01*
X187159Y377422D01*
X187249Y377560D01*
X187353Y377685D01*
X187360Y377692D01*
X187381Y377713D01*
X187416Y377747D01*
X187464Y377789D01*
X187520Y377838D01*
X187596Y377893D01*
X187679Y377956D01*
X187769Y378018D01*
X187873Y378073D01*
X187991Y378136D01*
X188116Y378191D01*
X188255Y378240D01*
X188393Y378282D01*
X188546Y378316D01*
X188712Y378337D01*
X188879Y378344D01*
X188927D01*
X188976Y378337D01*
D02*
G37*
G36*
X175919D02*
X175988Y378330D01*
X176078Y378323D01*
X176182Y378309D01*
X176300Y378288D01*
X176425Y378261D01*
X176557Y378219D01*
X176695Y378177D01*
X176841Y378122D01*
X176980Y378053D01*
X177125Y377976D01*
X177271Y377886D01*
X177403Y377775D01*
X177535Y377657D01*
X177541Y377650D01*
X177562Y377623D01*
X177597Y377588D01*
X177638Y377533D01*
X177694Y377463D01*
X177750Y377387D01*
X177805Y377290D01*
X177874Y377186D01*
X177937Y377068D01*
X177992Y376936D01*
X178055Y376791D01*
X178103Y376638D01*
X178145Y376479D01*
X178179Y376305D01*
X178200Y376125D01*
X178207Y375931D01*
Y375917D01*
Y375882D01*
X178200Y375827D01*
Y375757D01*
X178186Y375667D01*
X178172Y375563D01*
X178152Y375445D01*
X178124Y375321D01*
X178089Y375182D01*
X178041Y375043D01*
X177985Y374898D01*
X177923Y374752D01*
X177840Y374599D01*
X177750Y374461D01*
X177645Y374315D01*
X177528Y374183D01*
X177521Y374176D01*
X177500Y374156D01*
X177458Y374121D01*
X177403Y374079D01*
X177340Y374024D01*
X177257Y373968D01*
X177167Y373906D01*
X177063Y373844D01*
X176945Y373774D01*
X176813Y373712D01*
X176675Y373656D01*
X176522Y373608D01*
X176363Y373559D01*
X176189Y373525D01*
X176009Y373504D01*
X175822Y373497D01*
X175759D01*
X175711Y373504D01*
X175655D01*
X175593Y373511D01*
X175517Y373518D01*
X175433Y373531D01*
X175246Y373566D01*
X175038Y373615D01*
X174823Y373684D01*
X174608Y373781D01*
X174601Y373788D01*
X174580Y373795D01*
X174553Y373809D01*
X174511Y373837D01*
X174463Y373864D01*
X174414Y373906D01*
X174282Y373996D01*
X174144Y374114D01*
X173998Y374260D01*
X173859Y374433D01*
X173735Y374627D01*
Y374634D01*
X173721Y374655D01*
X173707Y374683D01*
X173686Y374724D01*
X173665Y374780D01*
X173638Y374842D01*
X173617Y374918D01*
X173589Y375002D01*
X173561Y375099D01*
X173533Y375203D01*
X173506Y375314D01*
X173485Y375432D01*
X173464Y375556D01*
X173450Y375695D01*
X173443Y375834D01*
X173436Y375979D01*
Y375986D01*
Y376007D01*
Y376042D01*
X173443Y376083D01*
Y376139D01*
X173450Y376208D01*
X173464Y376278D01*
X173471Y376361D01*
X173513Y376541D01*
X173561Y376742D01*
X173638Y376950D01*
X173679Y377061D01*
X173735Y377165D01*
X173741Y377172D01*
X173748Y377193D01*
X173769Y377220D01*
X173790Y377262D01*
X173818Y377311D01*
X173859Y377366D01*
X173950Y377491D01*
X174074Y377630D01*
X174220Y377775D01*
X174386Y377914D01*
X174580Y378039D01*
X174587Y378046D01*
X174608Y378053D01*
X174636Y378066D01*
X174678Y378087D01*
X174733Y378108D01*
X174795Y378136D01*
X174865Y378164D01*
X174941Y378191D01*
X175031Y378219D01*
X175128Y378247D01*
X175336Y378295D01*
X175565Y378330D01*
X175690Y378344D01*
X175863D01*
X175919Y378337D01*
D02*
G37*
G36*
X156559D02*
X156628Y378330D01*
X156718Y378323D01*
X156822Y378309D01*
X156940Y378288D01*
X157065Y378261D01*
X157197Y378219D01*
X157335Y378177D01*
X157481Y378122D01*
X157619Y378053D01*
X157765Y377976D01*
X157911Y377886D01*
X158042Y377775D01*
X158174Y377657D01*
X158181Y377650D01*
X158202Y377623D01*
X158237Y377588D01*
X158278Y377533D01*
X158334Y377463D01*
X158389Y377387D01*
X158445Y377290D01*
X158514Y377186D01*
X158576Y377068D01*
X158632Y376936D01*
X158694Y376791D01*
X158743Y376638D01*
X158784Y376479D01*
X158819Y376305D01*
X158840Y376125D01*
X158847Y375931D01*
Y375917D01*
Y375882D01*
X158840Y375827D01*
Y375757D01*
X158826Y375667D01*
X158812Y375563D01*
X158791Y375445D01*
X158764Y375321D01*
X158729Y375182D01*
X158680Y375043D01*
X158625Y374898D01*
X158562Y374752D01*
X158479Y374599D01*
X158389Y374461D01*
X158285Y374315D01*
X158167Y374183D01*
X158160Y374176D01*
X158139Y374156D01*
X158098Y374121D01*
X158042Y374079D01*
X157980Y374024D01*
X157897Y373968D01*
X157807Y373906D01*
X157703Y373844D01*
X157585Y373774D01*
X157453Y373712D01*
X157314Y373656D01*
X157162Y373608D01*
X157002Y373559D01*
X156829Y373525D01*
X156649Y373504D01*
X156461Y373497D01*
X156399D01*
X156350Y373504D01*
X156295D01*
X156233Y373511D01*
X156156Y373518D01*
X156073Y373531D01*
X155886Y373566D01*
X155678Y373615D01*
X155463Y373684D01*
X155248Y373781D01*
X155241Y373788D01*
X155220Y373795D01*
X155192Y373809D01*
X155151Y373837D01*
X155102Y373864D01*
X155054Y373906D01*
X154922Y373996D01*
X154783Y374114D01*
X154638Y374260D01*
X154499Y374433D01*
X154374Y374627D01*
Y374634D01*
X154360Y374655D01*
X154347Y374683D01*
X154326Y374724D01*
X154305Y374780D01*
X154277Y374842D01*
X154256Y374918D01*
X154229Y375002D01*
X154201Y375099D01*
X154173Y375203D01*
X154145Y375314D01*
X154125Y375432D01*
X154104Y375556D01*
X154090Y375695D01*
X154083Y375834D01*
X154076Y375979D01*
Y375986D01*
Y376007D01*
Y376042D01*
X154083Y376083D01*
Y376139D01*
X154090Y376208D01*
X154104Y376278D01*
X154111Y376361D01*
X154152Y376541D01*
X154201Y376742D01*
X154277Y376950D01*
X154319Y377061D01*
X154374Y377165D01*
X154381Y377172D01*
X154388Y377193D01*
X154409Y377220D01*
X154430Y377262D01*
X154458Y377311D01*
X154499Y377366D01*
X154589Y377491D01*
X154714Y377630D01*
X154860Y377775D01*
X155026Y377914D01*
X155220Y378039D01*
X155227Y378046D01*
X155248Y378053D01*
X155276Y378066D01*
X155317Y378087D01*
X155373Y378108D01*
X155435Y378136D01*
X155505Y378164D01*
X155581Y378191D01*
X155671Y378219D01*
X155768Y378247D01*
X155976Y378295D01*
X156205Y378330D01*
X156330Y378344D01*
X156503D01*
X156559Y378337D01*
D02*
G37*
%LPC*%
G36*
X183657Y377408D02*
X183616D01*
X183588Y377401D01*
X183505Y377387D01*
X183401Y377366D01*
X183290Y377324D01*
X183165Y377262D01*
X183103Y377220D01*
X183047Y377172D01*
X182985Y377117D01*
X182929Y377054D01*
Y377047D01*
X182915Y377040D01*
X182902Y377019D01*
X182881Y376992D01*
X182860Y376950D01*
X182839Y376908D01*
X182811Y376853D01*
X182784Y376797D01*
X182756Y376728D01*
X182728Y376652D01*
X182707Y376562D01*
X182687Y376472D01*
X182666Y376375D01*
X182652Y376264D01*
X182645Y376146D01*
X182638Y376021D01*
Y376014D01*
Y375986D01*
Y375952D01*
Y375903D01*
X182645Y375841D01*
X182652Y375771D01*
Y375688D01*
X182666Y375612D01*
X182687Y375432D01*
X182721Y375258D01*
X182770Y375085D01*
X182805Y375015D01*
X182839Y374946D01*
X182846Y374939D01*
X182853Y374925D01*
X182874Y374905D01*
X182895Y374870D01*
X182964Y374794D01*
X183054Y374710D01*
X183172Y374620D01*
X183311Y374544D01*
X183394Y374509D01*
X183477Y374488D01*
X183567Y374475D01*
X183664Y374468D01*
X183706D01*
X183734Y374475D01*
X183817Y374488D01*
X183914Y374509D01*
X184025Y374551D01*
X184150Y374620D01*
X184205Y374655D01*
X184268Y374703D01*
X184330Y374759D01*
X184386Y374821D01*
X184392Y374828D01*
X184399Y374835D01*
X184413Y374863D01*
X184434Y374891D01*
X184455Y374925D01*
X184483Y374974D01*
X184510Y375029D01*
X184538Y375092D01*
X184566Y375161D01*
X184587Y375244D01*
X184614Y375334D01*
X184635Y375432D01*
X184656Y375536D01*
X184670Y375647D01*
X184684Y375771D01*
Y375903D01*
Y375910D01*
Y375938D01*
Y375979D01*
X184677Y376035D01*
Y376097D01*
X184670Y376174D01*
X184663Y376257D01*
X184649Y376347D01*
X184614Y376534D01*
X184559Y376728D01*
X184489Y376902D01*
X184441Y376985D01*
X184392Y377054D01*
Y377061D01*
X184379Y377068D01*
X184344Y377110D01*
X184282Y377165D01*
X184191Y377234D01*
X184087Y377297D01*
X183962Y377352D01*
X183817Y377394D01*
X183741Y377401D01*
X183657Y377408D01*
D02*
G37*
G36*
X162023Y377373D02*
X161981D01*
X161946Y377366D01*
X161912Y377359D01*
X161863Y377352D01*
X161759Y377332D01*
X161641Y377290D01*
X161516Y377228D01*
X161454Y377186D01*
X161392Y377137D01*
X161329Y377082D01*
X161274Y377019D01*
Y377012D01*
X161260Y377006D01*
X161246Y376985D01*
X161225Y376957D01*
X161204Y376915D01*
X161184Y376874D01*
X161156Y376818D01*
X161128Y376763D01*
X161100Y376693D01*
X161073Y376617D01*
X161052Y376534D01*
X161031Y376444D01*
X161010Y376340D01*
X160996Y376236D01*
X160989Y376118D01*
X160983Y375993D01*
Y375986D01*
Y375959D01*
Y375917D01*
X160989Y375868D01*
Y375799D01*
X160996Y375723D01*
X161010Y375647D01*
X161024Y375556D01*
X161059Y375369D01*
X161114Y375175D01*
X161191Y374995D01*
X161232Y374911D01*
X161288Y374835D01*
X161295Y374828D01*
X161301Y374821D01*
X161343Y374780D01*
X161413Y374717D01*
X161503Y374655D01*
X161614Y374585D01*
X161738Y374523D01*
X161891Y374482D01*
X161967Y374475D01*
X162050Y374468D01*
X162092D01*
X162120Y374475D01*
X162196Y374488D01*
X162300Y374509D01*
X162411Y374551D01*
X162529Y374613D01*
X162584Y374648D01*
X162647Y374697D01*
X162702Y374745D01*
X162758Y374807D01*
X162765Y374814D01*
X162772Y374821D01*
X162785Y374842D01*
X162806Y374870D01*
X162827Y374911D01*
X162848Y374953D01*
X162876Y375009D01*
X162903Y375078D01*
X162931Y375147D01*
X162959Y375230D01*
X162980Y375321D01*
X163000Y375425D01*
X163021Y375536D01*
X163035Y375660D01*
X163049Y375792D01*
Y375931D01*
Y375938D01*
Y375965D01*
Y376000D01*
X163042Y376049D01*
Y376111D01*
X163035Y376180D01*
X163021Y376257D01*
X163014Y376340D01*
X162980Y376513D01*
X162924Y376693D01*
X162848Y376867D01*
X162806Y376943D01*
X162751Y377012D01*
Y377019D01*
X162737Y377026D01*
X162695Y377068D01*
X162633Y377123D01*
X162550Y377193D01*
X162446Y377262D01*
X162321Y377318D01*
X162182Y377359D01*
X162106Y377366D01*
X162023Y377373D01*
D02*
G37*
G36*
X188948Y377408D02*
X188907D01*
X188879Y377401D01*
X188810Y377394D01*
X188712Y377373D01*
X188608Y377338D01*
X188498Y377283D01*
X188393Y377207D01*
X188338Y377165D01*
X188289Y377110D01*
X188276Y377096D01*
X188248Y377054D01*
X188206Y376992D01*
X188158Y376902D01*
X188109Y376791D01*
X188067Y376652D01*
X188040Y376499D01*
X188033Y376319D01*
X189863D01*
Y376326D01*
Y376340D01*
Y376368D01*
X189857Y376409D01*
X189850Y376451D01*
X189843Y376499D01*
X189822Y376617D01*
X189787Y376749D01*
X189739Y376881D01*
X189676Y377012D01*
X189586Y377123D01*
X189572Y377137D01*
X189538Y377165D01*
X189482Y377214D01*
X189406Y377269D01*
X189316Y377318D01*
X189205Y377366D01*
X189080Y377394D01*
X188948Y377408D01*
D02*
G37*
G36*
X175815Y377345D02*
X175766D01*
X175739Y377338D01*
X175697Y377332D01*
X175648Y377324D01*
X175537Y377297D01*
X175406Y377255D01*
X175274Y377193D01*
X175205Y377151D01*
X175142Y377103D01*
X175073Y377040D01*
X175010Y376978D01*
Y376971D01*
X174997Y376964D01*
X174983Y376936D01*
X174962Y376908D01*
X174934Y376874D01*
X174906Y376825D01*
X174879Y376770D01*
X174851Y376707D01*
X174823Y376638D01*
X174795Y376555D01*
X174768Y376472D01*
X174740Y376375D01*
X174719Y376270D01*
X174705Y376160D01*
X174698Y376042D01*
X174692Y375917D01*
Y375910D01*
Y375889D01*
Y375848D01*
X174698Y375806D01*
Y375743D01*
X174705Y375681D01*
X174719Y375605D01*
X174733Y375522D01*
X174768Y375355D01*
X174823Y375175D01*
X174906Y375009D01*
X174955Y374925D01*
X175010Y374856D01*
X175017Y374849D01*
X175024Y374842D01*
X175045Y374821D01*
X175066Y374800D01*
X175142Y374745D01*
X175232Y374676D01*
X175350Y374606D01*
X175489Y374551D01*
X175641Y374509D01*
X175725Y374502D01*
X175815Y374495D01*
X175863D01*
X175898Y374502D01*
X175933Y374509D01*
X175981Y374516D01*
X176092Y374544D01*
X176224Y374585D01*
X176356Y374648D01*
X176425Y374689D01*
X176494Y374738D01*
X176557Y374794D01*
X176619Y374856D01*
X176626Y374863D01*
X176633Y374877D01*
X176647Y374898D01*
X176668Y374925D01*
X176695Y374960D01*
X176723Y375009D01*
X176751Y375064D01*
X176786Y375126D01*
X176813Y375196D01*
X176841Y375279D01*
X176869Y375369D01*
X176896Y375459D01*
X176917Y375563D01*
X176931Y375674D01*
X176945Y375799D01*
Y375924D01*
Y375931D01*
Y375952D01*
Y375993D01*
X176938Y376035D01*
Y376097D01*
X176931Y376160D01*
X176917Y376236D01*
X176903Y376312D01*
X176869Y376485D01*
X176806Y376659D01*
X176730Y376825D01*
X176675Y376908D01*
X176619Y376978D01*
X176612Y376985D01*
X176605Y376992D01*
X176584Y377012D01*
X176564Y377033D01*
X176494Y377096D01*
X176397Y377165D01*
X176279Y377228D01*
X176141Y377290D01*
X175988Y377332D01*
X175905Y377338D01*
X175815Y377345D01*
D02*
G37*
G36*
X156454D02*
X156406D01*
X156378Y377338D01*
X156337Y377332D01*
X156288Y377324D01*
X156177Y377297D01*
X156045Y377255D01*
X155914Y377193D01*
X155844Y377151D01*
X155782Y377103D01*
X155713Y377040D01*
X155650Y376978D01*
Y376971D01*
X155636Y376964D01*
X155622Y376936D01*
X155602Y376908D01*
X155574Y376874D01*
X155546Y376825D01*
X155518Y376770D01*
X155491Y376707D01*
X155463Y376638D01*
X155435Y376555D01*
X155407Y376472D01*
X155380Y376375D01*
X155359Y376270D01*
X155345Y376160D01*
X155338Y376042D01*
X155331Y375917D01*
Y375910D01*
Y375889D01*
Y375848D01*
X155338Y375806D01*
Y375743D01*
X155345Y375681D01*
X155359Y375605D01*
X155373Y375522D01*
X155407Y375355D01*
X155463Y375175D01*
X155546Y375009D01*
X155595Y374925D01*
X155650Y374856D01*
X155657Y374849D01*
X155664Y374842D01*
X155685Y374821D01*
X155706Y374800D01*
X155782Y374745D01*
X155872Y374676D01*
X155990Y374606D01*
X156129Y374551D01*
X156281Y374509D01*
X156364Y374502D01*
X156454Y374495D01*
X156503D01*
X156538Y374502D01*
X156572Y374509D01*
X156621Y374516D01*
X156732Y374544D01*
X156864Y374585D01*
X156995Y374648D01*
X157065Y374689D01*
X157134Y374738D01*
X157197Y374794D01*
X157259Y374856D01*
X157266Y374863D01*
X157273Y374877D01*
X157287Y374898D01*
X157307Y374925D01*
X157335Y374960D01*
X157363Y375009D01*
X157391Y375064D01*
X157425Y375126D01*
X157453Y375196D01*
X157481Y375279D01*
X157508Y375369D01*
X157536Y375459D01*
X157557Y375563D01*
X157571Y375674D01*
X157585Y375799D01*
Y375924D01*
Y375931D01*
Y375952D01*
Y375993D01*
X157578Y376035D01*
Y376097D01*
X157571Y376160D01*
X157557Y376236D01*
X157543Y376312D01*
X157508Y376485D01*
X157446Y376659D01*
X157370Y376825D01*
X157314Y376908D01*
X157259Y376978D01*
X157252Y376985D01*
X157245Y376992D01*
X157224Y377012D01*
X157203Y377033D01*
X157134Y377096D01*
X157037Y377165D01*
X156919Y377228D01*
X156780Y377290D01*
X156628Y377332D01*
X156545Y377338D01*
X156454Y377345D01*
D02*
G37*
%LPD*%
D40*
X-70840Y612140D02*
D03*
X-86640D02*
D03*
X-70840Y596900D02*
D03*
X-86640D02*
D03*
X-70840Y582930D02*
D03*
X-86640D02*
D03*
X-465100Y703580D02*
D03*
X-449300D02*
D03*
X-465100Y728980D02*
D03*
X-449300D02*
D03*
X-485450Y611560D02*
D03*
X-501250D02*
D03*
X-485450Y596580D02*
D03*
X-501250D02*
D03*
X-231922Y639105D02*
D03*
X-247722D02*
D03*
X-247722Y608625D02*
D03*
X-231922D02*
D03*
Y593386D02*
D03*
X-247722D02*
D03*
X-105130Y565150D02*
D03*
X-120930D02*
D03*
X-484860Y405130D02*
D03*
X-500660D02*
D03*
X-369290D02*
D03*
X-385090D02*
D03*
X-244830D02*
D03*
X-260630D02*
D03*
X-119100D02*
D03*
X-134900D02*
D03*
X2820Y403860D02*
D03*
X-12980D02*
D03*
X-68860Y728980D02*
D03*
X-53060D02*
D03*
X-194590D02*
D03*
X-178790D02*
D03*
X-319050D02*
D03*
X-303250D02*
D03*
X-433350D02*
D03*
X-417550D02*
D03*
X-498120D02*
D03*
X-482320D02*
D03*
X-332460Y474980D02*
D03*
X-348260D02*
D03*
X-415570Y568960D02*
D03*
X-399770D02*
D03*
X-415570Y553720D02*
D03*
X-399770D02*
D03*
X-232176Y623866D02*
D03*
X-247976D02*
D03*
X-415570Y584200D02*
D03*
X-399770D02*
D03*
X-242850Y728980D02*
D03*
X-227050D02*
D03*
X-415570Y599440D02*
D03*
X-399770D02*
D03*
X-415570Y614680D02*
D03*
X-399770D02*
D03*
X-70840Y532130D02*
D03*
X-86640D02*
D03*
X-70840Y516890D02*
D03*
X-86640D02*
D03*
X-120930Y605790D02*
D03*
X-105130D02*
D03*
X-54330Y403860D02*
D03*
X-70130D02*
D03*
X-167360Y405130D02*
D03*
X-183160D02*
D03*
X-294360D02*
D03*
X-310160D02*
D03*
X-417550D02*
D03*
X-433350D02*
D03*
X-468910D02*
D03*
X-453110D02*
D03*
X-70840Y501650D02*
D03*
X-86640D02*
D03*
X-127280Y728980D02*
D03*
X-111480D02*
D03*
X-374930D02*
D03*
X-359130D02*
D03*
X-18060D02*
D03*
X-2260D02*
D03*
X-275310Y693420D02*
D03*
X-291110D02*
D03*
X-332460Y490220D02*
D03*
X-348260D02*
D03*
D41*
X-508380Y668020D02*
D03*
X-479680D02*
D03*
D42*
X-434340Y702590D02*
D03*
Y686790D02*
D03*
X-419100Y702590D02*
D03*
Y686790D02*
D03*
X-461010Y651790D02*
D03*
Y635990D02*
D03*
X-396240Y677190D02*
D03*
Y661390D02*
D03*
X-381000Y677190D02*
D03*
Y661390D02*
D03*
X-313690Y531850D02*
D03*
Y547650D02*
D03*
X-346710Y531850D02*
D03*
Y547650D02*
D03*
X-365760Y677190D02*
D03*
Y661390D02*
D03*
X-151130Y594640D02*
D03*
Y578840D02*
D03*
X-166370Y578840D02*
D03*
Y594640D02*
D03*
X-217170Y612420D02*
D03*
Y596620D02*
D03*
X-275590Y547090D02*
D03*
Y562890D02*
D03*
X-436269Y649937D02*
D03*
Y665737D02*
D03*
X-421029Y649937D02*
D03*
Y665737D02*
D03*
X-350520Y677190D02*
D03*
Y661390D02*
D03*
X-313690Y677190D02*
D03*
Y661390D02*
D03*
X-166370Y539470D02*
D03*
Y555270D02*
D03*
X-151130Y555270D02*
D03*
Y539470D02*
D03*
D43*
X-441150Y619760D02*
D03*
X-460550D02*
D03*
X-441150Y599440D02*
D03*
X-460550D02*
D03*
D44*
X-613390Y725270D02*
D03*
Y788270D02*
D03*
D45*
X-638890Y745270D02*
D03*
Y768270D02*
D03*
Y718770D02*
D03*
Y794770D02*
D03*
D46*
X-612140Y756770D02*
D03*
Y750270D02*
D03*
Y763270D02*
D03*
Y769770D02*
D03*
Y743770D02*
D03*
D47*
X-508280Y647040D02*
D03*
Y637540D02*
D03*
Y628040D02*
D03*
X-479780D02*
D03*
Y637540D02*
D03*
Y647040D02*
D03*
D48*
X-545000Y631370D02*
D03*
Y618670D02*
D03*
Y605970D02*
D03*
Y453570D02*
D03*
Y466270D02*
D03*
Y478970D02*
D03*
Y491670D02*
D03*
Y504370D02*
D03*
Y517070D02*
D03*
Y529770D02*
D03*
Y542470D02*
D03*
Y555170D02*
D03*
Y567870D02*
D03*
Y580570D02*
D03*
Y593270D02*
D03*
D49*
X-284805Y528290D02*
D03*
X-393700Y727710D02*
D03*
D50*
X-358449Y610616D02*
D03*
Y602488D02*
D03*
Y582168D02*
D03*
Y578104D02*
D03*
Y590296D02*
D03*
Y594360D02*
D03*
Y598424D02*
D03*
Y586232D02*
D03*
Y630936D02*
D03*
Y626872D02*
D03*
Y622808D02*
D03*
Y618744D02*
D03*
Y614680D02*
D03*
Y606552D02*
D03*
X-289759Y582168D02*
D03*
Y586232D02*
D03*
Y590296D02*
D03*
Y594360D02*
D03*
Y598424D02*
D03*
Y602488D02*
D03*
Y578104D02*
D03*
Y610616D02*
D03*
Y630936D02*
D03*
Y626872D02*
D03*
Y622808D02*
D03*
Y618744D02*
D03*
Y614680D02*
D03*
Y606552D02*
D03*
D51*
X-297688Y570175D02*
D03*
X-301752D02*
D03*
X-305816D02*
D03*
X-309880D02*
D03*
X-313944D02*
D03*
X-318008D02*
D03*
X-322072D02*
D03*
X-326136D02*
D03*
X-330200D02*
D03*
X-334264D02*
D03*
X-338328D02*
D03*
X-342392D02*
D03*
X-346456D02*
D03*
X-350520D02*
D03*
X-297688Y638865D02*
D03*
X-301752D02*
D03*
X-305816D02*
D03*
X-309880D02*
D03*
X-313944D02*
D03*
X-318008D02*
D03*
X-322072D02*
D03*
X-326136D02*
D03*
X-330200D02*
D03*
X-334264D02*
D03*
X-338328D02*
D03*
X-342392D02*
D03*
X-346456D02*
D03*
X-350520D02*
D03*
D52*
X-324104Y604520D02*
D03*
D53*
X-234380Y571910D02*
D03*
Y527910D02*
D03*
X-258380D02*
D03*
Y571910D02*
D03*
D54*
X-267040Y664210D02*
D03*
X-220640D02*
D03*
Y480060D02*
D03*
X-267040D02*
D03*
D55*
X-157890Y636270D02*
D03*
Y496160D02*
D03*
D56*
X-177890Y626520D02*
D03*
Y633020D02*
D03*
Y639520D02*
D03*
Y646020D02*
D03*
X-137890D02*
D03*
Y639520D02*
D03*
Y633020D02*
D03*
Y626520D02*
D03*
Y505910D02*
D03*
Y499410D02*
D03*
Y492910D02*
D03*
Y486410D02*
D03*
X-177890D02*
D03*
Y492910D02*
D03*
Y499410D02*
D03*
Y505910D02*
D03*
D57*
X-167640Y656270D02*
D03*
X-161140D02*
D03*
X-154640D02*
D03*
X-148140D02*
D03*
Y616270D02*
D03*
X-154640D02*
D03*
X-161140D02*
D03*
X-167640D02*
D03*
X-148140Y476160D02*
D03*
X-154640D02*
D03*
X-161140D02*
D03*
X-167640D02*
D03*
Y516160D02*
D03*
X-161140D02*
D03*
X-154640D02*
D03*
X-148140D02*
D03*
D58*
X-468630Y481660D02*
D03*
Y554660D02*
D03*
D59*
X-408940Y469390D02*
D03*
X-396240D02*
D03*
X-383540D02*
D03*
X-370840D02*
D03*
Y526290D02*
D03*
X-383540D02*
D03*
X-396240D02*
D03*
X-408940D02*
D03*
D60*
X-389890Y497840D02*
D03*
D61*
X-306460Y693420D02*
D03*
X-323460D02*
D03*
D62*
X15000Y533400D02*
D03*
Y508000D02*
D03*
Y482600D02*
D03*
X15240Y608330D02*
D03*
Y633730D02*
D03*
Y659130D02*
D03*
D63*
X15000Y457200D02*
D03*
X15240Y582930D02*
D03*
D64*
X-46990Y477520D02*
D03*
X-57150Y674370D02*
D03*
X-619760Y335280D02*
D03*
D65*
X-635000Y682320D02*
D03*
Y414020D02*
D03*
D66*
X-43180Y336540D02*
D03*
X-167640D02*
D03*
X-293370D02*
D03*
X-417830D02*
D03*
X-543720D02*
D03*
X-143510Y797570D02*
D03*
X-267970D02*
D03*
X-392430D02*
D03*
X-17780D02*
D03*
X-516890Y797290D02*
D03*
D67*
X-68580Y358140D02*
D03*
X-43180D02*
D03*
X-17780D02*
D03*
X7620D02*
D03*
X-193040D02*
D03*
X-167640D02*
D03*
X-142240D02*
D03*
X-116840D02*
D03*
X-242570D02*
D03*
X-267970D02*
D03*
X-293370D02*
D03*
X-318770D02*
D03*
X-443230D02*
D03*
X-417830D02*
D03*
X-392430D02*
D03*
X-367030D02*
D03*
X-492920D02*
D03*
X-518320D02*
D03*
X-543720D02*
D03*
X-569120D02*
D03*
X-194310Y775970D02*
D03*
X-168910D02*
D03*
X-143510D02*
D03*
X-118110D02*
D03*
X-242570D02*
D03*
X-267970D02*
D03*
X-293370D02*
D03*
X-318770D02*
D03*
X-443230D02*
D03*
X-417830D02*
D03*
X-392430D02*
D03*
X-367030D02*
D03*
X7620D02*
D03*
X-17780D02*
D03*
X-43180D02*
D03*
X-68580D02*
D03*
X-491490Y775690D02*
D03*
X-516890D02*
D03*
X-542290D02*
D03*
X-567690D02*
D03*
M02*
