G04*
G04 #@! TF.GenerationSoftware,Altium Limited,Altium Designer,23.3.1 (30)*
G04*
G04 Layer_Color=8421504*
%FSLAX44Y44*%
%MOMM*%
G71*
G04*
G04 #@! TF.SameCoordinates,401C55F4-CDE4-4738-8E39-6C92FFCD4633*
G04*
G04*
G04 #@! TF.FilePolarity,Positive*
G04*
G01*
G75*
%ADD19R,0.7000X0.9000*%
%ADD20R,1.2300X2.0200*%
%ADD21R,0.9000X0.7000*%
%ADD22R,1.0000X1.3000*%
%ADD23R,1.6000X2.1000*%
%ADD24R,1.9000X1.8000*%
%ADD25R,1.3500X0.4000*%
%ADD26R,1.0500X0.6000*%
%ADD27R,3.5000X0.7000*%
%ADD28C,1.0000*%
%ADD29R,0.8250X0.1500*%
%ADD30R,0.1500X0.8250*%
%ADD31R,0.0004X0.0004*%
%ADD32R,1.4000X1.8000*%
%ADD33R,1.2000X1.2000*%
%ADD34R,2.1500X2.1500*%
G04:AMPARAMS|DCode=35|XSize=0.8mm|YSize=0.35mm|CornerRadius=0.1313mm|HoleSize=0mm|Usage=FLASHONLY|Rotation=0.000|XOffset=0mm|YOffset=0mm|HoleType=Round|Shape=RoundedRectangle|*
%AMROUNDEDRECTD35*
21,1,0.8000,0.0875,0,0,0.0*
21,1,0.5375,0.3500,0,0,0.0*
1,1,0.2625,0.2688,-0.0438*
1,1,0.2625,-0.2688,-0.0438*
1,1,0.2625,-0.2688,0.0438*
1,1,0.2625,0.2688,0.0438*
%
%ADD35ROUNDEDRECTD35*%
G04:AMPARAMS|DCode=36|XSize=0.8mm|YSize=0.35mm|CornerRadius=0.1313mm|HoleSize=0mm|Usage=FLASHONLY|Rotation=270.000|XOffset=0mm|YOffset=0mm|HoleType=Round|Shape=RoundedRectangle|*
%AMROUNDEDRECTD36*
21,1,0.8000,0.0875,0,0,270.0*
21,1,0.5375,0.3500,0,0,270.0*
1,1,0.2625,-0.0438,-0.2688*
1,1,0.2625,-0.0438,0.2688*
1,1,0.2625,0.0438,0.2688*
1,1,0.2625,0.0438,-0.2688*
%
%ADD36ROUNDEDRECTD36*%
%ADD37R,2.2000X4.8000*%
G04:AMPARAMS|DCode=38|XSize=1.04mm|YSize=0.44mm|CornerRadius=0.154mm|HoleSize=0mm|Usage=FLASHONLY|Rotation=90.000|XOffset=0mm|YOffset=0mm|HoleType=Round|Shape=RoundedRectangle|*
%AMROUNDEDRECTD38*
21,1,1.0400,0.1320,0,0,90.0*
21,1,0.7320,0.4400,0,0,90.0*
1,1,0.3080,0.0660,0.3660*
1,1,0.3080,0.0660,-0.3660*
1,1,0.3080,-0.0660,-0.3660*
1,1,0.3080,-0.0660,0.3660*
%
%ADD38ROUNDEDRECTD38*%
%ADD39R,0.8500X0.9500*%
G36*
X-309102Y605520D02*
X-323104D01*
Y619522D01*
X-309102D01*
Y605520D01*
D02*
G37*
G36*
X-325104D02*
X-339106D01*
Y619522D01*
X-325104D01*
Y605520D01*
D02*
G37*
G36*
X-309102Y589518D02*
X-323104D01*
Y603520D01*
X-309102D01*
Y589518D01*
D02*
G37*
G36*
X-325104D02*
X-339106D01*
Y603520D01*
X-325104D01*
Y589518D01*
D02*
G37*
G36*
X-376277Y487080D02*
X-403490D01*
Y508590D01*
X-376277D01*
Y487080D01*
D02*
G37*
G36*
X162439Y400143D02*
X162501D01*
X162570Y400129D01*
X162647Y400115D01*
X162737Y400094D01*
X162841Y400073D01*
X162945Y400038D01*
X163056Y399997D01*
X163167Y399941D01*
X163285Y399879D01*
X163403Y399810D01*
X163514Y399720D01*
X163624Y399622D01*
X163735Y399511D01*
X163742Y399505D01*
X163763Y399484D01*
X163791Y399449D01*
X163826Y399394D01*
X163867Y399331D01*
X163916Y399255D01*
X163964Y399158D01*
X164020Y399054D01*
X164075Y398936D01*
X164124Y398804D01*
X164172Y398659D01*
X164214Y398499D01*
X164249Y398333D01*
X164283Y398152D01*
X164297Y397958D01*
X164304Y397750D01*
Y397736D01*
Y397702D01*
X164297Y397639D01*
Y397556D01*
X164290Y397459D01*
X164276Y397348D01*
X164256Y397223D01*
X164235Y397085D01*
X164200Y396946D01*
X164165Y396793D01*
X164117Y396648D01*
X164061Y396495D01*
X163999Y396349D01*
X163923Y396204D01*
X163832Y396065D01*
X163735Y395940D01*
X163729Y395933D01*
X163708Y395913D01*
X163680Y395885D01*
X163631Y395843D01*
X163576Y395795D01*
X163514Y395739D01*
X163437Y395684D01*
X163347Y395621D01*
X163257Y395559D01*
X163146Y395504D01*
X163035Y395448D01*
X162910Y395400D01*
X162785Y395365D01*
X162647Y395330D01*
X162508Y395309D01*
X162355Y395302D01*
X162293D01*
X162217Y395309D01*
X162120Y395323D01*
X162016Y395337D01*
X161898Y395365D01*
X161773Y395406D01*
X161655Y395455D01*
X161641Y395462D01*
X161600Y395483D01*
X161537Y395524D01*
X161454Y395580D01*
X161357Y395649D01*
X161246Y395739D01*
X161128Y395850D01*
X161003Y395975D01*
Y393645D01*
X159776D01*
Y400045D01*
X160920D01*
Y399366D01*
X160934Y399373D01*
X160962Y399414D01*
X161010Y399484D01*
X161080Y399560D01*
X161163Y399650D01*
X161267Y399747D01*
X161385Y399844D01*
X161516Y399927D01*
X161523D01*
X161537Y399935D01*
X161558Y399948D01*
X161586Y399962D01*
X161621Y399976D01*
X161662Y399997D01*
X161766Y400038D01*
X161891Y400080D01*
X162037Y400115D01*
X162196Y400143D01*
X162362Y400149D01*
X162397D01*
X162439Y400143D01*
D02*
G37*
G36*
X180523D02*
X180606D01*
X180697Y400136D01*
X180794Y400122D01*
X180905Y400108D01*
X181133Y400073D01*
X181362Y400018D01*
X181480Y399983D01*
X181584Y399941D01*
X181688Y399893D01*
X181778Y399837D01*
X181785D01*
X181799Y399823D01*
X181820Y399803D01*
X181854Y399782D01*
X181889Y399747D01*
X181938Y399706D01*
X181979Y399657D01*
X182035Y399609D01*
X182083Y399546D01*
X182139Y399477D01*
X182194Y399400D01*
X182250Y399317D01*
X182298Y399234D01*
X182347Y399137D01*
X182423Y398922D01*
X181265Y398707D01*
Y398721D01*
X181251Y398749D01*
X181230Y398797D01*
X181203Y398860D01*
X181161Y398929D01*
X181112Y398998D01*
X181050Y399061D01*
X180981Y399123D01*
X180974Y399130D01*
X180939Y399144D01*
X180898Y399172D01*
X180828Y399199D01*
X180745Y399220D01*
X180648Y399248D01*
X180523Y399262D01*
X180391Y399269D01*
X180315D01*
X180232Y399262D01*
X180128Y399255D01*
X180017Y399234D01*
X179899Y399213D01*
X179795Y399179D01*
X179705Y399130D01*
X179698Y399123D01*
X179684Y399116D01*
X179663Y399089D01*
X179636Y399061D01*
X179608Y399026D01*
X179587Y398984D01*
X179573Y398936D01*
X179566Y398881D01*
Y398873D01*
Y398860D01*
X179573Y398832D01*
X179580Y398804D01*
X179594Y398769D01*
X179615Y398735D01*
X179643Y398693D01*
X179684Y398659D01*
X179691Y398652D01*
X179705Y398645D01*
X179726Y398638D01*
X179753Y398624D01*
X179788Y398610D01*
X179837Y398589D01*
X179892Y398568D01*
X179954Y398548D01*
X180038Y398520D01*
X180128Y398492D01*
X180239Y398457D01*
X180357Y398430D01*
X180495Y398388D01*
X180655Y398354D01*
X180828Y398312D01*
X180842D01*
X180870Y398305D01*
X180918Y398291D01*
X180988Y398270D01*
X181064Y398250D01*
X181161Y398222D01*
X181258Y398194D01*
X181369Y398159D01*
X181591Y398083D01*
X181820Y397986D01*
X181924Y397937D01*
X182021Y397882D01*
X182118Y397826D01*
X182194Y397764D01*
X182201Y397757D01*
X182208Y397750D01*
X182229Y397729D01*
X182257Y397702D01*
X182284Y397674D01*
X182319Y397632D01*
X182354Y397584D01*
X182388Y397528D01*
X182458Y397397D01*
X182520Y397244D01*
X182569Y397064D01*
X182576Y396960D01*
X182583Y396856D01*
Y396849D01*
Y396828D01*
Y396793D01*
X182576Y396752D01*
X182569Y396696D01*
X182555Y396627D01*
X182541Y396558D01*
X182513Y396481D01*
X182486Y396398D01*
X182451Y396308D01*
X182409Y396218D01*
X182361Y396128D01*
X182298Y396031D01*
X182222Y395940D01*
X182146Y395850D01*
X182049Y395760D01*
X182042Y395753D01*
X182021Y395739D01*
X181993Y395718D01*
X181952Y395691D01*
X181896Y395656D01*
X181827Y395615D01*
X181744Y395573D01*
X181653Y395531D01*
X181549Y395490D01*
X181432Y395448D01*
X181300Y395406D01*
X181161Y395372D01*
X181008Y395344D01*
X180842Y395323D01*
X180662Y395309D01*
X180475Y395302D01*
X180384D01*
X180315Y395309D01*
X180239Y395316D01*
X180142Y395323D01*
X180045Y395337D01*
X179934Y395351D01*
X179691Y395393D01*
X179441Y395462D01*
X179317Y395510D01*
X179192Y395559D01*
X179081Y395615D01*
X178970Y395684D01*
X178963Y395691D01*
X178949Y395705D01*
X178921Y395725D01*
X178880Y395753D01*
X178838Y395795D01*
X178790Y395836D01*
X178734Y395892D01*
X178679Y395954D01*
X178616Y396031D01*
X178554Y396107D01*
X178498Y396190D01*
X178436Y396287D01*
X178381Y396384D01*
X178332Y396488D01*
X178290Y396606D01*
X178256Y396724D01*
X179483Y396911D01*
Y396904D01*
X179490Y396897D01*
X179497Y396856D01*
X179518Y396786D01*
X179552Y396710D01*
X179594Y396620D01*
X179649Y396530D01*
X179712Y396447D01*
X179795Y396370D01*
X179809Y396363D01*
X179837Y396343D01*
X179892Y396315D01*
X179968Y396280D01*
X180065Y396245D01*
X180183Y396218D01*
X180315Y396197D01*
X180468Y396190D01*
X180544D01*
X180585Y396197D01*
X180634D01*
X180738Y396211D01*
X180856Y396232D01*
X180974Y396266D01*
X181085Y396308D01*
X181182Y396363D01*
X181189Y396370D01*
X181210Y396384D01*
X181237Y396412D01*
X181265Y396447D01*
X181293Y396495D01*
X181321Y396551D01*
X181341Y396613D01*
X181348Y396689D01*
Y396696D01*
Y396710D01*
X181341Y396738D01*
X181334Y396772D01*
X181314Y396842D01*
X181286Y396883D01*
X181258Y396918D01*
X181251Y396925D01*
X181237Y396932D01*
X181210Y396953D01*
X181175Y396974D01*
X181119Y397001D01*
X181050Y397029D01*
X180960Y397057D01*
X180849Y397085D01*
X180842D01*
X180835Y397091D01*
X180814D01*
X180787Y397098D01*
X180710Y397119D01*
X180613Y397140D01*
X180495Y397168D01*
X180364Y397202D01*
X180218Y397237D01*
X180058Y397279D01*
X179746Y397376D01*
X179587Y397424D01*
X179435Y397473D01*
X179296Y397528D01*
X179171Y397577D01*
X179060Y397632D01*
X178977Y397681D01*
X178970Y397688D01*
X178956Y397702D01*
X178928Y397723D01*
X178894Y397750D01*
X178852Y397785D01*
X178804Y397833D01*
X178755Y397889D01*
X178706Y397951D01*
X178651Y398021D01*
X178602Y398097D01*
X178554Y398187D01*
X178512Y398277D01*
X178477Y398381D01*
X178450Y398485D01*
X178436Y398603D01*
X178429Y398721D01*
Y398728D01*
Y398749D01*
Y398777D01*
X178436Y398825D01*
X178443Y398873D01*
X178457Y398936D01*
X178471Y398998D01*
X178491Y399075D01*
X178547Y399234D01*
X178582Y399317D01*
X178630Y399400D01*
X178686Y399491D01*
X178748Y399574D01*
X178817Y399657D01*
X178901Y399733D01*
X178908Y399740D01*
X178921Y399754D01*
X178949Y399775D01*
X178991Y399796D01*
X179039Y399831D01*
X179102Y399865D01*
X179178Y399900D01*
X179261Y399941D01*
X179358Y399983D01*
X179469Y400018D01*
X179587Y400052D01*
X179719Y400087D01*
X179864Y400108D01*
X180024Y400129D01*
X180190Y400143D01*
X180371Y400149D01*
X180461D01*
X180523Y400143D01*
D02*
G37*
G36*
X175732D02*
X175815D01*
X175898Y400136D01*
X175995Y400122D01*
X176196Y400101D01*
X176397Y400066D01*
X176591Y400018D01*
X176675Y399983D01*
X176758Y399948D01*
X176765D01*
X176779Y399941D01*
X176800Y399927D01*
X176820Y399914D01*
X176896Y399872D01*
X176980Y399817D01*
X177077Y399740D01*
X177167Y399657D01*
X177257Y399560D01*
X177327Y399456D01*
X177333Y399442D01*
X177340Y399421D01*
X177354Y399400D01*
X177368Y399366D01*
X177382Y399317D01*
X177396Y399269D01*
X177410Y399206D01*
X177423Y399137D01*
X177437Y399061D01*
X177451Y398971D01*
X177465Y398867D01*
X177479Y398756D01*
X177486Y398638D01*
X177493Y398506D01*
Y398360D01*
X177472Y396925D01*
Y396918D01*
Y396897D01*
Y396870D01*
Y396828D01*
Y396772D01*
Y396717D01*
X177479Y396585D01*
X177486Y396440D01*
X177493Y396287D01*
X177507Y396148D01*
X177521Y396079D01*
X177528Y396024D01*
Y396010D01*
X177541Y395975D01*
X177555Y395913D01*
X177576Y395836D01*
X177604Y395746D01*
X177645Y395642D01*
X177694Y395524D01*
X177750Y395406D01*
X176536D01*
Y395413D01*
X176529Y395427D01*
X176515Y395455D01*
X176501Y395497D01*
X176487Y395545D01*
X176460Y395607D01*
X176439Y395684D01*
X176411Y395767D01*
Y395774D01*
X176404Y395788D01*
X176397Y395829D01*
X176383Y395878D01*
X176376Y395899D01*
X176369Y395913D01*
X176356Y395899D01*
X176314Y395864D01*
X176252Y395809D01*
X176168Y395739D01*
X176071Y395670D01*
X175954Y395594D01*
X175829Y395517D01*
X175697Y395455D01*
X175690D01*
X175683Y395448D01*
X175662Y395441D01*
X175634Y395434D01*
X175565Y395406D01*
X175468Y395379D01*
X175357Y395351D01*
X175225Y395323D01*
X175087Y395309D01*
X174934Y395302D01*
X174865D01*
X174816Y395309D01*
X174754Y395316D01*
X174685Y395323D01*
X174608Y395337D01*
X174525Y395351D01*
X174345Y395393D01*
X174158Y395462D01*
X174060Y395510D01*
X173970Y395559D01*
X173887Y395615D01*
X173804Y395684D01*
X173797Y395691D01*
X173783Y395705D01*
X173769Y395725D01*
X173741Y395753D01*
X173707Y395795D01*
X173672Y395836D01*
X173638Y395892D01*
X173603Y395954D01*
X173561Y396024D01*
X173526Y396093D01*
X173457Y396266D01*
X173429Y396356D01*
X173416Y396454D01*
X173402Y396558D01*
X173395Y396669D01*
Y396675D01*
Y396689D01*
Y396710D01*
Y396738D01*
X173402Y396807D01*
X173416Y396904D01*
X173443Y397015D01*
X173471Y397133D01*
X173520Y397251D01*
X173582Y397369D01*
Y397376D01*
X173589Y397383D01*
X173617Y397417D01*
X173658Y397473D01*
X173721Y397542D01*
X173790Y397618D01*
X173880Y397695D01*
X173984Y397771D01*
X174102Y397833D01*
X174109D01*
X174116Y397840D01*
X174137Y397847D01*
X174165Y397861D01*
X174199Y397875D01*
X174241Y397896D01*
X174296Y397910D01*
X174352Y397930D01*
X174414Y397951D01*
X174490Y397979D01*
X174574Y398000D01*
X174657Y398028D01*
X174754Y398048D01*
X174858Y398076D01*
X174962Y398104D01*
X175080Y398125D01*
X175087D01*
X175114Y398132D01*
X175163Y398139D01*
X175219Y398152D01*
X175288Y398166D01*
X175371Y398180D01*
X175461Y398201D01*
X175558Y398222D01*
X175752Y398270D01*
X175954Y398319D01*
X176044Y398346D01*
X176134Y398374D01*
X176210Y398402D01*
X176279Y398430D01*
Y398548D01*
Y398555D01*
Y398562D01*
Y398610D01*
X176273Y398672D01*
X176259Y398749D01*
X176238Y398832D01*
X176203Y398915D01*
X176161Y398998D01*
X176099Y399061D01*
X176092Y399068D01*
X176064Y399082D01*
X176016Y399109D01*
X175954Y399137D01*
X175863Y399165D01*
X175746Y399193D01*
X175676Y399199D01*
X175607Y399206D01*
X175524Y399213D01*
X175378D01*
X175315Y399206D01*
X175246Y399199D01*
X175163Y399179D01*
X175073Y399158D01*
X174990Y399123D01*
X174913Y399082D01*
X174906Y399075D01*
X174886Y399054D01*
X174851Y399026D01*
X174809Y398978D01*
X174761Y398915D01*
X174712Y398832D01*
X174664Y398735D01*
X174622Y398624D01*
X173520Y398825D01*
Y398832D01*
X173526Y398853D01*
X173540Y398887D01*
X173554Y398936D01*
X173575Y398991D01*
X173603Y399054D01*
X173672Y399199D01*
X173762Y399366D01*
X173873Y399532D01*
X174005Y399685D01*
X174081Y399761D01*
X174165Y399823D01*
X174171Y399831D01*
X174185Y399837D01*
X174213Y399851D01*
X174248Y399872D01*
X174296Y399900D01*
X174359Y399927D01*
X174428Y399955D01*
X174504Y399990D01*
X174601Y400018D01*
X174698Y400045D01*
X174809Y400073D01*
X174934Y400101D01*
X175066Y400122D01*
X175212Y400136D01*
X175364Y400149D01*
X175669D01*
X175732Y400143D01*
D02*
G37*
G36*
X170233Y401800D02*
X170344D01*
X170469Y401793D01*
X170732Y401786D01*
X170857Y401772D01*
X170982Y401765D01*
X171100Y401758D01*
X171204Y401744D01*
X171294Y401724D01*
X171370Y401710D01*
X171377D01*
X171398Y401703D01*
X171425Y401696D01*
X171460Y401682D01*
X171509Y401661D01*
X171564Y401640D01*
X171689Y401578D01*
X171835Y401495D01*
X171987Y401384D01*
X172070Y401314D01*
X172147Y401245D01*
X172223Y401169D01*
X172292Y401079D01*
X172299Y401072D01*
X172306Y401058D01*
X172327Y401030D01*
X172348Y400995D01*
X172382Y400947D01*
X172410Y400885D01*
X172445Y400822D01*
X172479Y400746D01*
X172514Y400656D01*
X172549Y400565D01*
X172584Y400462D01*
X172611Y400350D01*
X172632Y400233D01*
X172653Y400108D01*
X172660Y399969D01*
X172667Y399831D01*
Y399823D01*
Y399803D01*
Y399775D01*
Y399733D01*
X172660Y399685D01*
X172653Y399622D01*
X172646Y399560D01*
X172639Y399484D01*
X172611Y399331D01*
X172577Y399165D01*
X172521Y398998D01*
X172452Y398839D01*
Y398832D01*
X172445Y398825D01*
X172431Y398804D01*
X172410Y398777D01*
X172369Y398700D01*
X172306Y398610D01*
X172223Y398513D01*
X172133Y398409D01*
X172022Y398305D01*
X171904Y398208D01*
X171897D01*
X171890Y398201D01*
X171848Y398173D01*
X171786Y398132D01*
X171696Y398083D01*
X171599Y398035D01*
X171488Y397986D01*
X171363Y397944D01*
X171238Y397910D01*
X171231D01*
X171217Y397903D01*
X171190D01*
X171155Y397896D01*
X171106Y397889D01*
X171044Y397882D01*
X170975Y397875D01*
X170898Y397868D01*
X170808Y397854D01*
X170704Y397847D01*
X170593Y397840D01*
X170476Y397833D01*
X170344Y397826D01*
X170205D01*
X170053Y397820D01*
X169054D01*
Y395406D01*
X167764D01*
Y401807D01*
X170122D01*
X170233Y401800D01*
D02*
G37*
G36*
X153535Y400725D02*
X151649D01*
Y395406D01*
X150359D01*
Y400725D01*
X148459D01*
Y401807D01*
X153535D01*
Y400725D01*
D02*
G37*
G36*
X188498Y400143D02*
X188574Y400136D01*
X188657Y400129D01*
X188761Y400115D01*
X188872Y400094D01*
X188990Y400066D01*
X189121Y400025D01*
X189253Y399983D01*
X189385Y399927D01*
X189524Y399858D01*
X189655Y399782D01*
X189787Y399692D01*
X189912Y399581D01*
X190030Y399463D01*
X190037Y399456D01*
X190058Y399428D01*
X190085Y399394D01*
X190120Y399338D01*
X190169Y399262D01*
X190217Y399172D01*
X190273Y399068D01*
X190328Y398950D01*
X190384Y398811D01*
X190432Y398652D01*
X190481Y398485D01*
X190522Y398298D01*
X190557Y398090D01*
X190585Y397868D01*
X190606Y397632D01*
Y397376D01*
X187534D01*
Y397369D01*
Y397355D01*
Y397320D01*
X187540Y397286D01*
X187547Y397237D01*
X187554Y397182D01*
X187575Y397064D01*
X187610Y396925D01*
X187658Y396779D01*
X187728Y396641D01*
X187825Y396516D01*
X187832D01*
X187839Y396502D01*
X187873Y396467D01*
X187936Y396419D01*
X188019Y396370D01*
X188123Y396315D01*
X188248Y396266D01*
X188386Y396232D01*
X188463Y396225D01*
X188539Y396218D01*
X188588D01*
X188636Y396225D01*
X188706Y396239D01*
X188782Y396252D01*
X188858Y396280D01*
X188941Y396322D01*
X189018Y396370D01*
X189025Y396377D01*
X189052Y396398D01*
X189087Y396440D01*
X189128Y396495D01*
X189184Y396564D01*
X189233Y396655D01*
X189281Y396759D01*
X189323Y396883D01*
X190543Y396675D01*
Y396669D01*
X190529Y396648D01*
X190515Y396613D01*
X190501Y396564D01*
X190474Y396509D01*
X190439Y396447D01*
X190404Y396370D01*
X190363Y396294D01*
X190259Y396128D01*
X190127Y395961D01*
X189974Y395795D01*
X189884Y395718D01*
X189794Y395649D01*
X189787Y395642D01*
X189773Y395635D01*
X189746Y395615D01*
X189704Y395594D01*
X189655Y395566D01*
X189593Y395538D01*
X189524Y395510D01*
X189447Y395476D01*
X189357Y395441D01*
X189260Y395413D01*
X189156Y395386D01*
X189045Y395358D01*
X188927Y395337D01*
X188796Y395316D01*
X188664Y395309D01*
X188525Y395302D01*
X188470D01*
X188407Y395309D01*
X188324Y395316D01*
X188227Y395323D01*
X188109Y395344D01*
X187984Y395365D01*
X187846Y395400D01*
X187700Y395441D01*
X187554Y395497D01*
X187409Y395559D01*
X187256Y395635D01*
X187118Y395725D01*
X186979Y395829D01*
X186854Y395947D01*
X186736Y396086D01*
X186729Y396093D01*
X186715Y396114D01*
X186695Y396148D01*
X186667Y396204D01*
X186632Y396266D01*
X186591Y396336D01*
X186549Y396426D01*
X186507Y396523D01*
X186466Y396634D01*
X186424Y396759D01*
X186383Y396890D01*
X186348Y397029D01*
X186320Y397182D01*
X186299Y397341D01*
X186285Y397514D01*
X186278Y397688D01*
Y397702D01*
Y397736D01*
X186285Y397799D01*
Y397875D01*
X186299Y397972D01*
X186313Y398090D01*
X186327Y398208D01*
X186355Y398346D01*
X186383Y398485D01*
X186424Y398631D01*
X186473Y398783D01*
X186528Y398936D01*
X186597Y399082D01*
X186681Y399227D01*
X186771Y399366D01*
X186875Y399491D01*
X186882Y399498D01*
X186903Y399518D01*
X186937Y399553D01*
X186986Y399595D01*
X187041Y399643D01*
X187118Y399699D01*
X187201Y399761D01*
X187291Y399823D01*
X187395Y399879D01*
X187513Y399941D01*
X187638Y399997D01*
X187776Y400045D01*
X187915Y400087D01*
X188067Y400122D01*
X188234Y400143D01*
X188400Y400149D01*
X188449D01*
X188498Y400143D01*
D02*
G37*
G36*
X184947Y400045D02*
X185786D01*
Y399068D01*
X184947D01*
Y397196D01*
Y397188D01*
Y397168D01*
Y397140D01*
Y397105D01*
Y397064D01*
Y397008D01*
Y396897D01*
X184954Y396786D01*
Y396675D01*
X184961Y396627D01*
Y396585D01*
X184968Y396551D01*
Y396530D01*
Y396523D01*
X184975Y396516D01*
X184989Y396474D01*
X185023Y396426D01*
X185072Y396377D01*
X185079D01*
X185086Y396370D01*
X185107Y396363D01*
X185134Y396349D01*
X185197Y396329D01*
X185280Y396322D01*
X185315D01*
X185349Y396329D01*
X185405Y396336D01*
X185474Y396349D01*
X185564Y396370D01*
X185661Y396398D01*
X185772Y396433D01*
X185883Y395483D01*
X185876D01*
X185863Y395476D01*
X185842Y395469D01*
X185807Y395455D01*
X185765Y395441D01*
X185717Y395427D01*
X185661Y395406D01*
X185599Y395393D01*
X185460Y395358D01*
X185294Y395330D01*
X185107Y395309D01*
X184912Y395302D01*
X184857D01*
X184795Y395309D01*
X184711Y395316D01*
X184621Y395330D01*
X184524Y395351D01*
X184420Y395379D01*
X184316Y395413D01*
X184302Y395420D01*
X184275Y395434D01*
X184226Y395455D01*
X184170Y395490D01*
X184108Y395531D01*
X184039Y395580D01*
X183983Y395635D01*
X183928Y395698D01*
X183921Y395705D01*
X183907Y395732D01*
X183886Y395774D01*
X183859Y395822D01*
X183831Y395892D01*
X183803Y395975D01*
X183775Y396072D01*
X183755Y396176D01*
Y396190D01*
X183748Y396218D01*
Y396245D01*
X183741Y396280D01*
Y396322D01*
Y396363D01*
X183734Y396419D01*
Y396481D01*
X183727Y396551D01*
Y396634D01*
X183720Y396724D01*
Y396821D01*
Y396925D01*
Y397043D01*
Y399068D01*
X183158D01*
Y400045D01*
X183720D01*
Y400968D01*
X184947Y401689D01*
Y400045D01*
D02*
G37*
G36*
X156559Y400143D02*
X156628Y400136D01*
X156718Y400129D01*
X156822Y400115D01*
X156940Y400094D01*
X157065Y400066D01*
X157197Y400025D01*
X157335Y399983D01*
X157481Y399927D01*
X157619Y399858D01*
X157765Y399782D01*
X157911Y399692D01*
X158042Y399581D01*
X158174Y399463D01*
X158181Y399456D01*
X158202Y399428D01*
X158237Y399394D01*
X158278Y399338D01*
X158334Y399269D01*
X158389Y399193D01*
X158445Y399095D01*
X158514Y398991D01*
X158576Y398873D01*
X158632Y398742D01*
X158694Y398596D01*
X158743Y398444D01*
X158784Y398284D01*
X158819Y398111D01*
X158840Y397930D01*
X158847Y397736D01*
Y397723D01*
Y397688D01*
X158840Y397632D01*
Y397563D01*
X158826Y397473D01*
X158812Y397369D01*
X158791Y397251D01*
X158764Y397126D01*
X158729Y396987D01*
X158680Y396849D01*
X158625Y396703D01*
X158562Y396558D01*
X158479Y396405D01*
X158389Y396266D01*
X158285Y396121D01*
X158167Y395989D01*
X158160Y395982D01*
X158139Y395961D01*
X158098Y395927D01*
X158042Y395885D01*
X157980Y395829D01*
X157897Y395774D01*
X157807Y395712D01*
X157703Y395649D01*
X157585Y395580D01*
X157453Y395517D01*
X157314Y395462D01*
X157162Y395413D01*
X157002Y395365D01*
X156829Y395330D01*
X156649Y395309D01*
X156461Y395302D01*
X156399D01*
X156350Y395309D01*
X156295D01*
X156233Y395316D01*
X156156Y395323D01*
X156073Y395337D01*
X155886Y395372D01*
X155678Y395420D01*
X155463Y395490D01*
X155248Y395587D01*
X155241Y395594D01*
X155220Y395601D01*
X155192Y395615D01*
X155151Y395642D01*
X155102Y395670D01*
X155054Y395712D01*
X154922Y395802D01*
X154783Y395920D01*
X154638Y396065D01*
X154499Y396239D01*
X154374Y396433D01*
Y396440D01*
X154360Y396460D01*
X154347Y396488D01*
X154326Y396530D01*
X154305Y396585D01*
X154277Y396648D01*
X154256Y396724D01*
X154229Y396807D01*
X154201Y396904D01*
X154173Y397008D01*
X154145Y397119D01*
X154125Y397237D01*
X154104Y397362D01*
X154090Y397501D01*
X154083Y397639D01*
X154076Y397785D01*
Y397792D01*
Y397813D01*
Y397847D01*
X154083Y397889D01*
Y397944D01*
X154090Y398014D01*
X154104Y398083D01*
X154111Y398166D01*
X154152Y398346D01*
X154201Y398548D01*
X154277Y398756D01*
X154319Y398867D01*
X154374Y398971D01*
X154381Y398978D01*
X154388Y398998D01*
X154409Y399026D01*
X154430Y399068D01*
X154458Y399116D01*
X154499Y399172D01*
X154589Y399296D01*
X154714Y399435D01*
X154860Y399581D01*
X155026Y399720D01*
X155220Y399844D01*
X155227Y399851D01*
X155248Y399858D01*
X155276Y399872D01*
X155317Y399893D01*
X155373Y399914D01*
X155435Y399941D01*
X155505Y399969D01*
X155581Y399997D01*
X155671Y400025D01*
X155768Y400052D01*
X155976Y400101D01*
X156205Y400136D01*
X156330Y400149D01*
X156503D01*
X156559Y400143D01*
D02*
G37*
%LPC*%
G36*
X162023Y399179D02*
X161981D01*
X161946Y399172D01*
X161912Y399165D01*
X161863Y399158D01*
X161759Y399137D01*
X161641Y399095D01*
X161516Y399033D01*
X161454Y398991D01*
X161392Y398943D01*
X161329Y398887D01*
X161274Y398825D01*
Y398818D01*
X161260Y398811D01*
X161246Y398790D01*
X161225Y398763D01*
X161204Y398721D01*
X161184Y398679D01*
X161156Y398624D01*
X161128Y398568D01*
X161100Y398499D01*
X161073Y398423D01*
X161052Y398340D01*
X161031Y398250D01*
X161010Y398145D01*
X160996Y398041D01*
X160989Y397924D01*
X160983Y397799D01*
Y397792D01*
Y397764D01*
Y397723D01*
X160989Y397674D01*
Y397605D01*
X160996Y397528D01*
X161010Y397452D01*
X161024Y397362D01*
X161059Y397175D01*
X161114Y396981D01*
X161191Y396800D01*
X161232Y396717D01*
X161288Y396641D01*
X161295Y396634D01*
X161301Y396627D01*
X161343Y396585D01*
X161413Y396523D01*
X161503Y396460D01*
X161614Y396391D01*
X161738Y396329D01*
X161891Y396287D01*
X161967Y396280D01*
X162050Y396273D01*
X162092D01*
X162120Y396280D01*
X162196Y396294D01*
X162300Y396315D01*
X162411Y396356D01*
X162529Y396419D01*
X162584Y396454D01*
X162647Y396502D01*
X162702Y396551D01*
X162758Y396613D01*
X162765Y396620D01*
X162772Y396627D01*
X162785Y396648D01*
X162806Y396675D01*
X162827Y396717D01*
X162848Y396759D01*
X162876Y396814D01*
X162903Y396883D01*
X162931Y396953D01*
X162959Y397036D01*
X162980Y397126D01*
X163000Y397230D01*
X163021Y397341D01*
X163035Y397466D01*
X163049Y397598D01*
Y397736D01*
Y397743D01*
Y397771D01*
Y397806D01*
X163042Y397854D01*
Y397917D01*
X163035Y397986D01*
X163021Y398062D01*
X163014Y398145D01*
X162980Y398319D01*
X162924Y398499D01*
X162848Y398672D01*
X162806Y398749D01*
X162751Y398818D01*
Y398825D01*
X162737Y398832D01*
X162695Y398873D01*
X162633Y398929D01*
X162550Y398998D01*
X162446Y399068D01*
X162321Y399123D01*
X162182Y399165D01*
X162106Y399172D01*
X162023Y399179D01*
D02*
G37*
G36*
X176279Y397632D02*
X176266Y397625D01*
X176231Y397618D01*
X176175Y397598D01*
X176092Y397577D01*
X175988Y397549D01*
X175856Y397514D01*
X175704Y397480D01*
X175524Y397438D01*
X175517D01*
X175503Y397431D01*
X175475D01*
X175440Y397417D01*
X175357Y397397D01*
X175253Y397376D01*
X175142Y397341D01*
X175031Y397306D01*
X174934Y397272D01*
X174893Y397251D01*
X174858Y397230D01*
X174851Y397223D01*
X174823Y397202D01*
X174782Y397161D01*
X174740Y397112D01*
X174698Y397050D01*
X174657Y396974D01*
X174629Y396890D01*
X174622Y396800D01*
Y396786D01*
Y396759D01*
X174629Y396710D01*
X174643Y396648D01*
X174671Y396578D01*
X174698Y396502D01*
X174747Y396433D01*
X174809Y396356D01*
X174816Y396349D01*
X174844Y396329D01*
X174886Y396294D01*
X174941Y396266D01*
X175017Y396232D01*
X175101Y396197D01*
X175198Y396176D01*
X175302Y396169D01*
X175315D01*
X175357Y396176D01*
X175420Y396183D01*
X175503Y396197D01*
X175600Y396225D01*
X175711Y396259D01*
X175822Y396315D01*
X175933Y396384D01*
X175940Y396391D01*
X175967Y396412D01*
X176009Y396447D01*
X176051Y396495D01*
X176106Y396558D01*
X176155Y396627D01*
X176196Y396703D01*
X176231Y396786D01*
Y396793D01*
X176238Y396821D01*
X176245Y396863D01*
X176259Y396918D01*
X176266Y397001D01*
X176273Y397105D01*
X176279Y397230D01*
Y397383D01*
Y397632D01*
D02*
G37*
G36*
X169921Y400725D02*
X169054D01*
Y398901D01*
X169949D01*
X170018Y398908D01*
X170177Y398915D01*
X170344Y398922D01*
X170510Y398943D01*
X170593Y398957D01*
X170663Y398964D01*
X170725Y398984D01*
X170781Y398998D01*
X170795Y399005D01*
X170822Y399019D01*
X170871Y399040D01*
X170926Y399075D01*
X170989Y399123D01*
X171058Y399179D01*
X171127Y399241D01*
X171183Y399317D01*
X171190Y399324D01*
X171204Y399359D01*
X171231Y399400D01*
X171259Y399463D01*
X171287Y399532D01*
X171315Y399616D01*
X171328Y399713D01*
X171335Y399817D01*
Y399823D01*
Y399831D01*
Y399872D01*
X171322Y399941D01*
X171308Y400018D01*
X171287Y400108D01*
X171245Y400205D01*
X171197Y400302D01*
X171127Y400392D01*
X171120Y400399D01*
X171093Y400427D01*
X171044Y400468D01*
X170982Y400517D01*
X170912Y400565D01*
X170822Y400607D01*
X170718Y400649D01*
X170607Y400676D01*
X170593D01*
X170559Y400683D01*
X170531Y400690D01*
X170496D01*
X170455Y400697D01*
X170406Y400704D01*
X170344D01*
X170274Y400711D01*
X170198D01*
X170115Y400718D01*
X170025D01*
X169921Y400725D01*
D02*
G37*
G36*
X188470Y399213D02*
X188428D01*
X188400Y399206D01*
X188331Y399199D01*
X188234Y399179D01*
X188130Y399144D01*
X188019Y399089D01*
X187915Y399012D01*
X187859Y398971D01*
X187811Y398915D01*
X187797Y398901D01*
X187769Y398860D01*
X187728Y398797D01*
X187679Y398707D01*
X187631Y398596D01*
X187589Y398457D01*
X187561Y398305D01*
X187554Y398125D01*
X189385D01*
Y398132D01*
Y398145D01*
Y398173D01*
X189378Y398215D01*
X189371Y398256D01*
X189364Y398305D01*
X189343Y398423D01*
X189309Y398555D01*
X189260Y398686D01*
X189198Y398818D01*
X189108Y398929D01*
X189094Y398943D01*
X189059Y398971D01*
X189004Y399019D01*
X188927Y399075D01*
X188837Y399123D01*
X188726Y399172D01*
X188601Y399199D01*
X188470Y399213D01*
D02*
G37*
G36*
X156454Y399151D02*
X156406D01*
X156378Y399144D01*
X156337Y399137D01*
X156288Y399130D01*
X156177Y399102D01*
X156045Y399061D01*
X155914Y398998D01*
X155844Y398957D01*
X155782Y398908D01*
X155713Y398846D01*
X155650Y398783D01*
Y398777D01*
X155636Y398769D01*
X155622Y398742D01*
X155602Y398714D01*
X155574Y398679D01*
X155546Y398631D01*
X155518Y398575D01*
X155491Y398513D01*
X155463Y398444D01*
X155435Y398360D01*
X155407Y398277D01*
X155380Y398180D01*
X155359Y398076D01*
X155345Y397965D01*
X155338Y397847D01*
X155331Y397723D01*
Y397715D01*
Y397695D01*
Y397653D01*
X155338Y397612D01*
Y397549D01*
X155345Y397487D01*
X155359Y397410D01*
X155373Y397327D01*
X155407Y397161D01*
X155463Y396981D01*
X155546Y396814D01*
X155595Y396731D01*
X155650Y396661D01*
X155657Y396655D01*
X155664Y396648D01*
X155685Y396627D01*
X155706Y396606D01*
X155782Y396551D01*
X155872Y396481D01*
X155990Y396412D01*
X156129Y396356D01*
X156281Y396315D01*
X156364Y396308D01*
X156454Y396301D01*
X156503D01*
X156538Y396308D01*
X156572Y396315D01*
X156621Y396322D01*
X156732Y396349D01*
X156864Y396391D01*
X156995Y396454D01*
X157065Y396495D01*
X157134Y396544D01*
X157197Y396599D01*
X157259Y396661D01*
X157266Y396669D01*
X157273Y396682D01*
X157287Y396703D01*
X157307Y396731D01*
X157335Y396766D01*
X157363Y396814D01*
X157391Y396870D01*
X157425Y396932D01*
X157453Y397001D01*
X157481Y397085D01*
X157508Y397175D01*
X157536Y397265D01*
X157557Y397369D01*
X157571Y397480D01*
X157585Y397605D01*
Y397729D01*
Y397736D01*
Y397757D01*
Y397799D01*
X157578Y397840D01*
Y397903D01*
X157571Y397965D01*
X157557Y398041D01*
X157543Y398118D01*
X157508Y398291D01*
X157446Y398464D01*
X157370Y398631D01*
X157314Y398714D01*
X157259Y398783D01*
X157252Y398790D01*
X157245Y398797D01*
X157224Y398818D01*
X157203Y398839D01*
X157134Y398901D01*
X157037Y398971D01*
X156919Y399033D01*
X156780Y399095D01*
X156628Y399137D01*
X156545Y399144D01*
X156454Y399151D01*
D02*
G37*
%LPD*%
D19*
X-70840Y612140D02*
D03*
X-86640D02*
D03*
X-70840Y596900D02*
D03*
X-86640D02*
D03*
X-70840Y582930D02*
D03*
X-86640D02*
D03*
X-465100Y703580D02*
D03*
X-449300D02*
D03*
X-465100Y728980D02*
D03*
X-449300D02*
D03*
X-485450Y611560D02*
D03*
X-501250D02*
D03*
X-485450Y596580D02*
D03*
X-501250D02*
D03*
X-231922Y639105D02*
D03*
X-247722D02*
D03*
X-247722Y608625D02*
D03*
X-231922D02*
D03*
Y593386D02*
D03*
X-247722D02*
D03*
X-105130Y565150D02*
D03*
X-120930D02*
D03*
X-484860Y405130D02*
D03*
X-500660D02*
D03*
X-369290D02*
D03*
X-385090D02*
D03*
X-244830D02*
D03*
X-260630D02*
D03*
X-119100D02*
D03*
X-134900D02*
D03*
X2820Y403860D02*
D03*
X-12980D02*
D03*
X-68860Y728980D02*
D03*
X-53060D02*
D03*
X-194590D02*
D03*
X-178790D02*
D03*
X-319050D02*
D03*
X-303250D02*
D03*
X-433350D02*
D03*
X-417550D02*
D03*
X-498120D02*
D03*
X-482320D02*
D03*
X-332460Y474980D02*
D03*
X-348260D02*
D03*
X-415570Y568960D02*
D03*
X-399770D02*
D03*
X-415570Y553720D02*
D03*
X-399770D02*
D03*
X-232176Y623866D02*
D03*
X-247976D02*
D03*
X-415570Y584200D02*
D03*
X-399770D02*
D03*
X-242850Y728980D02*
D03*
X-227050D02*
D03*
X-415570Y599440D02*
D03*
X-399770D02*
D03*
X-415570Y614680D02*
D03*
X-399770D02*
D03*
X-70840Y532130D02*
D03*
X-86640D02*
D03*
X-70840Y516890D02*
D03*
X-86640D02*
D03*
X-120930Y605790D02*
D03*
X-105130D02*
D03*
X-54330Y403860D02*
D03*
X-70130D02*
D03*
X-167360Y405130D02*
D03*
X-183160D02*
D03*
X-294360D02*
D03*
X-310160D02*
D03*
X-417550D02*
D03*
X-433350D02*
D03*
X-468910D02*
D03*
X-453110D02*
D03*
X-70840Y501650D02*
D03*
X-86640D02*
D03*
X-127280Y728980D02*
D03*
X-111480D02*
D03*
X-374930D02*
D03*
X-359130D02*
D03*
X-18060D02*
D03*
X-2260D02*
D03*
X-275310Y693420D02*
D03*
X-291110D02*
D03*
X-332460Y490220D02*
D03*
X-348260D02*
D03*
D20*
X-508380Y668020D02*
D03*
X-479680D02*
D03*
D21*
X-434340Y702590D02*
D03*
Y686790D02*
D03*
X-419100Y702590D02*
D03*
Y686790D02*
D03*
X-461010Y651790D02*
D03*
Y635990D02*
D03*
X-396240Y677190D02*
D03*
Y661390D02*
D03*
X-381000Y677190D02*
D03*
Y661390D02*
D03*
X-313690Y531850D02*
D03*
Y547650D02*
D03*
X-346710Y531850D02*
D03*
Y547650D02*
D03*
X-365760Y677190D02*
D03*
Y661390D02*
D03*
X-151130Y594640D02*
D03*
Y578840D02*
D03*
X-166370Y578840D02*
D03*
Y594640D02*
D03*
X-217170Y612420D02*
D03*
Y596620D02*
D03*
X-275590Y547090D02*
D03*
Y562890D02*
D03*
X-436269Y649937D02*
D03*
Y665737D02*
D03*
X-421029Y649937D02*
D03*
Y665737D02*
D03*
X-350520Y677190D02*
D03*
Y661390D02*
D03*
X-313690Y677190D02*
D03*
Y661390D02*
D03*
X-166370Y539470D02*
D03*
Y555270D02*
D03*
X-151130Y555270D02*
D03*
Y539470D02*
D03*
D22*
X-441150Y619760D02*
D03*
X-460550D02*
D03*
X-441150Y599440D02*
D03*
X-460550D02*
D03*
D23*
X-613390Y725270D02*
D03*
Y788270D02*
D03*
D24*
X-638890Y745270D02*
D03*
Y768270D02*
D03*
Y718770D02*
D03*
Y794770D02*
D03*
D25*
X-612140Y756770D02*
D03*
Y750270D02*
D03*
Y763270D02*
D03*
Y769770D02*
D03*
Y743770D02*
D03*
D26*
X-508280Y647040D02*
D03*
Y637540D02*
D03*
Y628040D02*
D03*
X-479780D02*
D03*
Y637540D02*
D03*
Y647040D02*
D03*
D27*
X-545000Y631370D02*
D03*
Y618670D02*
D03*
Y605970D02*
D03*
Y453570D02*
D03*
Y466270D02*
D03*
Y478970D02*
D03*
Y491670D02*
D03*
Y504370D02*
D03*
Y517070D02*
D03*
Y529770D02*
D03*
Y542470D02*
D03*
Y555170D02*
D03*
Y567870D02*
D03*
Y580570D02*
D03*
Y593270D02*
D03*
D28*
X-284805Y528290D02*
D03*
X-393700Y727710D02*
D03*
D29*
X-358449Y610616D02*
D03*
Y602488D02*
D03*
Y582168D02*
D03*
Y578104D02*
D03*
Y590296D02*
D03*
Y594360D02*
D03*
Y598424D02*
D03*
Y586232D02*
D03*
Y630936D02*
D03*
Y626872D02*
D03*
Y622808D02*
D03*
Y618744D02*
D03*
Y614680D02*
D03*
Y606552D02*
D03*
X-289759Y582168D02*
D03*
Y586232D02*
D03*
Y590296D02*
D03*
Y594360D02*
D03*
Y598424D02*
D03*
Y602488D02*
D03*
Y578104D02*
D03*
Y610616D02*
D03*
Y630936D02*
D03*
Y626872D02*
D03*
Y622808D02*
D03*
Y618744D02*
D03*
Y614680D02*
D03*
Y606552D02*
D03*
D30*
X-297688Y570175D02*
D03*
X-301752D02*
D03*
X-305816D02*
D03*
X-309880D02*
D03*
X-313944D02*
D03*
X-318008D02*
D03*
X-322072D02*
D03*
X-326136D02*
D03*
X-330200D02*
D03*
X-334264D02*
D03*
X-338328D02*
D03*
X-342392D02*
D03*
X-346456D02*
D03*
X-350520D02*
D03*
X-297688Y638865D02*
D03*
X-301752D02*
D03*
X-305816D02*
D03*
X-309880D02*
D03*
X-313944D02*
D03*
X-318008D02*
D03*
X-322072D02*
D03*
X-326136D02*
D03*
X-330200D02*
D03*
X-334264D02*
D03*
X-338328D02*
D03*
X-342392D02*
D03*
X-346456D02*
D03*
X-350520D02*
D03*
D31*
X-324104Y604520D02*
D03*
D32*
X-234380Y571910D02*
D03*
Y527910D02*
D03*
X-258380D02*
D03*
Y571910D02*
D03*
D33*
X-267040Y664210D02*
D03*
X-220640D02*
D03*
Y480060D02*
D03*
X-267040D02*
D03*
D34*
X-157890Y636270D02*
D03*
Y496160D02*
D03*
D35*
X-177890Y626520D02*
D03*
Y633020D02*
D03*
Y639520D02*
D03*
Y646020D02*
D03*
X-137890D02*
D03*
Y639520D02*
D03*
Y633020D02*
D03*
Y626520D02*
D03*
Y505910D02*
D03*
Y499410D02*
D03*
Y492910D02*
D03*
Y486410D02*
D03*
X-177890D02*
D03*
Y492910D02*
D03*
Y499410D02*
D03*
Y505910D02*
D03*
D36*
X-167640Y656270D02*
D03*
X-161140D02*
D03*
X-154640D02*
D03*
X-148140D02*
D03*
Y616270D02*
D03*
X-154640D02*
D03*
X-161140D02*
D03*
X-167640D02*
D03*
X-148140Y476160D02*
D03*
X-154640D02*
D03*
X-161140D02*
D03*
X-167640D02*
D03*
Y516160D02*
D03*
X-161140D02*
D03*
X-154640D02*
D03*
X-148140D02*
D03*
D37*
X-468630Y481660D02*
D03*
Y554660D02*
D03*
D38*
X-408940Y469390D02*
D03*
X-396240D02*
D03*
X-383540D02*
D03*
X-370840D02*
D03*
Y526290D02*
D03*
X-383540D02*
D03*
X-396240D02*
D03*
X-408940D02*
D03*
D39*
X-306460Y693420D02*
D03*
X-323460D02*
D03*
M02*
